M48
; DRILL file {KiCad 6.0.0-rc1-unknown-73a0cbf~66~ubuntu18.04.1} date Út 12. února 2019, 22:25:11 CET
; FORMAT={-:-/ absolute / inch / decimal}
; #@! TF.CreationDate,2019-02-12T22:25:11+01:00
; #@! TF.GenerationSoftware,Kicad,Pcbnew,6.0.0-rc1-unknown-73a0cbf~66~ubuntu18.04.1
; #@! TF.FileFunction,Plated,1,2,PTH
FMAT,2
INCH
T1C0.0157
T2C0.0350
T3C0.0374
T4C0.0394
T5C0.0618
%
G90
G05
T1
X6.8799Y-2.4705
X6.8799Y-2.5098
X6.8799Y-2.5492
X6.9193Y-2.4705
X6.9193Y-2.5098
X6.9193Y-2.5492
X6.9193Y-2.8051
X6.9193Y-2.8445
X6.9193Y-2.8839
T2
X6.8504Y-2.2835
X6.8906Y-2.3535
X6.9303Y-2.2835
X6.9705Y-2.3535
X7.0102Y-2.2835
X7.0504Y-2.3535
X7.0906Y-2.2835
X7.1303Y-2.3535
T3
X7.126Y-3.0709
X7.2244Y-3.0709
X7.3228Y-3.0709
X6.6535Y-3.0709
X6.752Y-3.0709
X6.8504Y-3.0709
T4
X6.6535Y-3.3465
X6.6535Y-3.4449
X7.2835Y-3.3465
X7.2835Y-3.4449
X6.9685Y-3.3465
X6.9685Y-3.4449
X6.9488Y-3.7795
X7.0472Y-3.7795
T5
X6.6705Y-2.3185
X7.3102Y-2.3185
T0
M30
