G04 #@! TF.GenerationSoftware,KiCad,Pcbnew,6.0.0-rc1-unknown-73a0cbf~66~ubuntu18.04.1*
G04 #@! TF.CreationDate,2019-02-12T22:26:01+01:00
G04 #@! TF.ProjectId,wcube-head-pcb,77637562-652d-4686-9561-642d7063622e,rev?*
G04 #@! TF.SameCoordinates,Original*
G04 #@! TF.FileFunction,Legend,Top*
G04 #@! TF.FilePolarity,Positive*
%FSLAX46Y46*%
G04 Gerber Fmt 4.6, Leading zero omitted, Abs format (unit mm)*
G04 Created by KiCad (PCBNEW 6.0.0-rc1-unknown-73a0cbf~66~ubuntu18.04.1) date 2019-02-12 22:26:01*
%MOMM*%
%LPD*%
G04 APERTURE LIST*
%ADD10C,0.150000*%
%ADD11C,0.120000*%
%ADD12C,0.010000*%
G04 APERTURE END LIST*
D10*
X166620814Y-55630985D02*
X166580900Y-55591071D01*
X166540985Y-55511242D01*
X166540985Y-55311671D01*
X166580900Y-55231842D01*
X166620814Y-55191928D01*
X166700642Y-55152014D01*
X166780471Y-55152014D01*
X166900214Y-55191928D01*
X167379185Y-55670900D01*
X167379185Y-55152014D01*
X166540985Y-54633128D02*
X166540985Y-54553300D01*
X166580900Y-54473471D01*
X166620814Y-54433557D01*
X166700642Y-54393642D01*
X166860300Y-54353728D01*
X167059871Y-54353728D01*
X167219528Y-54393642D01*
X167299357Y-54433557D01*
X167339271Y-54473471D01*
X167379185Y-54553300D01*
X167379185Y-54633128D01*
X167339271Y-54712957D01*
X167299357Y-54752871D01*
X167219528Y-54792785D01*
X167059871Y-54832700D01*
X166860300Y-54832700D01*
X166700642Y-54792785D01*
X166620814Y-54752871D01*
X166580900Y-54712957D01*
X166540985Y-54633128D01*
X167379185Y-53555442D02*
X167379185Y-54034414D01*
X167379185Y-53794928D02*
X166540985Y-53794928D01*
X166660728Y-53874757D01*
X166740557Y-53954585D01*
X166780471Y-54034414D01*
X167379185Y-53156300D02*
X167379185Y-52996642D01*
X167339271Y-52916814D01*
X167299357Y-52876900D01*
X167179614Y-52797071D01*
X167019957Y-52757157D01*
X166700642Y-52757157D01*
X166620814Y-52797071D01*
X166580900Y-52836985D01*
X166540985Y-52916814D01*
X166540985Y-53076471D01*
X166580900Y-53156300D01*
X166620814Y-53196214D01*
X166700642Y-53236128D01*
X166900214Y-53236128D01*
X166980042Y-53196214D01*
X167019957Y-53156300D01*
X167059871Y-53076471D01*
X167059871Y-52916814D01*
X167019957Y-52836985D01*
X166980042Y-52797071D01*
X166900214Y-52757157D01*
X173680685Y-91809871D02*
X174319314Y-91809871D01*
X174000000Y-92129185D02*
X174000000Y-91490557D01*
X188070385Y-66447757D02*
X188629185Y-66288100D01*
X188230042Y-66128442D01*
X188629185Y-65968785D01*
X188070385Y-65809128D01*
X188549357Y-65010842D02*
X188589271Y-65050757D01*
X188629185Y-65170500D01*
X188629185Y-65250328D01*
X188589271Y-65370071D01*
X188509442Y-65449900D01*
X188429614Y-65489814D01*
X188269957Y-65529728D01*
X188150214Y-65529728D01*
X187990557Y-65489814D01*
X187910728Y-65449900D01*
X187830900Y-65370071D01*
X187790985Y-65250328D01*
X187790985Y-65170500D01*
X187830900Y-65050757D01*
X187870814Y-65010842D01*
X187790985Y-64651614D02*
X188469528Y-64651614D01*
X188549357Y-64611700D01*
X188589271Y-64571785D01*
X188629185Y-64491957D01*
X188629185Y-64332300D01*
X188589271Y-64252471D01*
X188549357Y-64212557D01*
X188469528Y-64172642D01*
X187790985Y-64172642D01*
X188190128Y-63494100D02*
X188230042Y-63374357D01*
X188269957Y-63334442D01*
X188349785Y-63294528D01*
X188469528Y-63294528D01*
X188549357Y-63334442D01*
X188589271Y-63374357D01*
X188629185Y-63454185D01*
X188629185Y-63773500D01*
X187790985Y-63773500D01*
X187790985Y-63494100D01*
X187830900Y-63414271D01*
X187870814Y-63374357D01*
X187950642Y-63334442D01*
X188030471Y-63334442D01*
X188110300Y-63374357D01*
X188150214Y-63414271D01*
X188190128Y-63494100D01*
X188190128Y-63773500D01*
X188190128Y-62935300D02*
X188190128Y-62655900D01*
X188629185Y-62536157D02*
X188629185Y-62935300D01*
X187790985Y-62935300D01*
X187790985Y-62536157D01*
X188629185Y-61538300D02*
X187790985Y-61538300D01*
X188190128Y-61538300D02*
X188190128Y-61059328D01*
X188629185Y-61059328D02*
X187790985Y-61059328D01*
X188190128Y-60660185D02*
X188190128Y-60380785D01*
X188629185Y-60261042D02*
X188629185Y-60660185D01*
X187790985Y-60660185D01*
X187790985Y-60261042D01*
X188389700Y-59941728D02*
X188389700Y-59542585D01*
X188629185Y-60021557D02*
X187790985Y-59742157D01*
X188629185Y-59462757D01*
X188629185Y-59183357D02*
X187790985Y-59183357D01*
X187790985Y-58983785D01*
X187830900Y-58864042D01*
X187910728Y-58784214D01*
X187990557Y-58744300D01*
X188150214Y-58704385D01*
X188269957Y-58704385D01*
X188429614Y-58744300D01*
X188509442Y-58784214D01*
X188589271Y-58864042D01*
X188629185Y-58983785D01*
X188629185Y-59183357D01*
X188629185Y-57706528D02*
X187790985Y-57706528D01*
X187790985Y-57387214D01*
X187830900Y-57307385D01*
X187870814Y-57267471D01*
X187950642Y-57227557D01*
X188070385Y-57227557D01*
X188150214Y-57267471D01*
X188190128Y-57307385D01*
X188230042Y-57387214D01*
X188230042Y-57706528D01*
X188549357Y-56389357D02*
X188589271Y-56429271D01*
X188629185Y-56549014D01*
X188629185Y-56628842D01*
X188589271Y-56748585D01*
X188509442Y-56828414D01*
X188429614Y-56868328D01*
X188269957Y-56908242D01*
X188150214Y-56908242D01*
X187990557Y-56868328D01*
X187910728Y-56828414D01*
X187830900Y-56748585D01*
X187790985Y-56628842D01*
X187790985Y-56549014D01*
X187830900Y-56429271D01*
X187870814Y-56389357D01*
X188190128Y-55750728D02*
X188230042Y-55630985D01*
X188269957Y-55591071D01*
X188349785Y-55551157D01*
X188469528Y-55551157D01*
X188549357Y-55591071D01*
X188589271Y-55630985D01*
X188629185Y-55710814D01*
X188629185Y-56030128D01*
X187790985Y-56030128D01*
X187790985Y-55750728D01*
X187830900Y-55670900D01*
X187870814Y-55630985D01*
X187950642Y-55591071D01*
X188030471Y-55591071D01*
X188110300Y-55630985D01*
X188150214Y-55670900D01*
X188190128Y-55750728D01*
X188190128Y-56030128D01*
X187790985Y-54034414D02*
X188629185Y-53755014D01*
X187790985Y-53475614D01*
X188629185Y-52757157D02*
X188629185Y-53236128D01*
X188629185Y-52996642D02*
X187790985Y-52996642D01*
X187910728Y-53076471D01*
X187990557Y-53156300D01*
X188030471Y-53236128D01*
X175930685Y-73809871D02*
X176569314Y-73809871D01*
X166430685Y-73809871D02*
X167069314Y-73809871D01*
X166750000Y-74129185D02*
X166750000Y-73490557D01*
X187930685Y-73809871D02*
X188569314Y-73809871D01*
X178430685Y-73809871D02*
X179069314Y-73809871D01*
X178750000Y-74129185D02*
X178750000Y-73490557D01*
X181680685Y-84809871D02*
X182319314Y-84809871D01*
X182000000Y-85129185D02*
X182000000Y-84490557D01*
X173680685Y-84809871D02*
X174319314Y-84809871D01*
X174000000Y-85129185D02*
X174000000Y-84490557D01*
X165680685Y-84809871D02*
X166319314Y-84809871D01*
X166000000Y-85129185D02*
X166000000Y-84490557D01*
X173748057Y-81690128D02*
X173468657Y-81690128D01*
X173468657Y-82129185D02*
X173468657Y-81290985D01*
X173867800Y-81290985D01*
X174147200Y-81889700D02*
X174546342Y-81889700D01*
X174067371Y-82129185D02*
X174346771Y-81290985D01*
X174626171Y-82129185D01*
X174905571Y-82129185D02*
X174905571Y-81290985D01*
X175384542Y-82129185D01*
X175384542Y-81290985D01*
X176422314Y-82129185D02*
X176422314Y-81290985D01*
X176422314Y-81690128D02*
X176901285Y-81690128D01*
X176901285Y-82129185D02*
X176901285Y-81290985D01*
X177460085Y-81290985D02*
X177619742Y-81290985D01*
X177699571Y-81330900D01*
X177779400Y-81410728D01*
X177819314Y-81570385D01*
X177819314Y-81849785D01*
X177779400Y-82009442D01*
X177699571Y-82089271D01*
X177619742Y-82129185D01*
X177460085Y-82129185D01*
X177380257Y-82089271D01*
X177300428Y-82009442D01*
X177260514Y-81849785D01*
X177260514Y-81570385D01*
X177300428Y-81410728D01*
X177380257Y-81330900D01*
X177460085Y-81290985D01*
X178058800Y-81290985D02*
X178537771Y-81290985D01*
X178298285Y-82129185D02*
X178298285Y-81290985D01*
X179455800Y-81690128D02*
X179735200Y-81690128D01*
X179854942Y-82129185D02*
X179455800Y-82129185D01*
X179455800Y-81290985D01*
X179854942Y-81290985D01*
X180214171Y-82129185D02*
X180214171Y-81290985D01*
X180693142Y-82129185D01*
X180693142Y-81290985D01*
X181092285Y-82129185D02*
X181092285Y-81290985D01*
X181291857Y-81290985D01*
X181411600Y-81330900D01*
X181491428Y-81410728D01*
X181531342Y-81490557D01*
X181571257Y-81650214D01*
X181571257Y-81769957D01*
X181531342Y-81929614D01*
X181491428Y-82009442D01*
X181411600Y-82089271D01*
X181291857Y-82129185D01*
X181092285Y-82129185D01*
X183155571Y-81690128D02*
X182876171Y-81690128D01*
X182876171Y-82129185D02*
X182876171Y-81290985D01*
X183275314Y-81290985D01*
X183554714Y-81889700D02*
X183953857Y-81889700D01*
X183474885Y-82129185D02*
X183754285Y-81290985D01*
X184033685Y-82129185D01*
X184313085Y-82129185D02*
X184313085Y-81290985D01*
X184792057Y-82129185D01*
X184792057Y-81290985D01*
X185829828Y-82129185D02*
X185829828Y-81290985D01*
X185829828Y-81690128D02*
X186308800Y-81690128D01*
X186308800Y-82129185D02*
X186308800Y-81290985D01*
X186707942Y-81690128D02*
X186987342Y-81690128D01*
X187107085Y-82129185D02*
X186707942Y-82129185D01*
X186707942Y-81290985D01*
X187107085Y-81290985D01*
X187426400Y-81889700D02*
X187825542Y-81889700D01*
X187346571Y-82129185D02*
X187625971Y-81290985D01*
X187905371Y-82129185D01*
X188184771Y-82129185D02*
X188184771Y-81290985D01*
X188384342Y-81290985D01*
X188504085Y-81330900D01*
X188583914Y-81410728D01*
X188623828Y-81490557D01*
X188663742Y-81650214D01*
X188663742Y-81769957D01*
X188623828Y-81929614D01*
X188583914Y-82009442D01*
X188504085Y-82089271D01*
X188384342Y-82129185D01*
X188184771Y-82129185D01*
X166905571Y-81690128D02*
X166626171Y-81690128D01*
X166626171Y-82129185D02*
X166626171Y-81290985D01*
X167025314Y-81290985D01*
X167304714Y-81889700D02*
X167703857Y-81889700D01*
X167224885Y-82129185D02*
X167504285Y-81290985D01*
X167783685Y-82129185D01*
X168063085Y-82129185D02*
X168063085Y-81290985D01*
X168542057Y-82129185D01*
X168542057Y-81290985D01*
X169579828Y-82129185D02*
X169579828Y-81290985D01*
X169579828Y-81690128D02*
X170058800Y-81690128D01*
X170058800Y-82129185D02*
X170058800Y-81290985D01*
X170457942Y-81690128D02*
X170737342Y-81690128D01*
X170857085Y-82129185D02*
X170457942Y-82129185D01*
X170457942Y-81290985D01*
X170857085Y-81290985D01*
X171176400Y-81889700D02*
X171575542Y-81889700D01*
X171096571Y-82129185D02*
X171375971Y-81290985D01*
X171655371Y-82129185D01*
X171934771Y-82129185D02*
X171934771Y-81290985D01*
X172134342Y-81290985D01*
X172254085Y-81330900D01*
X172333914Y-81410728D01*
X172373828Y-81490557D01*
X172413742Y-81650214D01*
X172413742Y-81769957D01*
X172373828Y-81929614D01*
X172333914Y-82009442D01*
X172254085Y-82089271D01*
X172134342Y-82129185D01*
X171934771Y-82129185D01*
X176772100Y-92129185D02*
X176772100Y-91290985D01*
X177251071Y-92129185D01*
X177251071Y-91290985D01*
X177530471Y-91290985D02*
X178009442Y-91290985D01*
X177769957Y-92129185D02*
X177769957Y-91290985D01*
X178767814Y-92049357D02*
X178727900Y-92089271D01*
X178608157Y-92129185D01*
X178528328Y-92129185D01*
X178408585Y-92089271D01*
X178328757Y-92009442D01*
X178288842Y-91929614D01*
X178248928Y-91769957D01*
X178248928Y-91650214D01*
X178288842Y-91490557D01*
X178328757Y-91410728D01*
X178408585Y-91330900D01*
X178528328Y-91290985D01*
X178608157Y-91290985D01*
X178727900Y-91330900D01*
X178767814Y-91370814D01*
X180825742Y-73290985D02*
X181384542Y-73290985D01*
X180825742Y-74129185D01*
X181384542Y-74129185D01*
X182342485Y-74129185D02*
X182342485Y-73290985D01*
X182661800Y-73290985D01*
X182741628Y-73330900D01*
X182781542Y-73370814D01*
X182821457Y-73450642D01*
X182821457Y-73570385D01*
X182781542Y-73650214D01*
X182741628Y-73690128D01*
X182661800Y-73730042D01*
X182342485Y-73730042D01*
X183659657Y-74129185D02*
X183380257Y-73730042D01*
X183180685Y-74129185D02*
X183180685Y-73290985D01*
X183500000Y-73290985D01*
X183579828Y-73330900D01*
X183619742Y-73370814D01*
X183659657Y-73450642D01*
X183659657Y-73570385D01*
X183619742Y-73650214D01*
X183579828Y-73690128D01*
X183500000Y-73730042D01*
X183180685Y-73730042D01*
X184178542Y-73290985D02*
X184338200Y-73290985D01*
X184418028Y-73330900D01*
X184497857Y-73410728D01*
X184537771Y-73570385D01*
X184537771Y-73849785D01*
X184497857Y-74009442D01*
X184418028Y-74089271D01*
X184338200Y-74129185D01*
X184178542Y-74129185D01*
X184098714Y-74089271D01*
X184018885Y-74009442D01*
X183978971Y-73849785D01*
X183978971Y-73570385D01*
X184018885Y-73410728D01*
X184098714Y-73330900D01*
X184178542Y-73290985D01*
X185176400Y-73690128D02*
X185296142Y-73730042D01*
X185336057Y-73769957D01*
X185375971Y-73849785D01*
X185375971Y-73969528D01*
X185336057Y-74049357D01*
X185296142Y-74089271D01*
X185216314Y-74129185D01*
X184897000Y-74129185D01*
X184897000Y-73290985D01*
X185176400Y-73290985D01*
X185256228Y-73330900D01*
X185296142Y-73370814D01*
X185336057Y-73450642D01*
X185336057Y-73530471D01*
X185296142Y-73610300D01*
X185256228Y-73650214D01*
X185176400Y-73690128D01*
X184897000Y-73690128D01*
X185735200Y-73690128D02*
X186014600Y-73690128D01*
X186134342Y-74129185D02*
X185735200Y-74129185D01*
X185735200Y-73290985D01*
X186134342Y-73290985D01*
X167768014Y-73290985D02*
X168326814Y-74129185D01*
X168326814Y-73290985D02*
X167768014Y-74129185D01*
X169284757Y-73690128D02*
X169564157Y-73690128D01*
X169683900Y-74129185D02*
X169284757Y-74129185D01*
X169284757Y-73290985D01*
X169683900Y-73290985D01*
X170043128Y-74129185D02*
X170043128Y-73290985D01*
X170522100Y-74129185D01*
X170522100Y-73290985D01*
X170921242Y-74129185D02*
X170921242Y-73290985D01*
X171120814Y-73290985D01*
X171240557Y-73330900D01*
X171320385Y-73410728D01*
X171360300Y-73490557D01*
X171400214Y-73650214D01*
X171400214Y-73769957D01*
X171360300Y-73929614D01*
X171320385Y-74009442D01*
X171240557Y-74089271D01*
X171120814Y-74129185D01*
X170921242Y-74129185D01*
X172358157Y-74089271D02*
X172477900Y-74129185D01*
X172677471Y-74129185D01*
X172757300Y-74089271D01*
X172797214Y-74049357D01*
X172837128Y-73969528D01*
X172837128Y-73889700D01*
X172797214Y-73809871D01*
X172757300Y-73769957D01*
X172677471Y-73730042D01*
X172517814Y-73690128D01*
X172437985Y-73650214D01*
X172398071Y-73610300D01*
X172358157Y-73530471D01*
X172358157Y-73450642D01*
X172398071Y-73370814D01*
X172437985Y-73330900D01*
X172517814Y-73290985D01*
X172717385Y-73290985D01*
X172837128Y-73330900D01*
X173076614Y-73290985D02*
X173555585Y-73290985D01*
X173316100Y-74129185D02*
X173316100Y-73290985D01*
X173994642Y-73290985D02*
X174154300Y-73290985D01*
X174234128Y-73330900D01*
X174313957Y-73410728D01*
X174353871Y-73570385D01*
X174353871Y-73849785D01*
X174313957Y-74009442D01*
X174234128Y-74089271D01*
X174154300Y-74129185D01*
X173994642Y-74129185D01*
X173914814Y-74089271D01*
X173834985Y-74009442D01*
X173795071Y-73849785D01*
X173795071Y-73570385D01*
X173834985Y-73410728D01*
X173914814Y-73330900D01*
X173994642Y-73290985D01*
X174713100Y-74129185D02*
X174713100Y-73290985D01*
X175032414Y-73290985D01*
X175112242Y-73330900D01*
X175152157Y-73370814D01*
X175192071Y-73450642D01*
X175192071Y-73570385D01*
X175152157Y-73650214D01*
X175112242Y-73690128D01*
X175032414Y-73730042D01*
X174713100Y-73730042D01*
D11*
X176850000Y-80750000D02*
X176850000Y-79500000D01*
X175600000Y-80750000D02*
X176850000Y-80750000D01*
X167200000Y-75250000D02*
X171500000Y-75250000D01*
X167200000Y-78200000D02*
X167200000Y-75250000D01*
X166450000Y-78200000D02*
X167200000Y-78200000D01*
X175800000Y-75250000D02*
X171500000Y-75250000D01*
X175800000Y-78200000D02*
X175800000Y-75250000D01*
X176550000Y-78200000D02*
X175800000Y-78200000D01*
X166450000Y-80450000D02*
X168250000Y-80450000D01*
X166450000Y-79700000D02*
X166450000Y-80450000D01*
X168250000Y-79700000D02*
X166450000Y-79700000D01*
X168250000Y-80450000D02*
X168250000Y-79700000D01*
X174750000Y-80450000D02*
X176550000Y-80450000D01*
X174750000Y-79700000D02*
X174750000Y-80450000D01*
X176550000Y-79700000D02*
X174750000Y-79700000D01*
X176550000Y-80450000D02*
X176550000Y-79700000D01*
X169750000Y-80450000D02*
X173250000Y-80450000D01*
X169750000Y-79700000D02*
X169750000Y-80450000D01*
X173250000Y-79700000D02*
X169750000Y-79700000D01*
X173250000Y-80450000D02*
X173250000Y-79700000D01*
X166440000Y-80460000D02*
X176560000Y-80460000D01*
X166440000Y-74490000D02*
X166440000Y-80460000D01*
X176560000Y-74490000D02*
X166440000Y-74490000D01*
X176560000Y-80460000D02*
X176560000Y-74490000D01*
X183210000Y-71900000D02*
X183210000Y-71600000D01*
X181790000Y-71900000D02*
X181790000Y-71600000D01*
X185870000Y-65620000D02*
X185870000Y-60100000D01*
X169240000Y-65620000D02*
X169240000Y-60100000D01*
X185870000Y-49810000D02*
X169240000Y-49810000D01*
X185870000Y-49810000D02*
X185870000Y-57680000D01*
X169240000Y-49810000D02*
X169240000Y-57680000D01*
X185870000Y-65620000D02*
X169240000Y-65620000D01*
X178210000Y-71900000D02*
X178210000Y-71600000D01*
X176790000Y-71900000D02*
X176790000Y-71600000D01*
X180710000Y-71900000D02*
X180710000Y-71600000D01*
X179290000Y-71900000D02*
X179290000Y-71600000D01*
X188850000Y-80750000D02*
X188850000Y-79500000D01*
X187600000Y-80750000D02*
X188850000Y-80750000D01*
X179200000Y-75250000D02*
X183500000Y-75250000D01*
X179200000Y-78200000D02*
X179200000Y-75250000D01*
X178450000Y-78200000D02*
X179200000Y-78200000D01*
X187800000Y-75250000D02*
X183500000Y-75250000D01*
X187800000Y-78200000D02*
X187800000Y-75250000D01*
X188550000Y-78200000D02*
X187800000Y-78200000D01*
X178450000Y-80450000D02*
X180250000Y-80450000D01*
X178450000Y-79700000D02*
X178450000Y-80450000D01*
X180250000Y-79700000D02*
X178450000Y-79700000D01*
X180250000Y-80450000D02*
X180250000Y-79700000D01*
X186750000Y-80450000D02*
X188550000Y-80450000D01*
X186750000Y-79700000D02*
X186750000Y-80450000D01*
X188550000Y-79700000D02*
X186750000Y-79700000D01*
X188550000Y-80450000D02*
X188550000Y-79700000D01*
X181750000Y-80450000D02*
X185250000Y-80450000D01*
X181750000Y-79700000D02*
X181750000Y-80450000D01*
X185250000Y-79700000D02*
X181750000Y-79700000D01*
X185250000Y-80450000D02*
X185250000Y-79700000D01*
X178440000Y-80460000D02*
X188560000Y-80460000D01*
X178440000Y-74490000D02*
X178440000Y-80460000D01*
X188560000Y-74490000D02*
X178440000Y-74490000D01*
X188560000Y-80460000D02*
X188560000Y-74490000D01*
X182250000Y-90350000D02*
X183500000Y-90350000D01*
X182250000Y-89100000D02*
X182250000Y-90350000D01*
X187750000Y-83200000D02*
X187750000Y-86250000D01*
X184800000Y-83200000D02*
X187750000Y-83200000D01*
X184800000Y-82450000D02*
X184800000Y-83200000D01*
X187750000Y-89300000D02*
X187750000Y-86250000D01*
X184800000Y-89300000D02*
X187750000Y-89300000D01*
X184800000Y-90050000D02*
X184800000Y-89300000D01*
X182550000Y-82450000D02*
X182550000Y-84250000D01*
X183300000Y-82450000D02*
X182550000Y-82450000D01*
X183300000Y-84250000D02*
X183300000Y-82450000D01*
X182550000Y-84250000D02*
X183300000Y-84250000D01*
X182550000Y-88250000D02*
X182550000Y-90050000D01*
X183300000Y-88250000D02*
X182550000Y-88250000D01*
X183300000Y-90050000D02*
X183300000Y-88250000D01*
X182550000Y-90050000D02*
X183300000Y-90050000D01*
X182550000Y-85750000D02*
X182550000Y-86750000D01*
X183300000Y-85750000D02*
X182550000Y-85750000D01*
X183300000Y-86750000D02*
X183300000Y-85750000D01*
X182550000Y-86750000D02*
X183300000Y-86750000D01*
X182540000Y-82440000D02*
X182540000Y-90060000D01*
X188510000Y-82440000D02*
X182540000Y-82440000D01*
X188510000Y-90060000D02*
X188510000Y-82440000D01*
X182540000Y-90060000D02*
X188510000Y-90060000D01*
X166250000Y-90350000D02*
X167500000Y-90350000D01*
X166250000Y-89100000D02*
X166250000Y-90350000D01*
X171750000Y-83200000D02*
X171750000Y-86250000D01*
X168800000Y-83200000D02*
X171750000Y-83200000D01*
X168800000Y-82450000D02*
X168800000Y-83200000D01*
X171750000Y-89300000D02*
X171750000Y-86250000D01*
X168800000Y-89300000D02*
X171750000Y-89300000D01*
X168800000Y-90050000D02*
X168800000Y-89300000D01*
X166550000Y-82450000D02*
X166550000Y-84250000D01*
X167300000Y-82450000D02*
X166550000Y-82450000D01*
X167300000Y-84250000D02*
X167300000Y-82450000D01*
X166550000Y-84250000D02*
X167300000Y-84250000D01*
X166550000Y-88250000D02*
X166550000Y-90050000D01*
X167300000Y-88250000D02*
X166550000Y-88250000D01*
X167300000Y-90050000D02*
X167300000Y-88250000D01*
X166550000Y-90050000D02*
X167300000Y-90050000D01*
X166550000Y-85750000D02*
X166550000Y-86750000D01*
X167300000Y-85750000D02*
X166550000Y-85750000D01*
X167300000Y-86750000D02*
X167300000Y-85750000D01*
X166550000Y-86750000D02*
X167300000Y-86750000D01*
X166540000Y-82440000D02*
X166540000Y-90060000D01*
X172510000Y-82440000D02*
X166540000Y-82440000D01*
X172510000Y-90060000D02*
X172510000Y-82440000D01*
X166540000Y-90060000D02*
X172510000Y-90060000D01*
X174250000Y-90350000D02*
X175500000Y-90350000D01*
X174250000Y-89100000D02*
X174250000Y-90350000D01*
X179750000Y-83200000D02*
X179750000Y-86250000D01*
X176800000Y-83200000D02*
X179750000Y-83200000D01*
X176800000Y-82450000D02*
X176800000Y-83200000D01*
X179750000Y-89300000D02*
X179750000Y-86250000D01*
X176800000Y-89300000D02*
X179750000Y-89300000D01*
X176800000Y-90050000D02*
X176800000Y-89300000D01*
X174550000Y-82450000D02*
X174550000Y-84250000D01*
X175300000Y-82450000D02*
X174550000Y-82450000D01*
X175300000Y-84250000D02*
X175300000Y-82450000D01*
X174550000Y-84250000D02*
X175300000Y-84250000D01*
X174550000Y-88250000D02*
X174550000Y-90050000D01*
X175300000Y-88250000D02*
X174550000Y-88250000D01*
X175300000Y-90050000D02*
X175300000Y-88250000D01*
X174550000Y-90050000D02*
X175300000Y-90050000D01*
X174550000Y-85750000D02*
X174550000Y-86750000D01*
X175300000Y-85750000D02*
X174550000Y-85750000D01*
X175300000Y-86750000D02*
X175300000Y-85750000D01*
X174550000Y-86750000D02*
X175300000Y-86750000D01*
X174540000Y-82440000D02*
X174540000Y-90060000D01*
X180510000Y-82440000D02*
X174540000Y-82440000D01*
X180510000Y-90060000D02*
X180510000Y-82440000D01*
X174540000Y-90060000D02*
X180510000Y-90060000D01*
X181850000Y-98750000D02*
X181850000Y-97500000D01*
X180600000Y-98750000D02*
X181850000Y-98750000D01*
X174700000Y-93250000D02*
X177750000Y-93250000D01*
X174700000Y-96200000D02*
X174700000Y-93250000D01*
X173950000Y-96200000D02*
X174700000Y-96200000D01*
X180800000Y-93250000D02*
X177750000Y-93250000D01*
X180800000Y-96200000D02*
X180800000Y-93250000D01*
X181550000Y-96200000D02*
X180800000Y-96200000D01*
X173950000Y-98450000D02*
X175750000Y-98450000D01*
X173950000Y-97700000D02*
X173950000Y-98450000D01*
X175750000Y-97700000D02*
X173950000Y-97700000D01*
X175750000Y-98450000D02*
X175750000Y-97700000D01*
X179750000Y-98450000D02*
X181550000Y-98450000D01*
X179750000Y-97700000D02*
X179750000Y-98450000D01*
X181550000Y-97700000D02*
X179750000Y-97700000D01*
X181550000Y-98450000D02*
X181550000Y-97700000D01*
X177250000Y-98450000D02*
X178250000Y-98450000D01*
X177250000Y-97700000D02*
X177250000Y-98450000D01*
X178250000Y-97700000D02*
X177250000Y-97700000D01*
X178250000Y-98450000D02*
X178250000Y-97700000D01*
X173940000Y-98460000D02*
X181560000Y-98460000D01*
X173940000Y-92490000D02*
X173940000Y-98460000D01*
X181560000Y-92490000D02*
X173940000Y-92490000D01*
X181560000Y-98460000D02*
X181560000Y-92490000D01*
D12*
G36*
X181639241Y-66594374D02*
G01*
X181665245Y-66605033D01*
X181750300Y-66651472D01*
X181838010Y-66714103D01*
X181852524Y-66726382D01*
X181944668Y-66807285D01*
X181842056Y-66857134D01*
X181761085Y-66894725D01*
X181654330Y-66941891D01*
X181533564Y-66993729D01*
X181410558Y-67045331D01*
X181297082Y-67091792D01*
X181204908Y-67128207D01*
X181145808Y-67149669D01*
X181131318Y-67153334D01*
X181110524Y-67128714D01*
X181091223Y-67068296D01*
X181088885Y-67056762D01*
X181081875Y-66951268D01*
X181096174Y-66851000D01*
X181127949Y-66777335D01*
X181141694Y-66762442D01*
X181192409Y-66735879D01*
X181259824Y-66714161D01*
X181338354Y-66686837D01*
X181430874Y-66643602D01*
X181457222Y-66629185D01*
X181531119Y-66590720D01*
X181583276Y-66580105D01*
X181639241Y-66594374D01*
X181639241Y-66594374D01*
G37*
X181639241Y-66594374D02*
X181665245Y-66605033D01*
X181750300Y-66651472D01*
X181838010Y-66714103D01*
X181852524Y-66726382D01*
X181944668Y-66807285D01*
X181842056Y-66857134D01*
X181761085Y-66894725D01*
X181654330Y-66941891D01*
X181533564Y-66993729D01*
X181410558Y-67045331D01*
X181297082Y-67091792D01*
X181204908Y-67128207D01*
X181145808Y-67149669D01*
X181131318Y-67153334D01*
X181110524Y-67128714D01*
X181091223Y-67068296D01*
X181088885Y-67056762D01*
X181081875Y-66951268D01*
X181096174Y-66851000D01*
X181127949Y-66777335D01*
X181141694Y-66762442D01*
X181192409Y-66735879D01*
X181259824Y-66714161D01*
X181338354Y-66686837D01*
X181430874Y-66643602D01*
X181457222Y-66629185D01*
X181531119Y-66590720D01*
X181583276Y-66580105D01*
X181639241Y-66594374D01*
G36*
X178801055Y-66178011D02*
G01*
X178851521Y-66235543D01*
X178852653Y-66237981D01*
X178862127Y-66264003D01*
X178868380Y-66297739D01*
X178870991Y-66344737D01*
X178869535Y-66410548D01*
X178863591Y-66500724D01*
X178852734Y-66620815D01*
X178836543Y-66776371D01*
X178814594Y-66972944D01*
X178786465Y-67216083D01*
X178762753Y-67417954D01*
X178744293Y-67580014D01*
X178729380Y-67721689D01*
X178718873Y-67833886D01*
X178713627Y-67907514D01*
X178714182Y-67933368D01*
X178734091Y-67916109D01*
X178781444Y-67861267D01*
X178849950Y-67776513D01*
X178933318Y-67669516D01*
X178969441Y-67622177D01*
X179122387Y-67427479D01*
X179249520Y-67280539D01*
X179350396Y-67181812D01*
X179424573Y-67131755D01*
X179452410Y-67125111D01*
X179514036Y-67149927D01*
X179562127Y-67210883D01*
X179580444Y-67284205D01*
X179572701Y-67350056D01*
X179544805Y-67414463D01*
X179489758Y-67487752D01*
X179400561Y-67580248D01*
X179342069Y-67635898D01*
X179248168Y-67728652D01*
X179160332Y-67823814D01*
X179095252Y-67903150D01*
X179087398Y-67914118D01*
X179008611Y-68027807D01*
X179157285Y-68254266D01*
X179257856Y-68396820D01*
X179353004Y-68511848D01*
X179436915Y-68593500D01*
X179503773Y-68635923D01*
X179539124Y-68638517D01*
X179587090Y-68644154D01*
X179621048Y-68688602D01*
X179629539Y-68754287D01*
X179626287Y-68772176D01*
X179575396Y-68880467D01*
X179494784Y-68947896D01*
X179396515Y-68970905D01*
X179292653Y-68945936D01*
X179217473Y-68892754D01*
X179169869Y-68836569D01*
X179104082Y-68744909D01*
X179029587Y-68631500D01*
X178970211Y-68534545D01*
X178903122Y-68424006D01*
X178845331Y-68333992D01*
X178803273Y-68274183D01*
X178783891Y-68254154D01*
X178748508Y-68279869D01*
X178716444Y-68348603D01*
X178691761Y-68446936D01*
X178678520Y-68561446D01*
X178677333Y-68606283D01*
X178670957Y-68720842D01*
X178654427Y-68827804D01*
X178636440Y-68889907D01*
X178600036Y-68956846D01*
X178554145Y-68984028D01*
X178508835Y-68987778D01*
X178435358Y-68973135D01*
X178391769Y-68921088D01*
X178390170Y-68917648D01*
X178374900Y-68859406D01*
X178373277Y-68773517D01*
X178385278Y-68647733D01*
X178389641Y-68614259D01*
X178404612Y-68495247D01*
X178419984Y-68356168D01*
X178436295Y-68191038D01*
X178454085Y-67993874D01*
X178473891Y-67758694D01*
X178496251Y-67479513D01*
X178521706Y-67150349D01*
X178523342Y-67128894D01*
X178543378Y-66878740D01*
X178561859Y-66678876D01*
X178579751Y-66523201D01*
X178598021Y-66405617D01*
X178617634Y-66320025D01*
X178639557Y-66260325D01*
X178664756Y-66220419D01*
X178667832Y-66216907D01*
X178735797Y-66171339D01*
X178801055Y-66178011D01*
X178801055Y-66178011D01*
G37*
X178801055Y-66178011D02*
X178851521Y-66235543D01*
X178852653Y-66237981D01*
X178862127Y-66264003D01*
X178868380Y-66297739D01*
X178870991Y-66344737D01*
X178869535Y-66410548D01*
X178863591Y-66500724D01*
X178852734Y-66620815D01*
X178836543Y-66776371D01*
X178814594Y-66972944D01*
X178786465Y-67216083D01*
X178762753Y-67417954D01*
X178744293Y-67580014D01*
X178729380Y-67721689D01*
X178718873Y-67833886D01*
X178713627Y-67907514D01*
X178714182Y-67933368D01*
X178734091Y-67916109D01*
X178781444Y-67861267D01*
X178849950Y-67776513D01*
X178933318Y-67669516D01*
X178969441Y-67622177D01*
X179122387Y-67427479D01*
X179249520Y-67280539D01*
X179350396Y-67181812D01*
X179424573Y-67131755D01*
X179452410Y-67125111D01*
X179514036Y-67149927D01*
X179562127Y-67210883D01*
X179580444Y-67284205D01*
X179572701Y-67350056D01*
X179544805Y-67414463D01*
X179489758Y-67487752D01*
X179400561Y-67580248D01*
X179342069Y-67635898D01*
X179248168Y-67728652D01*
X179160332Y-67823814D01*
X179095252Y-67903150D01*
X179087398Y-67914118D01*
X179008611Y-68027807D01*
X179157285Y-68254266D01*
X179257856Y-68396820D01*
X179353004Y-68511848D01*
X179436915Y-68593500D01*
X179503773Y-68635923D01*
X179539124Y-68638517D01*
X179587090Y-68644154D01*
X179621048Y-68688602D01*
X179629539Y-68754287D01*
X179626287Y-68772176D01*
X179575396Y-68880467D01*
X179494784Y-68947896D01*
X179396515Y-68970905D01*
X179292653Y-68945936D01*
X179217473Y-68892754D01*
X179169869Y-68836569D01*
X179104082Y-68744909D01*
X179029587Y-68631500D01*
X178970211Y-68534545D01*
X178903122Y-68424006D01*
X178845331Y-68333992D01*
X178803273Y-68274183D01*
X178783891Y-68254154D01*
X178748508Y-68279869D01*
X178716444Y-68348603D01*
X178691761Y-68446936D01*
X178678520Y-68561446D01*
X178677333Y-68606283D01*
X178670957Y-68720842D01*
X178654427Y-68827804D01*
X178636440Y-68889907D01*
X178600036Y-68956846D01*
X178554145Y-68984028D01*
X178508835Y-68987778D01*
X178435358Y-68973135D01*
X178391769Y-68921088D01*
X178390170Y-68917648D01*
X178374900Y-68859406D01*
X178373277Y-68773517D01*
X178385278Y-68647733D01*
X178389641Y-68614259D01*
X178404612Y-68495247D01*
X178419984Y-68356168D01*
X178436295Y-68191038D01*
X178454085Y-67993874D01*
X178473891Y-67758694D01*
X178496251Y-67479513D01*
X178521706Y-67150349D01*
X178523342Y-67128894D01*
X178543378Y-66878740D01*
X178561859Y-66678876D01*
X178579751Y-66523201D01*
X178598021Y-66405617D01*
X178617634Y-66320025D01*
X178639557Y-66260325D01*
X178664756Y-66220419D01*
X178667832Y-66216907D01*
X178735797Y-66171339D01*
X178801055Y-66178011D01*
G36*
X182162401Y-66823004D02*
G01*
X182188692Y-66831798D01*
X182224484Y-66853296D01*
X182223694Y-66881367D01*
X182182061Y-66922001D01*
X182095324Y-66981189D01*
X182071938Y-66995936D01*
X181996773Y-67045776D01*
X181950978Y-67081849D01*
X181943779Y-67096821D01*
X181944938Y-67096889D01*
X181969185Y-67120809D01*
X181979061Y-67179473D01*
X181975299Y-67253243D01*
X181958636Y-67322477D01*
X181934984Y-67362985D01*
X181892779Y-67399581D01*
X181856684Y-67401418D01*
X181808546Y-67378333D01*
X181755926Y-67366313D01*
X181686016Y-67385753D01*
X181642933Y-67406178D01*
X181528172Y-67483527D01*
X181463522Y-67576570D01*
X181443112Y-67693782D01*
X181443111Y-67694633D01*
X181446873Y-67748716D01*
X181464023Y-67793704D01*
X181503357Y-67841378D01*
X181573671Y-67903523D01*
X181637705Y-67955304D01*
X181734281Y-68035522D01*
X181819946Y-68112281D01*
X181879980Y-68172223D01*
X181890963Y-68185147D01*
X181956808Y-68311716D01*
X181976136Y-68454422D01*
X181949679Y-68598522D01*
X181878167Y-68729269D01*
X181863122Y-68747361D01*
X181760819Y-68838438D01*
X181633834Y-68913950D01*
X181494947Y-68970149D01*
X181356941Y-69003285D01*
X181232595Y-69009609D01*
X181134692Y-68985371D01*
X181108678Y-68968683D01*
X181060581Y-68904441D01*
X181042223Y-68824613D01*
X181049506Y-68742201D01*
X181078336Y-68670209D01*
X181124617Y-68621638D01*
X181184253Y-68609491D01*
X181218099Y-68621299D01*
X181314913Y-68646153D01*
X181432790Y-68639369D01*
X181549554Y-68605592D01*
X181643030Y-68549470D01*
X181664165Y-68527838D01*
X181689068Y-68471586D01*
X181670249Y-68409763D01*
X181604649Y-68337290D01*
X181501199Y-68257440D01*
X181332916Y-68121659D01*
X181218489Y-67986508D01*
X181155540Y-67847809D01*
X181141685Y-67701380D01*
X181149349Y-67639749D01*
X181177204Y-67535125D01*
X181218102Y-67436947D01*
X181263068Y-67364796D01*
X181284771Y-67344266D01*
X181298620Y-67326842D01*
X181260326Y-67327102D01*
X181169203Y-67345066D01*
X181156699Y-67347944D01*
X181080931Y-67358770D01*
X181027111Y-67354580D01*
X181021688Y-67352070D01*
X181003072Y-67314645D01*
X181006407Y-67303852D01*
X181339629Y-67303852D01*
X181343504Y-67320630D01*
X181358444Y-67322667D01*
X181381674Y-67312341D01*
X181377259Y-67303852D01*
X181343766Y-67300475D01*
X181339629Y-67303852D01*
X181006407Y-67303852D01*
X181015129Y-67275630D01*
X181424296Y-67275630D01*
X181428170Y-67292408D01*
X181443111Y-67294445D01*
X181466341Y-67284119D01*
X181461926Y-67275630D01*
X181428433Y-67272252D01*
X181424296Y-67275630D01*
X181015129Y-67275630D01*
X181017477Y-67268035D01*
X181020823Y-67265442D01*
X181527017Y-67265442D01*
X181527778Y-67265465D01*
X181573497Y-67253665D01*
X181651605Y-67222254D01*
X181739444Y-67180843D01*
X181827167Y-67135525D01*
X181863592Y-67113669D01*
X181848756Y-67115270D01*
X181782697Y-67140323D01*
X181665452Y-67188821D01*
X181654778Y-67193327D01*
X181576014Y-67229087D01*
X181530246Y-67254933D01*
X181527017Y-67265442D01*
X181020823Y-67265442D01*
X181054614Y-67239257D01*
X181065130Y-67238000D01*
X181110068Y-67237273D01*
X181118071Y-67236836D01*
X181154364Y-67224893D01*
X181230630Y-67194489D01*
X181335472Y-67150561D01*
X181457495Y-67098043D01*
X181585304Y-67041869D01*
X181707502Y-66986975D01*
X181812694Y-66938296D01*
X181860135Y-66915487D01*
X181976681Y-66860190D01*
X182057031Y-66828606D01*
X182114499Y-66817341D01*
X182162401Y-66823004D01*
X182162401Y-66823004D01*
G37*
X182162401Y-66823004D02*
X182188692Y-66831798D01*
X182224484Y-66853296D01*
X182223694Y-66881367D01*
X182182061Y-66922001D01*
X182095324Y-66981189D01*
X182071938Y-66995936D01*
X181996773Y-67045776D01*
X181950978Y-67081849D01*
X181943779Y-67096821D01*
X181944938Y-67096889D01*
X181969185Y-67120809D01*
X181979061Y-67179473D01*
X181975299Y-67253243D01*
X181958636Y-67322477D01*
X181934984Y-67362985D01*
X181892779Y-67399581D01*
X181856684Y-67401418D01*
X181808546Y-67378333D01*
X181755926Y-67366313D01*
X181686016Y-67385753D01*
X181642933Y-67406178D01*
X181528172Y-67483527D01*
X181463522Y-67576570D01*
X181443112Y-67693782D01*
X181443111Y-67694633D01*
X181446873Y-67748716D01*
X181464023Y-67793704D01*
X181503357Y-67841378D01*
X181573671Y-67903523D01*
X181637705Y-67955304D01*
X181734281Y-68035522D01*
X181819946Y-68112281D01*
X181879980Y-68172223D01*
X181890963Y-68185147D01*
X181956808Y-68311716D01*
X181976136Y-68454422D01*
X181949679Y-68598522D01*
X181878167Y-68729269D01*
X181863122Y-68747361D01*
X181760819Y-68838438D01*
X181633834Y-68913950D01*
X181494947Y-68970149D01*
X181356941Y-69003285D01*
X181232595Y-69009609D01*
X181134692Y-68985371D01*
X181108678Y-68968683D01*
X181060581Y-68904441D01*
X181042223Y-68824613D01*
X181049506Y-68742201D01*
X181078336Y-68670209D01*
X181124617Y-68621638D01*
X181184253Y-68609491D01*
X181218099Y-68621299D01*
X181314913Y-68646153D01*
X181432790Y-68639369D01*
X181549554Y-68605592D01*
X181643030Y-68549470D01*
X181664165Y-68527838D01*
X181689068Y-68471586D01*
X181670249Y-68409763D01*
X181604649Y-68337290D01*
X181501199Y-68257440D01*
X181332916Y-68121659D01*
X181218489Y-67986508D01*
X181155540Y-67847809D01*
X181141685Y-67701380D01*
X181149349Y-67639749D01*
X181177204Y-67535125D01*
X181218102Y-67436947D01*
X181263068Y-67364796D01*
X181284771Y-67344266D01*
X181298620Y-67326842D01*
X181260326Y-67327102D01*
X181169203Y-67345066D01*
X181156699Y-67347944D01*
X181080931Y-67358770D01*
X181027111Y-67354580D01*
X181021688Y-67352070D01*
X181003072Y-67314645D01*
X181006407Y-67303852D01*
X181339629Y-67303852D01*
X181343504Y-67320630D01*
X181358444Y-67322667D01*
X181381674Y-67312341D01*
X181377259Y-67303852D01*
X181343766Y-67300475D01*
X181339629Y-67303852D01*
X181006407Y-67303852D01*
X181015129Y-67275630D01*
X181424296Y-67275630D01*
X181428170Y-67292408D01*
X181443111Y-67294445D01*
X181466341Y-67284119D01*
X181461926Y-67275630D01*
X181428433Y-67272252D01*
X181424296Y-67275630D01*
X181015129Y-67275630D01*
X181017477Y-67268035D01*
X181020823Y-67265442D01*
X181527017Y-67265442D01*
X181527778Y-67265465D01*
X181573497Y-67253665D01*
X181651605Y-67222254D01*
X181739444Y-67180843D01*
X181827167Y-67135525D01*
X181863592Y-67113669D01*
X181848756Y-67115270D01*
X181782697Y-67140323D01*
X181665452Y-67188821D01*
X181654778Y-67193327D01*
X181576014Y-67229087D01*
X181530246Y-67254933D01*
X181527017Y-67265442D01*
X181020823Y-67265442D01*
X181054614Y-67239257D01*
X181065130Y-67238000D01*
X181110068Y-67237273D01*
X181118071Y-67236836D01*
X181154364Y-67224893D01*
X181230630Y-67194489D01*
X181335472Y-67150561D01*
X181457495Y-67098043D01*
X181585304Y-67041869D01*
X181707502Y-66986975D01*
X181812694Y-66938296D01*
X181860135Y-66915487D01*
X181976681Y-66860190D01*
X182057031Y-66828606D01*
X182114499Y-66817341D01*
X182162401Y-66823004D01*
G36*
X175951865Y-66113730D02*
G01*
X176112619Y-66117582D01*
X176239591Y-66124429D01*
X176338446Y-66134795D01*
X176414847Y-66149203D01*
X176474458Y-66168179D01*
X176522943Y-66192246D01*
X176565965Y-66221928D01*
X176591621Y-66242742D01*
X176638527Y-66283559D01*
X176677171Y-66323452D01*
X176708358Y-66368092D01*
X176732890Y-66423150D01*
X176751572Y-66494298D01*
X176765207Y-66587207D01*
X176774598Y-66707547D01*
X176780550Y-66860991D01*
X176783866Y-67053209D01*
X176785348Y-67289872D01*
X176785802Y-67576652D01*
X176785824Y-67613346D01*
X176785732Y-67892355D01*
X176784954Y-68120553D01*
X176783270Y-68303572D01*
X176780462Y-68447043D01*
X176776310Y-68556598D01*
X176770596Y-68637869D01*
X176763100Y-68696487D01*
X176753603Y-68738084D01*
X176741886Y-68768292D01*
X176740810Y-68770457D01*
X176638825Y-68920505D01*
X176502497Y-69029246D01*
X176470069Y-69046969D01*
X176440345Y-69060641D01*
X176405944Y-69071771D01*
X176361119Y-69080612D01*
X176300122Y-69087414D01*
X176217206Y-69092431D01*
X176106622Y-69095913D01*
X175962624Y-69098113D01*
X175779463Y-69099283D01*
X175551392Y-69099674D01*
X175272663Y-69099539D01*
X175270624Y-69099537D01*
X174987015Y-69098983D01*
X174754374Y-69097822D01*
X174567229Y-69095843D01*
X174420106Y-69092831D01*
X174307530Y-69088577D01*
X174224029Y-69082868D01*
X174164128Y-69075491D01*
X174122353Y-69066235D01*
X174093231Y-69054888D01*
X174091222Y-69053851D01*
X173943974Y-68949093D01*
X173838745Y-68814959D01*
X173808206Y-68749739D01*
X173796693Y-68712791D01*
X173787472Y-68664725D01*
X173780372Y-68599819D01*
X173775219Y-68512347D01*
X173771841Y-68396585D01*
X173770066Y-68246806D01*
X173770030Y-68226902D01*
X174269700Y-68226902D01*
X174301353Y-68351654D01*
X174361331Y-68482085D01*
X174443763Y-68609158D01*
X174542778Y-68723835D01*
X174652502Y-68817078D01*
X174767065Y-68879848D01*
X174880595Y-68903109D01*
X174881721Y-68903112D01*
X175003511Y-68875741D01*
X175123473Y-68796790D01*
X175236048Y-68671000D01*
X175324553Y-68525399D01*
X175383963Y-68409223D01*
X175446230Y-68593440D01*
X175503315Y-68752862D01*
X175552184Y-68862595D01*
X175597860Y-68927818D01*
X175645363Y-68953712D01*
X175699718Y-68945456D01*
X175757127Y-68914108D01*
X175813993Y-68851927D01*
X175856452Y-68759715D01*
X175858732Y-68751830D01*
X175898083Y-68614891D01*
X175952189Y-68434811D01*
X176017789Y-68221941D01*
X176091620Y-67986632D01*
X176170423Y-67739235D01*
X176250935Y-67490100D01*
X176329896Y-67249580D01*
X176369970Y-67129228D01*
X176435138Y-66933662D01*
X176483763Y-66784165D01*
X176517580Y-66673400D01*
X176538321Y-66594032D01*
X176547721Y-66538723D01*
X176547511Y-66500139D01*
X176539427Y-66470944D01*
X176529971Y-66452094D01*
X176470534Y-66384713D01*
X176401509Y-66368449D01*
X176342883Y-66396059D01*
X176299914Y-66447705D01*
X176251324Y-66538022D01*
X176195968Y-66670081D01*
X176132700Y-66846952D01*
X176060375Y-67071706D01*
X175977847Y-67347414D01*
X175943326Y-67467044D01*
X175887892Y-67659698D01*
X175835886Y-67838361D01*
X175789817Y-67994578D01*
X175752193Y-68119896D01*
X175725521Y-68205860D01*
X175714037Y-68239889D01*
X175681629Y-68324556D01*
X175624773Y-68169334D01*
X175591342Y-68076857D01*
X175564868Y-68001463D01*
X175554218Y-67969380D01*
X175555424Y-67927719D01*
X175567589Y-67841427D01*
X175588929Y-67720858D01*
X175617662Y-67576369D01*
X175639247Y-67475491D01*
X175674285Y-67314036D01*
X175706194Y-67163211D01*
X175732390Y-67035511D01*
X175750290Y-66943432D01*
X175755712Y-66912179D01*
X175758741Y-66785870D01*
X175726599Y-66690930D01*
X175662421Y-66635174D01*
X175641875Y-66628307D01*
X175573182Y-66625235D01*
X175519078Y-66658408D01*
X175475985Y-66733294D01*
X175440322Y-66855361D01*
X175418147Y-66970129D01*
X175390820Y-67128325D01*
X175370307Y-67237842D01*
X175354937Y-67305805D01*
X175343041Y-67339340D01*
X175332948Y-67345570D01*
X175330566Y-67343751D01*
X175317784Y-67312187D01*
X175294684Y-67238592D01*
X175265100Y-67135576D01*
X175246210Y-67066302D01*
X175192185Y-66892685D01*
X175137279Y-66774332D01*
X175080355Y-66710061D01*
X175020278Y-66698692D01*
X174955912Y-66739045D01*
X174943607Y-66751904D01*
X174903289Y-66809042D01*
X174881950Y-66876200D01*
X174880546Y-66961049D01*
X174900028Y-67071261D01*
X174941351Y-67214510D01*
X175005470Y-67398466D01*
X175033308Y-67473448D01*
X175201161Y-67920562D01*
X175149605Y-68070412D01*
X175080174Y-68244652D01*
X175008269Y-68373342D01*
X174936351Y-68452908D01*
X174867694Y-68479778D01*
X174809529Y-68455493D01*
X174739629Y-68389865D01*
X174667768Y-68293734D01*
X174613150Y-68197556D01*
X174540779Y-68069551D01*
X174475048Y-67995022D01*
X174412334Y-67971939D01*
X174349013Y-67998276D01*
X174314858Y-68030589D01*
X174272245Y-68116868D01*
X174269700Y-68226902D01*
X173770030Y-68226902D01*
X173769721Y-68057287D01*
X173770634Y-67822302D01*
X173772428Y-67562151D01*
X173780778Y-66490112D01*
X173847754Y-66382378D01*
X173915395Y-66297765D01*
X174002453Y-66218102D01*
X174029084Y-66198934D01*
X174143438Y-66123223D01*
X175210274Y-66114899D01*
X175506356Y-66112913D01*
X175751665Y-66112349D01*
X175951865Y-66113730D01*
X175951865Y-66113730D01*
G37*
X175951865Y-66113730D02*
X176112619Y-66117582D01*
X176239591Y-66124429D01*
X176338446Y-66134795D01*
X176414847Y-66149203D01*
X176474458Y-66168179D01*
X176522943Y-66192246D01*
X176565965Y-66221928D01*
X176591621Y-66242742D01*
X176638527Y-66283559D01*
X176677171Y-66323452D01*
X176708358Y-66368092D01*
X176732890Y-66423150D01*
X176751572Y-66494298D01*
X176765207Y-66587207D01*
X176774598Y-66707547D01*
X176780550Y-66860991D01*
X176783866Y-67053209D01*
X176785348Y-67289872D01*
X176785802Y-67576652D01*
X176785824Y-67613346D01*
X176785732Y-67892355D01*
X176784954Y-68120553D01*
X176783270Y-68303572D01*
X176780462Y-68447043D01*
X176776310Y-68556598D01*
X176770596Y-68637869D01*
X176763100Y-68696487D01*
X176753603Y-68738084D01*
X176741886Y-68768292D01*
X176740810Y-68770457D01*
X176638825Y-68920505D01*
X176502497Y-69029246D01*
X176470069Y-69046969D01*
X176440345Y-69060641D01*
X176405944Y-69071771D01*
X176361119Y-69080612D01*
X176300122Y-69087414D01*
X176217206Y-69092431D01*
X176106622Y-69095913D01*
X175962624Y-69098113D01*
X175779463Y-69099283D01*
X175551392Y-69099674D01*
X175272663Y-69099539D01*
X175270624Y-69099537D01*
X174987015Y-69098983D01*
X174754374Y-69097822D01*
X174567229Y-69095843D01*
X174420106Y-69092831D01*
X174307530Y-69088577D01*
X174224029Y-69082868D01*
X174164128Y-69075491D01*
X174122353Y-69066235D01*
X174093231Y-69054888D01*
X174091222Y-69053851D01*
X173943974Y-68949093D01*
X173838745Y-68814959D01*
X173808206Y-68749739D01*
X173796693Y-68712791D01*
X173787472Y-68664725D01*
X173780372Y-68599819D01*
X173775219Y-68512347D01*
X173771841Y-68396585D01*
X173770066Y-68246806D01*
X173770030Y-68226902D01*
X174269700Y-68226902D01*
X174301353Y-68351654D01*
X174361331Y-68482085D01*
X174443763Y-68609158D01*
X174542778Y-68723835D01*
X174652502Y-68817078D01*
X174767065Y-68879848D01*
X174880595Y-68903109D01*
X174881721Y-68903112D01*
X175003511Y-68875741D01*
X175123473Y-68796790D01*
X175236048Y-68671000D01*
X175324553Y-68525399D01*
X175383963Y-68409223D01*
X175446230Y-68593440D01*
X175503315Y-68752862D01*
X175552184Y-68862595D01*
X175597860Y-68927818D01*
X175645363Y-68953712D01*
X175699718Y-68945456D01*
X175757127Y-68914108D01*
X175813993Y-68851927D01*
X175856452Y-68759715D01*
X175858732Y-68751830D01*
X175898083Y-68614891D01*
X175952189Y-68434811D01*
X176017789Y-68221941D01*
X176091620Y-67986632D01*
X176170423Y-67739235D01*
X176250935Y-67490100D01*
X176329896Y-67249580D01*
X176369970Y-67129228D01*
X176435138Y-66933662D01*
X176483763Y-66784165D01*
X176517580Y-66673400D01*
X176538321Y-66594032D01*
X176547721Y-66538723D01*
X176547511Y-66500139D01*
X176539427Y-66470944D01*
X176529971Y-66452094D01*
X176470534Y-66384713D01*
X176401509Y-66368449D01*
X176342883Y-66396059D01*
X176299914Y-66447705D01*
X176251324Y-66538022D01*
X176195968Y-66670081D01*
X176132700Y-66846952D01*
X176060375Y-67071706D01*
X175977847Y-67347414D01*
X175943326Y-67467044D01*
X175887892Y-67659698D01*
X175835886Y-67838361D01*
X175789817Y-67994578D01*
X175752193Y-68119896D01*
X175725521Y-68205860D01*
X175714037Y-68239889D01*
X175681629Y-68324556D01*
X175624773Y-68169334D01*
X175591342Y-68076857D01*
X175564868Y-68001463D01*
X175554218Y-67969380D01*
X175555424Y-67927719D01*
X175567589Y-67841427D01*
X175588929Y-67720858D01*
X175617662Y-67576369D01*
X175639247Y-67475491D01*
X175674285Y-67314036D01*
X175706194Y-67163211D01*
X175732390Y-67035511D01*
X175750290Y-66943432D01*
X175755712Y-66912179D01*
X175758741Y-66785870D01*
X175726599Y-66690930D01*
X175662421Y-66635174D01*
X175641875Y-66628307D01*
X175573182Y-66625235D01*
X175519078Y-66658408D01*
X175475985Y-66733294D01*
X175440322Y-66855361D01*
X175418147Y-66970129D01*
X175390820Y-67128325D01*
X175370307Y-67237842D01*
X175354937Y-67305805D01*
X175343041Y-67339340D01*
X175332948Y-67345570D01*
X175330566Y-67343751D01*
X175317784Y-67312187D01*
X175294684Y-67238592D01*
X175265100Y-67135576D01*
X175246210Y-67066302D01*
X175192185Y-66892685D01*
X175137279Y-66774332D01*
X175080355Y-66710061D01*
X175020278Y-66698692D01*
X174955912Y-66739045D01*
X174943607Y-66751904D01*
X174903289Y-66809042D01*
X174881950Y-66876200D01*
X174880546Y-66961049D01*
X174900028Y-67071261D01*
X174941351Y-67214510D01*
X175005470Y-67398466D01*
X175033308Y-67473448D01*
X175201161Y-67920562D01*
X175149605Y-68070412D01*
X175080174Y-68244652D01*
X175008269Y-68373342D01*
X174936351Y-68452908D01*
X174867694Y-68479778D01*
X174809529Y-68455493D01*
X174739629Y-68389865D01*
X174667768Y-68293734D01*
X174613150Y-68197556D01*
X174540779Y-68069551D01*
X174475048Y-67995022D01*
X174412334Y-67971939D01*
X174349013Y-67998276D01*
X174314858Y-68030589D01*
X174272245Y-68116868D01*
X174269700Y-68226902D01*
X173770030Y-68226902D01*
X173769721Y-68057287D01*
X173770634Y-67822302D01*
X173772428Y-67562151D01*
X173780778Y-66490112D01*
X173847754Y-66382378D01*
X173915395Y-66297765D01*
X174002453Y-66218102D01*
X174029084Y-66198934D01*
X174143438Y-66123223D01*
X175210274Y-66114899D01*
X175506356Y-66112913D01*
X175751665Y-66112349D01*
X175951865Y-66113730D01*
G36*
X180825753Y-67128986D02*
G01*
X180859746Y-67145243D01*
X180883214Y-67180836D01*
X180897504Y-67242717D01*
X180903962Y-67337838D01*
X180903934Y-67473153D01*
X180898767Y-67655613D01*
X180896222Y-67725804D01*
X180874412Y-68139988D01*
X180841619Y-68516618D01*
X180798406Y-68853150D01*
X180745338Y-69147039D01*
X180682981Y-69395742D01*
X180611898Y-69596711D01*
X180532654Y-69747405D01*
X180445814Y-69845276D01*
X180422240Y-69861648D01*
X180288943Y-69911024D01*
X180141372Y-69907137D01*
X180017889Y-69866458D01*
X179923926Y-69807809D01*
X179824075Y-69721018D01*
X179735288Y-69623187D01*
X179674522Y-69531419D01*
X179665573Y-69511104D01*
X179653710Y-69435570D01*
X179665254Y-69356826D01*
X179694756Y-69296383D01*
X179725110Y-69276052D01*
X179765052Y-69291924D01*
X179822286Y-69341340D01*
X179860881Y-69384890D01*
X179965650Y-69488939D01*
X180076380Y-69553909D01*
X180183769Y-69577448D01*
X180278515Y-69557200D01*
X180340297Y-69506209D01*
X180394332Y-69410581D01*
X180446720Y-69267010D01*
X180495296Y-69083997D01*
X180537893Y-68870041D01*
X180572347Y-68633641D01*
X180580254Y-68564445D01*
X180596929Y-68409223D01*
X180535075Y-68490696D01*
X180480589Y-68549000D01*
X180397646Y-68622986D01*
X180305950Y-68695307D01*
X180170265Y-68781379D01*
X180059443Y-68818623D01*
X179968676Y-68806230D01*
X179893158Y-68743391D01*
X179828084Y-68629295D01*
X179821410Y-68613707D01*
X179790403Y-68495400D01*
X179780344Y-68336519D01*
X179791290Y-68133425D01*
X179823297Y-67882480D01*
X179833818Y-67816556D01*
X179868714Y-67614263D01*
X179899575Y-67461461D01*
X179928981Y-67351584D01*
X179959510Y-67278068D01*
X179993740Y-67234347D01*
X180034250Y-67213857D01*
X180072144Y-67209778D01*
X180146411Y-67228500D01*
X180188596Y-67286051D01*
X180198932Y-67384515D01*
X180177656Y-67525972D01*
X180127863Y-67703667D01*
X180087206Y-67853105D01*
X180057291Y-68009508D01*
X180039466Y-68159361D01*
X180035079Y-68289150D01*
X180045479Y-68385361D01*
X180056709Y-68416770D01*
X180087324Y-68456647D01*
X180130511Y-68460211D01*
X180171074Y-68448037D01*
X180238558Y-68408504D01*
X180324531Y-68336707D01*
X180415259Y-68246731D01*
X180497015Y-68152660D01*
X180556066Y-68068576D01*
X180571930Y-68036868D01*
X180585451Y-67979266D01*
X180599596Y-67878777D01*
X180612794Y-67748915D01*
X180623473Y-67603195D01*
X180624581Y-67584015D01*
X180636233Y-67411007D01*
X180650532Y-67286802D01*
X180670065Y-67203758D01*
X180697417Y-67154233D01*
X180735176Y-67130585D01*
X180779889Y-67125112D01*
X180825753Y-67128986D01*
X180825753Y-67128986D01*
G37*
X180825753Y-67128986D02*
X180859746Y-67145243D01*
X180883214Y-67180836D01*
X180897504Y-67242717D01*
X180903962Y-67337838D01*
X180903934Y-67473153D01*
X180898767Y-67655613D01*
X180896222Y-67725804D01*
X180874412Y-68139988D01*
X180841619Y-68516618D01*
X180798406Y-68853150D01*
X180745338Y-69147039D01*
X180682981Y-69395742D01*
X180611898Y-69596711D01*
X180532654Y-69747405D01*
X180445814Y-69845276D01*
X180422240Y-69861648D01*
X180288943Y-69911024D01*
X180141372Y-69907137D01*
X180017889Y-69866458D01*
X179923926Y-69807809D01*
X179824075Y-69721018D01*
X179735288Y-69623187D01*
X179674522Y-69531419D01*
X179665573Y-69511104D01*
X179653710Y-69435570D01*
X179665254Y-69356826D01*
X179694756Y-69296383D01*
X179725110Y-69276052D01*
X179765052Y-69291924D01*
X179822286Y-69341340D01*
X179860881Y-69384890D01*
X179965650Y-69488939D01*
X180076380Y-69553909D01*
X180183769Y-69577448D01*
X180278515Y-69557200D01*
X180340297Y-69506209D01*
X180394332Y-69410581D01*
X180446720Y-69267010D01*
X180495296Y-69083997D01*
X180537893Y-68870041D01*
X180572347Y-68633641D01*
X180580254Y-68564445D01*
X180596929Y-68409223D01*
X180535075Y-68490696D01*
X180480589Y-68549000D01*
X180397646Y-68622986D01*
X180305950Y-68695307D01*
X180170265Y-68781379D01*
X180059443Y-68818623D01*
X179968676Y-68806230D01*
X179893158Y-68743391D01*
X179828084Y-68629295D01*
X179821410Y-68613707D01*
X179790403Y-68495400D01*
X179780344Y-68336519D01*
X179791290Y-68133425D01*
X179823297Y-67882480D01*
X179833818Y-67816556D01*
X179868714Y-67614263D01*
X179899575Y-67461461D01*
X179928981Y-67351584D01*
X179959510Y-67278068D01*
X179993740Y-67234347D01*
X180034250Y-67213857D01*
X180072144Y-67209778D01*
X180146411Y-67228500D01*
X180188596Y-67286051D01*
X180198932Y-67384515D01*
X180177656Y-67525972D01*
X180127863Y-67703667D01*
X180087206Y-67853105D01*
X180057291Y-68009508D01*
X180039466Y-68159361D01*
X180035079Y-68289150D01*
X180045479Y-68385361D01*
X180056709Y-68416770D01*
X180087324Y-68456647D01*
X180130511Y-68460211D01*
X180171074Y-68448037D01*
X180238558Y-68408504D01*
X180324531Y-68336707D01*
X180415259Y-68246731D01*
X180497015Y-68152660D01*
X180556066Y-68068576D01*
X180571930Y-68036868D01*
X180585451Y-67979266D01*
X180599596Y-67878777D01*
X180612794Y-67748915D01*
X180623473Y-67603195D01*
X180624581Y-67584015D01*
X180636233Y-67411007D01*
X180650532Y-67286802D01*
X180670065Y-67203758D01*
X180697417Y-67154233D01*
X180735176Y-67130585D01*
X180779889Y-67125112D01*
X180825753Y-67128986D01*
G36*
X178058362Y-67130010D02*
G01*
X178090774Y-67148880D01*
X178113479Y-67187989D01*
X178127355Y-67253602D01*
X178133277Y-67351983D01*
X178132124Y-67489397D01*
X178124772Y-67672111D01*
X178115744Y-67842176D01*
X178097948Y-68135171D01*
X178079675Y-68381904D01*
X178059843Y-68592554D01*
X178037370Y-68777301D01*
X178011176Y-68946324D01*
X177982050Y-69100667D01*
X177918232Y-69366842D01*
X177845587Y-69578657D01*
X177762429Y-69737742D01*
X177667072Y-69845730D01*
X177557829Y-69904249D01*
X177433015Y-69914932D01*
X177290943Y-69879409D01*
X177212734Y-69844744D01*
X177085169Y-69762685D01*
X176982913Y-69661030D01*
X176912499Y-69550192D01*
X176880459Y-69440585D01*
X176893326Y-69342620D01*
X176895146Y-69338475D01*
X176936680Y-69281819D01*
X176986175Y-69279545D01*
X177045443Y-69331950D01*
X177071599Y-69367274D01*
X177162127Y-69465574D01*
X177273779Y-69537786D01*
X177388649Y-69573857D01*
X177441886Y-69575179D01*
X177508686Y-69557691D01*
X177559841Y-69511116D01*
X177596272Y-69453445D01*
X177643109Y-69346297D01*
X177689610Y-69198293D01*
X177732028Y-69024918D01*
X177766612Y-68841658D01*
X177789616Y-68663996D01*
X177790964Y-68649112D01*
X177809380Y-68437445D01*
X177657745Y-68582605D01*
X177505664Y-68712088D01*
X177373866Y-68789333D01*
X177261352Y-68814379D01*
X177167120Y-68787264D01*
X177090170Y-68708028D01*
X177040245Y-68606778D01*
X177019801Y-68511958D01*
X177011059Y-68374968D01*
X177013765Y-68208801D01*
X177027667Y-68026453D01*
X177052509Y-67840915D01*
X177055565Y-67822802D01*
X177092833Y-67617219D01*
X177126355Y-67461562D01*
X177158821Y-67349683D01*
X177192919Y-67275431D01*
X177231339Y-67232657D01*
X177276772Y-67215211D01*
X177321194Y-67215498D01*
X177388417Y-67245905D01*
X177421523Y-67318150D01*
X177420607Y-67433235D01*
X177385767Y-67592161D01*
X177364487Y-67661696D01*
X177325877Y-67802537D01*
X177295989Y-67954382D01*
X177275951Y-68104863D01*
X177266892Y-68241612D01*
X177269942Y-68352261D01*
X177286229Y-68424442D01*
X177293754Y-68436613D01*
X177322338Y-68459686D01*
X177361423Y-68456893D01*
X177429248Y-68426541D01*
X177435285Y-68423472D01*
X177540124Y-68350832D01*
X177647887Y-68245359D01*
X177740623Y-68126660D01*
X177793162Y-68032522D01*
X177812224Y-67961294D01*
X177829477Y-67846729D01*
X177843229Y-67701932D01*
X177849616Y-67595078D01*
X177861017Y-67416587D01*
X177877806Y-67287533D01*
X177902426Y-67200987D01*
X177937322Y-67150018D01*
X177984938Y-67127698D01*
X178015367Y-67125111D01*
X178058362Y-67130010D01*
X178058362Y-67130010D01*
G37*
X178058362Y-67130010D02*
X178090774Y-67148880D01*
X178113479Y-67187989D01*
X178127355Y-67253602D01*
X178133277Y-67351983D01*
X178132124Y-67489397D01*
X178124772Y-67672111D01*
X178115744Y-67842176D01*
X178097948Y-68135171D01*
X178079675Y-68381904D01*
X178059843Y-68592554D01*
X178037370Y-68777301D01*
X178011176Y-68946324D01*
X177982050Y-69100667D01*
X177918232Y-69366842D01*
X177845587Y-69578657D01*
X177762429Y-69737742D01*
X177667072Y-69845730D01*
X177557829Y-69904249D01*
X177433015Y-69914932D01*
X177290943Y-69879409D01*
X177212734Y-69844744D01*
X177085169Y-69762685D01*
X176982913Y-69661030D01*
X176912499Y-69550192D01*
X176880459Y-69440585D01*
X176893326Y-69342620D01*
X176895146Y-69338475D01*
X176936680Y-69281819D01*
X176986175Y-69279545D01*
X177045443Y-69331950D01*
X177071599Y-69367274D01*
X177162127Y-69465574D01*
X177273779Y-69537786D01*
X177388649Y-69573857D01*
X177441886Y-69575179D01*
X177508686Y-69557691D01*
X177559841Y-69511116D01*
X177596272Y-69453445D01*
X177643109Y-69346297D01*
X177689610Y-69198293D01*
X177732028Y-69024918D01*
X177766612Y-68841658D01*
X177789616Y-68663996D01*
X177790964Y-68649112D01*
X177809380Y-68437445D01*
X177657745Y-68582605D01*
X177505664Y-68712088D01*
X177373866Y-68789333D01*
X177261352Y-68814379D01*
X177167120Y-68787264D01*
X177090170Y-68708028D01*
X177040245Y-68606778D01*
X177019801Y-68511958D01*
X177011059Y-68374968D01*
X177013765Y-68208801D01*
X177027667Y-68026453D01*
X177052509Y-67840915D01*
X177055565Y-67822802D01*
X177092833Y-67617219D01*
X177126355Y-67461562D01*
X177158821Y-67349683D01*
X177192919Y-67275431D01*
X177231339Y-67232657D01*
X177276772Y-67215211D01*
X177321194Y-67215498D01*
X177388417Y-67245905D01*
X177421523Y-67318150D01*
X177420607Y-67433235D01*
X177385767Y-67592161D01*
X177364487Y-67661696D01*
X177325877Y-67802537D01*
X177295989Y-67954382D01*
X177275951Y-68104863D01*
X177266892Y-68241612D01*
X177269942Y-68352261D01*
X177286229Y-68424442D01*
X177293754Y-68436613D01*
X177322338Y-68459686D01*
X177361423Y-68456893D01*
X177429248Y-68426541D01*
X177435285Y-68423472D01*
X177540124Y-68350832D01*
X177647887Y-68245359D01*
X177740623Y-68126660D01*
X177793162Y-68032522D01*
X177812224Y-67961294D01*
X177829477Y-67846729D01*
X177843229Y-67701932D01*
X177849616Y-67595078D01*
X177861017Y-67416587D01*
X177877806Y-67287533D01*
X177902426Y-67200987D01*
X177937322Y-67150018D01*
X177984938Y-67127698D01*
X178015367Y-67125111D01*
X178058362Y-67130010D01*
D10*
X182952380Y-64166666D02*
X182476190Y-64500000D01*
X182952380Y-64738095D02*
X181952380Y-64738095D01*
X181952380Y-64357142D01*
X182000000Y-64261904D01*
X182047619Y-64214285D01*
X182142857Y-64166666D01*
X182285714Y-64166666D01*
X182380952Y-64214285D01*
X182428571Y-64261904D01*
X182476190Y-64357142D01*
X182476190Y-64738095D01*
X182952380Y-63214285D02*
X182952380Y-63785714D01*
X182952380Y-63500000D02*
X181952380Y-63500000D01*
X182095238Y-63595238D01*
X182190476Y-63690476D01*
X182238095Y-63785714D01*
X177156666Y-51952380D02*
X177156666Y-52666666D01*
X177109047Y-52809523D01*
X177013809Y-52904761D01*
X176870952Y-52952380D01*
X176775714Y-52952380D01*
X178156666Y-52952380D02*
X177585238Y-52952380D01*
X177870952Y-52952380D02*
X177870952Y-51952380D01*
X177775714Y-52095238D01*
X177680476Y-52190476D01*
X177585238Y-52238095D01*
X177952380Y-64166666D02*
X177476190Y-64500000D01*
X177952380Y-64738095D02*
X176952380Y-64738095D01*
X176952380Y-64357142D01*
X177000000Y-64261904D01*
X177047619Y-64214285D01*
X177142857Y-64166666D01*
X177285714Y-64166666D01*
X177380952Y-64214285D01*
X177428571Y-64261904D01*
X177476190Y-64357142D01*
X177476190Y-64738095D01*
X176952380Y-63833333D02*
X176952380Y-63214285D01*
X177333333Y-63547619D01*
X177333333Y-63404761D01*
X177380952Y-63309523D01*
X177428571Y-63261904D01*
X177523809Y-63214285D01*
X177761904Y-63214285D01*
X177857142Y-63261904D01*
X177904761Y-63309523D01*
X177952380Y-63404761D01*
X177952380Y-63690476D01*
X177904761Y-63785714D01*
X177857142Y-63833333D01*
X180452380Y-64166666D02*
X179976190Y-64500000D01*
X180452380Y-64738095D02*
X179452380Y-64738095D01*
X179452380Y-64357142D01*
X179500000Y-64261904D01*
X179547619Y-64214285D01*
X179642857Y-64166666D01*
X179785714Y-64166666D01*
X179880952Y-64214285D01*
X179928571Y-64261904D01*
X179976190Y-64357142D01*
X179976190Y-64738095D01*
X179547619Y-63785714D02*
X179500000Y-63738095D01*
X179452380Y-63642857D01*
X179452380Y-63404761D01*
X179500000Y-63309523D01*
X179547619Y-63261904D01*
X179642857Y-63214285D01*
X179738095Y-63214285D01*
X179880952Y-63261904D01*
X180452380Y-63833333D01*
X180452380Y-63214285D01*
M02*
