G04 #@! TF.GenerationSoftware,KiCad,Pcbnew,6.0.0-rc1-unknown-73a0cbf~66~ubuntu18.04.1*
G04 #@! TF.CreationDate,2019-02-12T22:26:01+01:00
G04 #@! TF.ProjectId,wcube-head-pcb,77637562-652d-4686-9561-642d7063622e,rev?*
G04 #@! TF.SameCoordinates,Original*
G04 #@! TF.FileFunction,Copper,L2,Bot*
G04 #@! TF.FilePolarity,Positive*
%FSLAX46Y46*%
G04 Gerber Fmt 4.6, Leading zero omitted, Abs format (unit mm)*
G04 Created by KiCad (PCBNEW 6.0.0-rc1-unknown-73a0cbf~66~ubuntu18.04.1) date 2019-02-12 22:26:01*
%MOMM*%
%LPD*%
G04 APERTURE LIST*
%ADD10O,1.700000X1.950000*%
%ADD11R,1.700000X1.950000*%
%ADD12C,2.000000*%
%ADD13C,1.500000*%
%ADD14R,1.500000X1.500000*%
%ADD15O,2.000000X1.700000*%
%ADD16R,2.000000X1.700000*%
%ADD17O,1.700000X2.000000*%
%ADD18R,1.700000X2.000000*%
%ADD19C,0.800000*%
%ADD20C,0.500000*%
%ADD21C,0.254000*%
G04 APERTURE END LIST*
D10*
X169000000Y-78000000D03*
X171500000Y-78000000D03*
D11*
X174000000Y-78000000D03*
D12*
X185680000Y-58890000D03*
D13*
X181110000Y-59780000D03*
X179080000Y-59780000D03*
X177050000Y-59780000D03*
X175020000Y-59780000D03*
X178060000Y-58000000D03*
X176030000Y-58000000D03*
X180100000Y-58000000D03*
D14*
X174000000Y-58000000D03*
D12*
X169430000Y-58890000D03*
D10*
X181000000Y-78000000D03*
X183500000Y-78000000D03*
D11*
X186000000Y-78000000D03*
D15*
X185000000Y-85000000D03*
D16*
X185000000Y-87500000D03*
D15*
X169000000Y-85000000D03*
D16*
X169000000Y-87500000D03*
D15*
X177000000Y-85000000D03*
D16*
X177000000Y-87500000D03*
D17*
X176500000Y-96000000D03*
D18*
X179000000Y-96000000D03*
D19*
X175750000Y-71250000D03*
X175750000Y-72250000D03*
X175750000Y-73250000D03*
X175750000Y-64750000D03*
X175750000Y-63750000D03*
X175750000Y-62750000D03*
X174750000Y-62750000D03*
X174750000Y-63750000D03*
X174750000Y-64750000D03*
D20*
X182000000Y-85000000D02*
X185000000Y-85000000D01*
X179250000Y-82250000D02*
X182000000Y-85000000D01*
X179250000Y-65000000D02*
X179250000Y-82250000D01*
X180849999Y-57250001D02*
X181750001Y-57250001D01*
X180100000Y-58000000D02*
X180849999Y-57250001D01*
X182500000Y-61750000D02*
X179250000Y-65000000D01*
X181750001Y-57250001D02*
X182500000Y-58000000D01*
X182500000Y-58000000D02*
X182500000Y-61750000D01*
X181110000Y-61640000D02*
X181110000Y-60840660D01*
X181110000Y-60840660D02*
X181110000Y-59780000D01*
X178250000Y-64500000D02*
X181110000Y-61640000D01*
X178250000Y-82250000D02*
X178250000Y-64500000D01*
X177000000Y-85000000D02*
X177000000Y-83500000D01*
X177000000Y-83500000D02*
X178250000Y-82250000D01*
X179080000Y-62170000D02*
X179080000Y-59780000D01*
X176500000Y-92750000D02*
X173500000Y-89750000D01*
X176500000Y-96000000D02*
X176500000Y-92750000D01*
X173500000Y-85500000D02*
X177250000Y-81750000D01*
X173500000Y-89750000D02*
X173500000Y-85500000D01*
X177250000Y-81750000D02*
X177250000Y-64000000D01*
X177250000Y-64000000D02*
X179080000Y-62170000D01*
X175750000Y-69000000D02*
X175750000Y-73250000D01*
X172000000Y-65250000D02*
X175750000Y-69000000D01*
X172000000Y-57750000D02*
X172000000Y-65250000D01*
X178060000Y-58000000D02*
X176560000Y-56500000D01*
X173250000Y-56500000D02*
X172000000Y-57750000D01*
X176560000Y-56500000D02*
X173250000Y-56500000D01*
X174350001Y-62350001D02*
X174350001Y-62336001D01*
X174750000Y-62750000D02*
X174350001Y-62350001D01*
X174350001Y-62336001D02*
X173228000Y-61214000D01*
X173228000Y-58772000D02*
X174000000Y-58000000D01*
X173228000Y-61214000D02*
X173228000Y-58772000D01*
D21*
G36*
X187453893Y-50707670D02*
G01*
X187890498Y-50839489D01*
X188293185Y-51053600D01*
X188646612Y-51341848D01*
X188937327Y-51693261D01*
X189154242Y-52094439D01*
X189289106Y-52530113D01*
X189340000Y-53014344D01*
X189340000Y-67917755D01*
X188993346Y-67571101D01*
X188481190Y-67228889D01*
X187912112Y-66993169D01*
X187307983Y-66873000D01*
X186692017Y-66873000D01*
X186087888Y-66993169D01*
X185518810Y-67228889D01*
X185006654Y-67571101D01*
X184571101Y-68006654D01*
X184228889Y-68518810D01*
X183993169Y-69087888D01*
X183873000Y-69692017D01*
X183873000Y-70307983D01*
X183993169Y-70912112D01*
X184228889Y-71481190D01*
X184571101Y-71993346D01*
X185006654Y-72428899D01*
X185518810Y-72771111D01*
X186087888Y-73006831D01*
X186692017Y-73127000D01*
X187307983Y-73127000D01*
X187912112Y-73006831D01*
X188481190Y-72771111D01*
X188993346Y-72428899D01*
X189340000Y-72082245D01*
X189340001Y-94917756D01*
X188993346Y-94571101D01*
X188481190Y-94228889D01*
X187912112Y-93993169D01*
X187307983Y-93873000D01*
X186692017Y-93873000D01*
X186087888Y-93993169D01*
X185518810Y-94228889D01*
X185006654Y-94571101D01*
X184571101Y-95006654D01*
X184228889Y-95518810D01*
X183993169Y-96087888D01*
X183873000Y-96692017D01*
X183873000Y-97307983D01*
X183993169Y-97912112D01*
X184228889Y-98481190D01*
X184571101Y-98993346D01*
X184917755Y-99340000D01*
X170082245Y-99340000D01*
X170428899Y-98993346D01*
X170771111Y-98481190D01*
X171006831Y-97912112D01*
X171127000Y-97307983D01*
X171127000Y-96692017D01*
X171006831Y-96087888D01*
X170771111Y-95518810D01*
X170428899Y-95006654D01*
X169993346Y-94571101D01*
X169481190Y-94228889D01*
X168912112Y-93993169D01*
X168307983Y-93873000D01*
X167692017Y-93873000D01*
X167087888Y-93993169D01*
X166518810Y-94228889D01*
X166006654Y-94571101D01*
X165660000Y-94917755D01*
X165660000Y-87785750D01*
X167365000Y-87785750D01*
X167365000Y-88412542D01*
X167389403Y-88535223D01*
X167437270Y-88650785D01*
X167506763Y-88754789D01*
X167595211Y-88843237D01*
X167699215Y-88912730D01*
X167814777Y-88960597D01*
X167937458Y-88985000D01*
X168714250Y-88985000D01*
X168873000Y-88826250D01*
X168873000Y-87627000D01*
X169127000Y-87627000D01*
X169127000Y-88826250D01*
X169285750Y-88985000D01*
X170062542Y-88985000D01*
X170185223Y-88960597D01*
X170300785Y-88912730D01*
X170404789Y-88843237D01*
X170493237Y-88754789D01*
X170562730Y-88650785D01*
X170610597Y-88535223D01*
X170635000Y-88412542D01*
X170635000Y-87785750D01*
X170476250Y-87627000D01*
X169127000Y-87627000D01*
X168873000Y-87627000D01*
X167523750Y-87627000D01*
X167365000Y-87785750D01*
X165660000Y-87785750D01*
X165660000Y-85000000D01*
X167357815Y-85000000D01*
X167386487Y-85291111D01*
X167471401Y-85571034D01*
X167609294Y-85829014D01*
X167790282Y-86049549D01*
X167699215Y-86087270D01*
X167595211Y-86156763D01*
X167506763Y-86245211D01*
X167437270Y-86349215D01*
X167389403Y-86464777D01*
X167365000Y-86587458D01*
X167365000Y-87214250D01*
X167523750Y-87373000D01*
X168873000Y-87373000D01*
X168873000Y-87353000D01*
X169127000Y-87353000D01*
X169127000Y-87373000D01*
X170476250Y-87373000D01*
X170635000Y-87214250D01*
X170635000Y-86587458D01*
X170610597Y-86464777D01*
X170562730Y-86349215D01*
X170493237Y-86245211D01*
X170404789Y-86156763D01*
X170300785Y-86087270D01*
X170209718Y-86049549D01*
X170390706Y-85829014D01*
X170528599Y-85571034D01*
X170613513Y-85291111D01*
X170642185Y-85000000D01*
X170613513Y-84708889D01*
X170528599Y-84428966D01*
X170390706Y-84170986D01*
X170205134Y-83944866D01*
X169979014Y-83759294D01*
X169721034Y-83621401D01*
X169441111Y-83536487D01*
X169222950Y-83515000D01*
X168777050Y-83515000D01*
X168558889Y-83536487D01*
X168278966Y-83621401D01*
X168020986Y-83759294D01*
X167794866Y-83944866D01*
X167609294Y-84170986D01*
X167471401Y-84428966D01*
X167386487Y-84708889D01*
X167357815Y-85000000D01*
X165660000Y-85000000D01*
X165660000Y-77802050D01*
X167515000Y-77802050D01*
X167515000Y-78197949D01*
X167536487Y-78416110D01*
X167621401Y-78696033D01*
X167759294Y-78954013D01*
X167944866Y-79180134D01*
X168170986Y-79365706D01*
X168428966Y-79503599D01*
X168708889Y-79588513D01*
X169000000Y-79617185D01*
X169291110Y-79588513D01*
X169571033Y-79503599D01*
X169829013Y-79365706D01*
X170055134Y-79180134D01*
X170240706Y-78954014D01*
X170250000Y-78936626D01*
X170259294Y-78954013D01*
X170444866Y-79180134D01*
X170670986Y-79365706D01*
X170928966Y-79503599D01*
X171208889Y-79588513D01*
X171500000Y-79617185D01*
X171791110Y-79588513D01*
X172071033Y-79503599D01*
X172329013Y-79365706D01*
X172549549Y-79184718D01*
X172587270Y-79275785D01*
X172656763Y-79379789D01*
X172745211Y-79468237D01*
X172849215Y-79537730D01*
X172964777Y-79585597D01*
X173087458Y-79610000D01*
X173714250Y-79610000D01*
X173873000Y-79451250D01*
X173873000Y-78127000D01*
X174127000Y-78127000D01*
X174127000Y-79451250D01*
X174285750Y-79610000D01*
X174912542Y-79610000D01*
X175035223Y-79585597D01*
X175150785Y-79537730D01*
X175254789Y-79468237D01*
X175343237Y-79379789D01*
X175412730Y-79275785D01*
X175460597Y-79160223D01*
X175485000Y-79037542D01*
X175485000Y-78285750D01*
X175326250Y-78127000D01*
X174127000Y-78127000D01*
X173873000Y-78127000D01*
X173853000Y-78127000D01*
X173853000Y-77873000D01*
X173873000Y-77873000D01*
X173873000Y-76548750D01*
X174127000Y-76548750D01*
X174127000Y-77873000D01*
X175326250Y-77873000D01*
X175485000Y-77714250D01*
X175485000Y-76962458D01*
X175460597Y-76839777D01*
X175412730Y-76724215D01*
X175343237Y-76620211D01*
X175254789Y-76531763D01*
X175150785Y-76462270D01*
X175035223Y-76414403D01*
X174912542Y-76390000D01*
X174285750Y-76390000D01*
X174127000Y-76548750D01*
X173873000Y-76548750D01*
X173714250Y-76390000D01*
X173087458Y-76390000D01*
X172964777Y-76414403D01*
X172849215Y-76462270D01*
X172745211Y-76531763D01*
X172656763Y-76620211D01*
X172587270Y-76724215D01*
X172549549Y-76815282D01*
X172329014Y-76634294D01*
X172071034Y-76496401D01*
X171791111Y-76411487D01*
X171500000Y-76382815D01*
X171208890Y-76411487D01*
X170928967Y-76496401D01*
X170670987Y-76634294D01*
X170444866Y-76819866D01*
X170259294Y-77045986D01*
X170250000Y-77063374D01*
X170240706Y-77045986D01*
X170055134Y-76819866D01*
X169829014Y-76634294D01*
X169571034Y-76496401D01*
X169291111Y-76411487D01*
X169000000Y-76382815D01*
X168708890Y-76411487D01*
X168428967Y-76496401D01*
X168170987Y-76634294D01*
X167944866Y-76819866D01*
X167759294Y-77045986D01*
X167621401Y-77303966D01*
X167536487Y-77583889D01*
X167515000Y-77802050D01*
X165660000Y-77802050D01*
X165660000Y-72082245D01*
X166006654Y-72428899D01*
X166518810Y-72771111D01*
X167087888Y-73006831D01*
X167692017Y-73127000D01*
X168307983Y-73127000D01*
X168912112Y-73006831D01*
X169481190Y-72771111D01*
X169993346Y-72428899D01*
X170428899Y-71993346D01*
X170771111Y-71481190D01*
X171006831Y-70912112D01*
X171127000Y-70307983D01*
X171127000Y-69692017D01*
X171006831Y-69087888D01*
X170771111Y-68518810D01*
X170428899Y-68006654D01*
X169993346Y-67571101D01*
X169481190Y-67228889D01*
X168912112Y-66993169D01*
X168307983Y-66873000D01*
X167692017Y-66873000D01*
X167087888Y-66993169D01*
X166518810Y-67228889D01*
X166006654Y-67571101D01*
X165660000Y-67917755D01*
X165660000Y-60025413D01*
X168474192Y-60025413D01*
X168569956Y-60289814D01*
X168859571Y-60430704D01*
X169171108Y-60512384D01*
X169492595Y-60531718D01*
X169811675Y-60487961D01*
X170116088Y-60382795D01*
X170290044Y-60289814D01*
X170385808Y-60025413D01*
X169430000Y-59069605D01*
X168474192Y-60025413D01*
X165660000Y-60025413D01*
X165660000Y-58952595D01*
X167788282Y-58952595D01*
X167832039Y-59271675D01*
X167937205Y-59576088D01*
X168030186Y-59750044D01*
X168294587Y-59845808D01*
X169250395Y-58890000D01*
X169609605Y-58890000D01*
X170565413Y-59845808D01*
X170829814Y-59750044D01*
X170970704Y-59460429D01*
X171052384Y-59148892D01*
X171071718Y-58827405D01*
X171027961Y-58508325D01*
X170922795Y-58203912D01*
X170829814Y-58029956D01*
X170565413Y-57934192D01*
X169609605Y-58890000D01*
X169250395Y-58890000D01*
X168294587Y-57934192D01*
X168030186Y-58029956D01*
X167889296Y-58319571D01*
X167807616Y-58631108D01*
X167788282Y-58952595D01*
X165660000Y-58952595D01*
X165660000Y-57754587D01*
X168474192Y-57754587D01*
X169430000Y-58710395D01*
X170385808Y-57754587D01*
X170316473Y-57563155D01*
X170543490Y-57657189D01*
X170984947Y-57745000D01*
X171111211Y-57745000D01*
X171110719Y-57750000D01*
X171115000Y-57793469D01*
X171115001Y-65206521D01*
X171110719Y-65250000D01*
X171127805Y-65423490D01*
X171178412Y-65590313D01*
X171260590Y-65744059D01*
X171343468Y-65845046D01*
X171343471Y-65845049D01*
X171371184Y-65878817D01*
X171404951Y-65906530D01*
X174865000Y-69366579D01*
X174865000Y-70711545D01*
X174832795Y-70759744D01*
X174754774Y-70948102D01*
X174715000Y-71148061D01*
X174715000Y-71351939D01*
X174754774Y-71551898D01*
X174832795Y-71740256D01*
X174839306Y-71750000D01*
X174832795Y-71759744D01*
X174754774Y-71948102D01*
X174715000Y-72148061D01*
X174715000Y-72351939D01*
X174754774Y-72551898D01*
X174832795Y-72740256D01*
X174839306Y-72750000D01*
X174832795Y-72759744D01*
X174754774Y-72948102D01*
X174715000Y-73148061D01*
X174715000Y-73351939D01*
X174754774Y-73551898D01*
X174832795Y-73740256D01*
X174946063Y-73909774D01*
X175090226Y-74053937D01*
X175259744Y-74167205D01*
X175448102Y-74245226D01*
X175648061Y-74285000D01*
X175851939Y-74285000D01*
X176051898Y-74245226D01*
X176240256Y-74167205D01*
X176365000Y-74083854D01*
X176365000Y-81383421D01*
X172904951Y-84843470D01*
X172871184Y-84871183D01*
X172843471Y-84904951D01*
X172843468Y-84904954D01*
X172760590Y-85005941D01*
X172678412Y-85159687D01*
X172627805Y-85326510D01*
X172610719Y-85500000D01*
X172615001Y-85543479D01*
X172615000Y-89706531D01*
X172610719Y-89750000D01*
X172615000Y-89793469D01*
X172615000Y-89793476D01*
X172627805Y-89923489D01*
X172678411Y-90090312D01*
X172760589Y-90244058D01*
X172871183Y-90378817D01*
X172904956Y-90406534D01*
X175615001Y-93116580D01*
X175615000Y-94655241D01*
X175444866Y-94794866D01*
X175259294Y-95020986D01*
X175121401Y-95278966D01*
X175036487Y-95558889D01*
X175015000Y-95777050D01*
X175015000Y-96222949D01*
X175036487Y-96441110D01*
X175121401Y-96721033D01*
X175259294Y-96979013D01*
X175444866Y-97205134D01*
X175670986Y-97390706D01*
X175928966Y-97528599D01*
X176208889Y-97613513D01*
X176500000Y-97642185D01*
X176791110Y-97613513D01*
X177071033Y-97528599D01*
X177329013Y-97390706D01*
X177549549Y-97209718D01*
X177587270Y-97300785D01*
X177656763Y-97404789D01*
X177745211Y-97493237D01*
X177849215Y-97562730D01*
X177964777Y-97610597D01*
X178087458Y-97635000D01*
X178714250Y-97635000D01*
X178873000Y-97476250D01*
X178873000Y-96127000D01*
X179127000Y-96127000D01*
X179127000Y-97476250D01*
X179285750Y-97635000D01*
X179912542Y-97635000D01*
X180035223Y-97610597D01*
X180150785Y-97562730D01*
X180254789Y-97493237D01*
X180343237Y-97404789D01*
X180412730Y-97300785D01*
X180460597Y-97185223D01*
X180485000Y-97062542D01*
X180485000Y-96285750D01*
X180326250Y-96127000D01*
X179127000Y-96127000D01*
X178873000Y-96127000D01*
X178853000Y-96127000D01*
X178853000Y-95873000D01*
X178873000Y-95873000D01*
X178873000Y-94523750D01*
X179127000Y-94523750D01*
X179127000Y-95873000D01*
X180326250Y-95873000D01*
X180485000Y-95714250D01*
X180485000Y-94937458D01*
X180460597Y-94814777D01*
X180412730Y-94699215D01*
X180343237Y-94595211D01*
X180254789Y-94506763D01*
X180150785Y-94437270D01*
X180035223Y-94389403D01*
X179912542Y-94365000D01*
X179285750Y-94365000D01*
X179127000Y-94523750D01*
X178873000Y-94523750D01*
X178714250Y-94365000D01*
X178087458Y-94365000D01*
X177964777Y-94389403D01*
X177849215Y-94437270D01*
X177745211Y-94506763D01*
X177656763Y-94595211D01*
X177587270Y-94699215D01*
X177549549Y-94790282D01*
X177385000Y-94655241D01*
X177385000Y-92793469D01*
X177389281Y-92750000D01*
X177385000Y-92706531D01*
X177385000Y-92706523D01*
X177372195Y-92576510D01*
X177321589Y-92409687D01*
X177321589Y-92409686D01*
X177239411Y-92255941D01*
X177156532Y-92154953D01*
X177156530Y-92154951D01*
X177128817Y-92121183D01*
X177095049Y-92093470D01*
X174385000Y-89383422D01*
X174385000Y-87785750D01*
X175365000Y-87785750D01*
X175365000Y-88412542D01*
X175389403Y-88535223D01*
X175437270Y-88650785D01*
X175506763Y-88754789D01*
X175595211Y-88843237D01*
X175699215Y-88912730D01*
X175814777Y-88960597D01*
X175937458Y-88985000D01*
X176714250Y-88985000D01*
X176873000Y-88826250D01*
X176873000Y-87627000D01*
X177127000Y-87627000D01*
X177127000Y-88826250D01*
X177285750Y-88985000D01*
X178062542Y-88985000D01*
X178185223Y-88960597D01*
X178300785Y-88912730D01*
X178404789Y-88843237D01*
X178493237Y-88754789D01*
X178562730Y-88650785D01*
X178610597Y-88535223D01*
X178635000Y-88412542D01*
X178635000Y-87785750D01*
X183365000Y-87785750D01*
X183365000Y-88412542D01*
X183389403Y-88535223D01*
X183437270Y-88650785D01*
X183506763Y-88754789D01*
X183595211Y-88843237D01*
X183699215Y-88912730D01*
X183814777Y-88960597D01*
X183937458Y-88985000D01*
X184714250Y-88985000D01*
X184873000Y-88826250D01*
X184873000Y-87627000D01*
X185127000Y-87627000D01*
X185127000Y-88826250D01*
X185285750Y-88985000D01*
X186062542Y-88985000D01*
X186185223Y-88960597D01*
X186300785Y-88912730D01*
X186404789Y-88843237D01*
X186493237Y-88754789D01*
X186562730Y-88650785D01*
X186610597Y-88535223D01*
X186635000Y-88412542D01*
X186635000Y-87785750D01*
X186476250Y-87627000D01*
X185127000Y-87627000D01*
X184873000Y-87627000D01*
X183523750Y-87627000D01*
X183365000Y-87785750D01*
X178635000Y-87785750D01*
X178476250Y-87627000D01*
X177127000Y-87627000D01*
X176873000Y-87627000D01*
X175523750Y-87627000D01*
X175365000Y-87785750D01*
X174385000Y-87785750D01*
X174385000Y-85866578D01*
X175369422Y-84882157D01*
X175357815Y-85000000D01*
X175386487Y-85291111D01*
X175471401Y-85571034D01*
X175609294Y-85829014D01*
X175790282Y-86049549D01*
X175699215Y-86087270D01*
X175595211Y-86156763D01*
X175506763Y-86245211D01*
X175437270Y-86349215D01*
X175389403Y-86464777D01*
X175365000Y-86587458D01*
X175365000Y-87214250D01*
X175523750Y-87373000D01*
X176873000Y-87373000D01*
X176873000Y-87353000D01*
X177127000Y-87353000D01*
X177127000Y-87373000D01*
X178476250Y-87373000D01*
X178635000Y-87214250D01*
X178635000Y-86587458D01*
X178610597Y-86464777D01*
X178562730Y-86349215D01*
X178493237Y-86245211D01*
X178404789Y-86156763D01*
X178300785Y-86087270D01*
X178209718Y-86049549D01*
X178390706Y-85829014D01*
X178528599Y-85571034D01*
X178613513Y-85291111D01*
X178642185Y-85000000D01*
X178613513Y-84708889D01*
X178528599Y-84428966D01*
X178390706Y-84170986D01*
X178205134Y-83944866D01*
X177986303Y-83765276D01*
X178750000Y-83001578D01*
X181343470Y-85595049D01*
X181371183Y-85628817D01*
X181404951Y-85656530D01*
X181404953Y-85656532D01*
X181476452Y-85715210D01*
X181505941Y-85739411D01*
X181659687Y-85821589D01*
X181826510Y-85872195D01*
X181956523Y-85885000D01*
X181956533Y-85885000D01*
X181999999Y-85889281D01*
X182043465Y-85885000D01*
X183655241Y-85885000D01*
X183790282Y-86049549D01*
X183699215Y-86087270D01*
X183595211Y-86156763D01*
X183506763Y-86245211D01*
X183437270Y-86349215D01*
X183389403Y-86464777D01*
X183365000Y-86587458D01*
X183365000Y-87214250D01*
X183523750Y-87373000D01*
X184873000Y-87373000D01*
X184873000Y-87353000D01*
X185127000Y-87353000D01*
X185127000Y-87373000D01*
X186476250Y-87373000D01*
X186635000Y-87214250D01*
X186635000Y-86587458D01*
X186610597Y-86464777D01*
X186562730Y-86349215D01*
X186493237Y-86245211D01*
X186404789Y-86156763D01*
X186300785Y-86087270D01*
X186209718Y-86049549D01*
X186390706Y-85829014D01*
X186528599Y-85571034D01*
X186613513Y-85291111D01*
X186642185Y-85000000D01*
X186613513Y-84708889D01*
X186528599Y-84428966D01*
X186390706Y-84170986D01*
X186205134Y-83944866D01*
X185979014Y-83759294D01*
X185721034Y-83621401D01*
X185441111Y-83536487D01*
X185222950Y-83515000D01*
X184777050Y-83515000D01*
X184558889Y-83536487D01*
X184278966Y-83621401D01*
X184020986Y-83759294D01*
X183794866Y-83944866D01*
X183655241Y-84115000D01*
X182366579Y-84115000D01*
X180135000Y-81883422D01*
X180135000Y-79336173D01*
X180170986Y-79365706D01*
X180428966Y-79503599D01*
X180708889Y-79588513D01*
X181000000Y-79617185D01*
X181291110Y-79588513D01*
X181571033Y-79503599D01*
X181829013Y-79365706D01*
X182055134Y-79180134D01*
X182240706Y-78954014D01*
X182250000Y-78936626D01*
X182259294Y-78954013D01*
X182444866Y-79180134D01*
X182670986Y-79365706D01*
X182928966Y-79503599D01*
X183208889Y-79588513D01*
X183500000Y-79617185D01*
X183791110Y-79588513D01*
X184071033Y-79503599D01*
X184329013Y-79365706D01*
X184549549Y-79184718D01*
X184587270Y-79275785D01*
X184656763Y-79379789D01*
X184745211Y-79468237D01*
X184849215Y-79537730D01*
X184964777Y-79585597D01*
X185087458Y-79610000D01*
X185714250Y-79610000D01*
X185873000Y-79451250D01*
X185873000Y-78127000D01*
X186127000Y-78127000D01*
X186127000Y-79451250D01*
X186285750Y-79610000D01*
X186912542Y-79610000D01*
X187035223Y-79585597D01*
X187150785Y-79537730D01*
X187254789Y-79468237D01*
X187343237Y-79379789D01*
X187412730Y-79275785D01*
X187460597Y-79160223D01*
X187485000Y-79037542D01*
X187485000Y-78285750D01*
X187326250Y-78127000D01*
X186127000Y-78127000D01*
X185873000Y-78127000D01*
X185853000Y-78127000D01*
X185853000Y-77873000D01*
X185873000Y-77873000D01*
X185873000Y-76548750D01*
X186127000Y-76548750D01*
X186127000Y-77873000D01*
X187326250Y-77873000D01*
X187485000Y-77714250D01*
X187485000Y-76962458D01*
X187460597Y-76839777D01*
X187412730Y-76724215D01*
X187343237Y-76620211D01*
X187254789Y-76531763D01*
X187150785Y-76462270D01*
X187035223Y-76414403D01*
X186912542Y-76390000D01*
X186285750Y-76390000D01*
X186127000Y-76548750D01*
X185873000Y-76548750D01*
X185714250Y-76390000D01*
X185087458Y-76390000D01*
X184964777Y-76414403D01*
X184849215Y-76462270D01*
X184745211Y-76531763D01*
X184656763Y-76620211D01*
X184587270Y-76724215D01*
X184549549Y-76815282D01*
X184329014Y-76634294D01*
X184071034Y-76496401D01*
X183791111Y-76411487D01*
X183500000Y-76382815D01*
X183208890Y-76411487D01*
X182928967Y-76496401D01*
X182670987Y-76634294D01*
X182444866Y-76819866D01*
X182259294Y-77045986D01*
X182250000Y-77063374D01*
X182240706Y-77045986D01*
X182055134Y-76819866D01*
X181829014Y-76634294D01*
X181571034Y-76496401D01*
X181291111Y-76411487D01*
X181000000Y-76382815D01*
X180708890Y-76411487D01*
X180428967Y-76496401D01*
X180170987Y-76634294D01*
X180135000Y-76663828D01*
X180135000Y-65366578D01*
X183095049Y-62406530D01*
X183128817Y-62378817D01*
X183157810Y-62343490D01*
X183239410Y-62244060D01*
X183239411Y-62244059D01*
X183321589Y-62090313D01*
X183372195Y-61923490D01*
X183385000Y-61793477D01*
X183385000Y-61793467D01*
X183389281Y-61750001D01*
X183385000Y-61706534D01*
X183385000Y-60025413D01*
X184724192Y-60025413D01*
X184819956Y-60289814D01*
X185109571Y-60430704D01*
X185421108Y-60512384D01*
X185742595Y-60531718D01*
X186061675Y-60487961D01*
X186366088Y-60382795D01*
X186540044Y-60289814D01*
X186635808Y-60025413D01*
X185680000Y-59069605D01*
X184724192Y-60025413D01*
X183385000Y-60025413D01*
X183385000Y-58952595D01*
X184038282Y-58952595D01*
X184082039Y-59271675D01*
X184187205Y-59576088D01*
X184280186Y-59750044D01*
X184544587Y-59845808D01*
X185500395Y-58890000D01*
X185859605Y-58890000D01*
X186815413Y-59845808D01*
X187079814Y-59750044D01*
X187220704Y-59460429D01*
X187302384Y-59148892D01*
X187321718Y-58827405D01*
X187277961Y-58508325D01*
X187172795Y-58203912D01*
X187079814Y-58029956D01*
X186815413Y-57934192D01*
X185859605Y-58890000D01*
X185500395Y-58890000D01*
X184544587Y-57934192D01*
X184280186Y-58029956D01*
X184139296Y-58319571D01*
X184057616Y-58631108D01*
X184038282Y-58952595D01*
X183385000Y-58952595D01*
X183385000Y-58043469D01*
X183389281Y-58000000D01*
X183385000Y-57956531D01*
X183385000Y-57956523D01*
X183372195Y-57826510D01*
X183325798Y-57673561D01*
X183684947Y-57745000D01*
X184135053Y-57745000D01*
X184576510Y-57657189D01*
X184791762Y-57568029D01*
X184724192Y-57754587D01*
X185680000Y-58710395D01*
X186635808Y-57754587D01*
X186540044Y-57490186D01*
X186250429Y-57349296D01*
X185938892Y-57267616D01*
X185617405Y-57248282D01*
X185298325Y-57292039D01*
X185262559Y-57304395D01*
X185366603Y-57234875D01*
X185684875Y-56916603D01*
X185934941Y-56542353D01*
X186107189Y-56126510D01*
X186195000Y-55685053D01*
X186195000Y-55234947D01*
X186107189Y-54793490D01*
X185934941Y-54377647D01*
X185684875Y-54003397D01*
X185366603Y-53685125D01*
X184992353Y-53435059D01*
X184576510Y-53262811D01*
X184135053Y-53175000D01*
X183684947Y-53175000D01*
X183243490Y-53262811D01*
X182827647Y-53435059D01*
X182453397Y-53685125D01*
X182135125Y-54003397D01*
X181885059Y-54377647D01*
X181712811Y-54793490D01*
X181625000Y-55234947D01*
X181625000Y-55685053D01*
X181712811Y-56126510D01*
X181812368Y-56366861D01*
X181793478Y-56365001D01*
X181793470Y-56365001D01*
X181750001Y-56360720D01*
X181706532Y-56365001D01*
X180893468Y-56365001D01*
X180849999Y-56360720D01*
X180806530Y-56365001D01*
X180806522Y-56365001D01*
X180676509Y-56377806D01*
X180509686Y-56428412D01*
X180375753Y-56500000D01*
X180355940Y-56510590D01*
X180254952Y-56593469D01*
X180254950Y-56593471D01*
X180228717Y-56615000D01*
X179963589Y-56615000D01*
X179696011Y-56668225D01*
X179443957Y-56772629D01*
X179217114Y-56924201D01*
X179080000Y-57061315D01*
X178942886Y-56924201D01*
X178716043Y-56772629D01*
X178463989Y-56668225D01*
X178196411Y-56615000D01*
X177926578Y-56615000D01*
X177216534Y-55904956D01*
X177188817Y-55871183D01*
X177054059Y-55760589D01*
X176900313Y-55678411D01*
X176733490Y-55627805D01*
X176603477Y-55615000D01*
X176603469Y-55615000D01*
X176560000Y-55610719D01*
X176516531Y-55615000D01*
X173495000Y-55615000D01*
X173495000Y-55234947D01*
X173407189Y-54793490D01*
X173234941Y-54377647D01*
X172984875Y-54003397D01*
X172666603Y-53685125D01*
X172292353Y-53435059D01*
X171876510Y-53262811D01*
X171435053Y-53175000D01*
X170984947Y-53175000D01*
X170543490Y-53262811D01*
X170127647Y-53435059D01*
X169753397Y-53685125D01*
X169435125Y-54003397D01*
X169185059Y-54377647D01*
X169012811Y-54793490D01*
X168925000Y-55234947D01*
X168925000Y-55685053D01*
X169012811Y-56126510D01*
X169185059Y-56542353D01*
X169435125Y-56916603D01*
X169753397Y-57234875D01*
X169875697Y-57316593D01*
X169688892Y-57267616D01*
X169367405Y-57248282D01*
X169048325Y-57292039D01*
X168743912Y-57397205D01*
X168569956Y-57490186D01*
X168474192Y-57754587D01*
X165660000Y-57754587D01*
X165660000Y-53032279D01*
X165707670Y-52546107D01*
X165839489Y-52109502D01*
X166053600Y-51706815D01*
X166341848Y-51353388D01*
X166693261Y-51062673D01*
X167094439Y-50845758D01*
X167530113Y-50710894D01*
X168014344Y-50660000D01*
X186967721Y-50660000D01*
X187453893Y-50707670D01*
X187453893Y-50707670D01*
G37*
X187453893Y-50707670D02*
X187890498Y-50839489D01*
X188293185Y-51053600D01*
X188646612Y-51341848D01*
X188937327Y-51693261D01*
X189154242Y-52094439D01*
X189289106Y-52530113D01*
X189340000Y-53014344D01*
X189340000Y-67917755D01*
X188993346Y-67571101D01*
X188481190Y-67228889D01*
X187912112Y-66993169D01*
X187307983Y-66873000D01*
X186692017Y-66873000D01*
X186087888Y-66993169D01*
X185518810Y-67228889D01*
X185006654Y-67571101D01*
X184571101Y-68006654D01*
X184228889Y-68518810D01*
X183993169Y-69087888D01*
X183873000Y-69692017D01*
X183873000Y-70307983D01*
X183993169Y-70912112D01*
X184228889Y-71481190D01*
X184571101Y-71993346D01*
X185006654Y-72428899D01*
X185518810Y-72771111D01*
X186087888Y-73006831D01*
X186692017Y-73127000D01*
X187307983Y-73127000D01*
X187912112Y-73006831D01*
X188481190Y-72771111D01*
X188993346Y-72428899D01*
X189340000Y-72082245D01*
X189340001Y-94917756D01*
X188993346Y-94571101D01*
X188481190Y-94228889D01*
X187912112Y-93993169D01*
X187307983Y-93873000D01*
X186692017Y-93873000D01*
X186087888Y-93993169D01*
X185518810Y-94228889D01*
X185006654Y-94571101D01*
X184571101Y-95006654D01*
X184228889Y-95518810D01*
X183993169Y-96087888D01*
X183873000Y-96692017D01*
X183873000Y-97307983D01*
X183993169Y-97912112D01*
X184228889Y-98481190D01*
X184571101Y-98993346D01*
X184917755Y-99340000D01*
X170082245Y-99340000D01*
X170428899Y-98993346D01*
X170771111Y-98481190D01*
X171006831Y-97912112D01*
X171127000Y-97307983D01*
X171127000Y-96692017D01*
X171006831Y-96087888D01*
X170771111Y-95518810D01*
X170428899Y-95006654D01*
X169993346Y-94571101D01*
X169481190Y-94228889D01*
X168912112Y-93993169D01*
X168307983Y-93873000D01*
X167692017Y-93873000D01*
X167087888Y-93993169D01*
X166518810Y-94228889D01*
X166006654Y-94571101D01*
X165660000Y-94917755D01*
X165660000Y-87785750D01*
X167365000Y-87785750D01*
X167365000Y-88412542D01*
X167389403Y-88535223D01*
X167437270Y-88650785D01*
X167506763Y-88754789D01*
X167595211Y-88843237D01*
X167699215Y-88912730D01*
X167814777Y-88960597D01*
X167937458Y-88985000D01*
X168714250Y-88985000D01*
X168873000Y-88826250D01*
X168873000Y-87627000D01*
X169127000Y-87627000D01*
X169127000Y-88826250D01*
X169285750Y-88985000D01*
X170062542Y-88985000D01*
X170185223Y-88960597D01*
X170300785Y-88912730D01*
X170404789Y-88843237D01*
X170493237Y-88754789D01*
X170562730Y-88650785D01*
X170610597Y-88535223D01*
X170635000Y-88412542D01*
X170635000Y-87785750D01*
X170476250Y-87627000D01*
X169127000Y-87627000D01*
X168873000Y-87627000D01*
X167523750Y-87627000D01*
X167365000Y-87785750D01*
X165660000Y-87785750D01*
X165660000Y-85000000D01*
X167357815Y-85000000D01*
X167386487Y-85291111D01*
X167471401Y-85571034D01*
X167609294Y-85829014D01*
X167790282Y-86049549D01*
X167699215Y-86087270D01*
X167595211Y-86156763D01*
X167506763Y-86245211D01*
X167437270Y-86349215D01*
X167389403Y-86464777D01*
X167365000Y-86587458D01*
X167365000Y-87214250D01*
X167523750Y-87373000D01*
X168873000Y-87373000D01*
X168873000Y-87353000D01*
X169127000Y-87353000D01*
X169127000Y-87373000D01*
X170476250Y-87373000D01*
X170635000Y-87214250D01*
X170635000Y-86587458D01*
X170610597Y-86464777D01*
X170562730Y-86349215D01*
X170493237Y-86245211D01*
X170404789Y-86156763D01*
X170300785Y-86087270D01*
X170209718Y-86049549D01*
X170390706Y-85829014D01*
X170528599Y-85571034D01*
X170613513Y-85291111D01*
X170642185Y-85000000D01*
X170613513Y-84708889D01*
X170528599Y-84428966D01*
X170390706Y-84170986D01*
X170205134Y-83944866D01*
X169979014Y-83759294D01*
X169721034Y-83621401D01*
X169441111Y-83536487D01*
X169222950Y-83515000D01*
X168777050Y-83515000D01*
X168558889Y-83536487D01*
X168278966Y-83621401D01*
X168020986Y-83759294D01*
X167794866Y-83944866D01*
X167609294Y-84170986D01*
X167471401Y-84428966D01*
X167386487Y-84708889D01*
X167357815Y-85000000D01*
X165660000Y-85000000D01*
X165660000Y-77802050D01*
X167515000Y-77802050D01*
X167515000Y-78197949D01*
X167536487Y-78416110D01*
X167621401Y-78696033D01*
X167759294Y-78954013D01*
X167944866Y-79180134D01*
X168170986Y-79365706D01*
X168428966Y-79503599D01*
X168708889Y-79588513D01*
X169000000Y-79617185D01*
X169291110Y-79588513D01*
X169571033Y-79503599D01*
X169829013Y-79365706D01*
X170055134Y-79180134D01*
X170240706Y-78954014D01*
X170250000Y-78936626D01*
X170259294Y-78954013D01*
X170444866Y-79180134D01*
X170670986Y-79365706D01*
X170928966Y-79503599D01*
X171208889Y-79588513D01*
X171500000Y-79617185D01*
X171791110Y-79588513D01*
X172071033Y-79503599D01*
X172329013Y-79365706D01*
X172549549Y-79184718D01*
X172587270Y-79275785D01*
X172656763Y-79379789D01*
X172745211Y-79468237D01*
X172849215Y-79537730D01*
X172964777Y-79585597D01*
X173087458Y-79610000D01*
X173714250Y-79610000D01*
X173873000Y-79451250D01*
X173873000Y-78127000D01*
X174127000Y-78127000D01*
X174127000Y-79451250D01*
X174285750Y-79610000D01*
X174912542Y-79610000D01*
X175035223Y-79585597D01*
X175150785Y-79537730D01*
X175254789Y-79468237D01*
X175343237Y-79379789D01*
X175412730Y-79275785D01*
X175460597Y-79160223D01*
X175485000Y-79037542D01*
X175485000Y-78285750D01*
X175326250Y-78127000D01*
X174127000Y-78127000D01*
X173873000Y-78127000D01*
X173853000Y-78127000D01*
X173853000Y-77873000D01*
X173873000Y-77873000D01*
X173873000Y-76548750D01*
X174127000Y-76548750D01*
X174127000Y-77873000D01*
X175326250Y-77873000D01*
X175485000Y-77714250D01*
X175485000Y-76962458D01*
X175460597Y-76839777D01*
X175412730Y-76724215D01*
X175343237Y-76620211D01*
X175254789Y-76531763D01*
X175150785Y-76462270D01*
X175035223Y-76414403D01*
X174912542Y-76390000D01*
X174285750Y-76390000D01*
X174127000Y-76548750D01*
X173873000Y-76548750D01*
X173714250Y-76390000D01*
X173087458Y-76390000D01*
X172964777Y-76414403D01*
X172849215Y-76462270D01*
X172745211Y-76531763D01*
X172656763Y-76620211D01*
X172587270Y-76724215D01*
X172549549Y-76815282D01*
X172329014Y-76634294D01*
X172071034Y-76496401D01*
X171791111Y-76411487D01*
X171500000Y-76382815D01*
X171208890Y-76411487D01*
X170928967Y-76496401D01*
X170670987Y-76634294D01*
X170444866Y-76819866D01*
X170259294Y-77045986D01*
X170250000Y-77063374D01*
X170240706Y-77045986D01*
X170055134Y-76819866D01*
X169829014Y-76634294D01*
X169571034Y-76496401D01*
X169291111Y-76411487D01*
X169000000Y-76382815D01*
X168708890Y-76411487D01*
X168428967Y-76496401D01*
X168170987Y-76634294D01*
X167944866Y-76819866D01*
X167759294Y-77045986D01*
X167621401Y-77303966D01*
X167536487Y-77583889D01*
X167515000Y-77802050D01*
X165660000Y-77802050D01*
X165660000Y-72082245D01*
X166006654Y-72428899D01*
X166518810Y-72771111D01*
X167087888Y-73006831D01*
X167692017Y-73127000D01*
X168307983Y-73127000D01*
X168912112Y-73006831D01*
X169481190Y-72771111D01*
X169993346Y-72428899D01*
X170428899Y-71993346D01*
X170771111Y-71481190D01*
X171006831Y-70912112D01*
X171127000Y-70307983D01*
X171127000Y-69692017D01*
X171006831Y-69087888D01*
X170771111Y-68518810D01*
X170428899Y-68006654D01*
X169993346Y-67571101D01*
X169481190Y-67228889D01*
X168912112Y-66993169D01*
X168307983Y-66873000D01*
X167692017Y-66873000D01*
X167087888Y-66993169D01*
X166518810Y-67228889D01*
X166006654Y-67571101D01*
X165660000Y-67917755D01*
X165660000Y-60025413D01*
X168474192Y-60025413D01*
X168569956Y-60289814D01*
X168859571Y-60430704D01*
X169171108Y-60512384D01*
X169492595Y-60531718D01*
X169811675Y-60487961D01*
X170116088Y-60382795D01*
X170290044Y-60289814D01*
X170385808Y-60025413D01*
X169430000Y-59069605D01*
X168474192Y-60025413D01*
X165660000Y-60025413D01*
X165660000Y-58952595D01*
X167788282Y-58952595D01*
X167832039Y-59271675D01*
X167937205Y-59576088D01*
X168030186Y-59750044D01*
X168294587Y-59845808D01*
X169250395Y-58890000D01*
X169609605Y-58890000D01*
X170565413Y-59845808D01*
X170829814Y-59750044D01*
X170970704Y-59460429D01*
X171052384Y-59148892D01*
X171071718Y-58827405D01*
X171027961Y-58508325D01*
X170922795Y-58203912D01*
X170829814Y-58029956D01*
X170565413Y-57934192D01*
X169609605Y-58890000D01*
X169250395Y-58890000D01*
X168294587Y-57934192D01*
X168030186Y-58029956D01*
X167889296Y-58319571D01*
X167807616Y-58631108D01*
X167788282Y-58952595D01*
X165660000Y-58952595D01*
X165660000Y-57754587D01*
X168474192Y-57754587D01*
X169430000Y-58710395D01*
X170385808Y-57754587D01*
X170316473Y-57563155D01*
X170543490Y-57657189D01*
X170984947Y-57745000D01*
X171111211Y-57745000D01*
X171110719Y-57750000D01*
X171115000Y-57793469D01*
X171115001Y-65206521D01*
X171110719Y-65250000D01*
X171127805Y-65423490D01*
X171178412Y-65590313D01*
X171260590Y-65744059D01*
X171343468Y-65845046D01*
X171343471Y-65845049D01*
X171371184Y-65878817D01*
X171404951Y-65906530D01*
X174865000Y-69366579D01*
X174865000Y-70711545D01*
X174832795Y-70759744D01*
X174754774Y-70948102D01*
X174715000Y-71148061D01*
X174715000Y-71351939D01*
X174754774Y-71551898D01*
X174832795Y-71740256D01*
X174839306Y-71750000D01*
X174832795Y-71759744D01*
X174754774Y-71948102D01*
X174715000Y-72148061D01*
X174715000Y-72351939D01*
X174754774Y-72551898D01*
X174832795Y-72740256D01*
X174839306Y-72750000D01*
X174832795Y-72759744D01*
X174754774Y-72948102D01*
X174715000Y-73148061D01*
X174715000Y-73351939D01*
X174754774Y-73551898D01*
X174832795Y-73740256D01*
X174946063Y-73909774D01*
X175090226Y-74053937D01*
X175259744Y-74167205D01*
X175448102Y-74245226D01*
X175648061Y-74285000D01*
X175851939Y-74285000D01*
X176051898Y-74245226D01*
X176240256Y-74167205D01*
X176365000Y-74083854D01*
X176365000Y-81383421D01*
X172904951Y-84843470D01*
X172871184Y-84871183D01*
X172843471Y-84904951D01*
X172843468Y-84904954D01*
X172760590Y-85005941D01*
X172678412Y-85159687D01*
X172627805Y-85326510D01*
X172610719Y-85500000D01*
X172615001Y-85543479D01*
X172615000Y-89706531D01*
X172610719Y-89750000D01*
X172615000Y-89793469D01*
X172615000Y-89793476D01*
X172627805Y-89923489D01*
X172678411Y-90090312D01*
X172760589Y-90244058D01*
X172871183Y-90378817D01*
X172904956Y-90406534D01*
X175615001Y-93116580D01*
X175615000Y-94655241D01*
X175444866Y-94794866D01*
X175259294Y-95020986D01*
X175121401Y-95278966D01*
X175036487Y-95558889D01*
X175015000Y-95777050D01*
X175015000Y-96222949D01*
X175036487Y-96441110D01*
X175121401Y-96721033D01*
X175259294Y-96979013D01*
X175444866Y-97205134D01*
X175670986Y-97390706D01*
X175928966Y-97528599D01*
X176208889Y-97613513D01*
X176500000Y-97642185D01*
X176791110Y-97613513D01*
X177071033Y-97528599D01*
X177329013Y-97390706D01*
X177549549Y-97209718D01*
X177587270Y-97300785D01*
X177656763Y-97404789D01*
X177745211Y-97493237D01*
X177849215Y-97562730D01*
X177964777Y-97610597D01*
X178087458Y-97635000D01*
X178714250Y-97635000D01*
X178873000Y-97476250D01*
X178873000Y-96127000D01*
X179127000Y-96127000D01*
X179127000Y-97476250D01*
X179285750Y-97635000D01*
X179912542Y-97635000D01*
X180035223Y-97610597D01*
X180150785Y-97562730D01*
X180254789Y-97493237D01*
X180343237Y-97404789D01*
X180412730Y-97300785D01*
X180460597Y-97185223D01*
X180485000Y-97062542D01*
X180485000Y-96285750D01*
X180326250Y-96127000D01*
X179127000Y-96127000D01*
X178873000Y-96127000D01*
X178853000Y-96127000D01*
X178853000Y-95873000D01*
X178873000Y-95873000D01*
X178873000Y-94523750D01*
X179127000Y-94523750D01*
X179127000Y-95873000D01*
X180326250Y-95873000D01*
X180485000Y-95714250D01*
X180485000Y-94937458D01*
X180460597Y-94814777D01*
X180412730Y-94699215D01*
X180343237Y-94595211D01*
X180254789Y-94506763D01*
X180150785Y-94437270D01*
X180035223Y-94389403D01*
X179912542Y-94365000D01*
X179285750Y-94365000D01*
X179127000Y-94523750D01*
X178873000Y-94523750D01*
X178714250Y-94365000D01*
X178087458Y-94365000D01*
X177964777Y-94389403D01*
X177849215Y-94437270D01*
X177745211Y-94506763D01*
X177656763Y-94595211D01*
X177587270Y-94699215D01*
X177549549Y-94790282D01*
X177385000Y-94655241D01*
X177385000Y-92793469D01*
X177389281Y-92750000D01*
X177385000Y-92706531D01*
X177385000Y-92706523D01*
X177372195Y-92576510D01*
X177321589Y-92409687D01*
X177321589Y-92409686D01*
X177239411Y-92255941D01*
X177156532Y-92154953D01*
X177156530Y-92154951D01*
X177128817Y-92121183D01*
X177095049Y-92093470D01*
X174385000Y-89383422D01*
X174385000Y-87785750D01*
X175365000Y-87785750D01*
X175365000Y-88412542D01*
X175389403Y-88535223D01*
X175437270Y-88650785D01*
X175506763Y-88754789D01*
X175595211Y-88843237D01*
X175699215Y-88912730D01*
X175814777Y-88960597D01*
X175937458Y-88985000D01*
X176714250Y-88985000D01*
X176873000Y-88826250D01*
X176873000Y-87627000D01*
X177127000Y-87627000D01*
X177127000Y-88826250D01*
X177285750Y-88985000D01*
X178062542Y-88985000D01*
X178185223Y-88960597D01*
X178300785Y-88912730D01*
X178404789Y-88843237D01*
X178493237Y-88754789D01*
X178562730Y-88650785D01*
X178610597Y-88535223D01*
X178635000Y-88412542D01*
X178635000Y-87785750D01*
X183365000Y-87785750D01*
X183365000Y-88412542D01*
X183389403Y-88535223D01*
X183437270Y-88650785D01*
X183506763Y-88754789D01*
X183595211Y-88843237D01*
X183699215Y-88912730D01*
X183814777Y-88960597D01*
X183937458Y-88985000D01*
X184714250Y-88985000D01*
X184873000Y-88826250D01*
X184873000Y-87627000D01*
X185127000Y-87627000D01*
X185127000Y-88826250D01*
X185285750Y-88985000D01*
X186062542Y-88985000D01*
X186185223Y-88960597D01*
X186300785Y-88912730D01*
X186404789Y-88843237D01*
X186493237Y-88754789D01*
X186562730Y-88650785D01*
X186610597Y-88535223D01*
X186635000Y-88412542D01*
X186635000Y-87785750D01*
X186476250Y-87627000D01*
X185127000Y-87627000D01*
X184873000Y-87627000D01*
X183523750Y-87627000D01*
X183365000Y-87785750D01*
X178635000Y-87785750D01*
X178476250Y-87627000D01*
X177127000Y-87627000D01*
X176873000Y-87627000D01*
X175523750Y-87627000D01*
X175365000Y-87785750D01*
X174385000Y-87785750D01*
X174385000Y-85866578D01*
X175369422Y-84882157D01*
X175357815Y-85000000D01*
X175386487Y-85291111D01*
X175471401Y-85571034D01*
X175609294Y-85829014D01*
X175790282Y-86049549D01*
X175699215Y-86087270D01*
X175595211Y-86156763D01*
X175506763Y-86245211D01*
X175437270Y-86349215D01*
X175389403Y-86464777D01*
X175365000Y-86587458D01*
X175365000Y-87214250D01*
X175523750Y-87373000D01*
X176873000Y-87373000D01*
X176873000Y-87353000D01*
X177127000Y-87353000D01*
X177127000Y-87373000D01*
X178476250Y-87373000D01*
X178635000Y-87214250D01*
X178635000Y-86587458D01*
X178610597Y-86464777D01*
X178562730Y-86349215D01*
X178493237Y-86245211D01*
X178404789Y-86156763D01*
X178300785Y-86087270D01*
X178209718Y-86049549D01*
X178390706Y-85829014D01*
X178528599Y-85571034D01*
X178613513Y-85291111D01*
X178642185Y-85000000D01*
X178613513Y-84708889D01*
X178528599Y-84428966D01*
X178390706Y-84170986D01*
X178205134Y-83944866D01*
X177986303Y-83765276D01*
X178750000Y-83001578D01*
X181343470Y-85595049D01*
X181371183Y-85628817D01*
X181404951Y-85656530D01*
X181404953Y-85656532D01*
X181476452Y-85715210D01*
X181505941Y-85739411D01*
X181659687Y-85821589D01*
X181826510Y-85872195D01*
X181956523Y-85885000D01*
X181956533Y-85885000D01*
X181999999Y-85889281D01*
X182043465Y-85885000D01*
X183655241Y-85885000D01*
X183790282Y-86049549D01*
X183699215Y-86087270D01*
X183595211Y-86156763D01*
X183506763Y-86245211D01*
X183437270Y-86349215D01*
X183389403Y-86464777D01*
X183365000Y-86587458D01*
X183365000Y-87214250D01*
X183523750Y-87373000D01*
X184873000Y-87373000D01*
X184873000Y-87353000D01*
X185127000Y-87353000D01*
X185127000Y-87373000D01*
X186476250Y-87373000D01*
X186635000Y-87214250D01*
X186635000Y-86587458D01*
X186610597Y-86464777D01*
X186562730Y-86349215D01*
X186493237Y-86245211D01*
X186404789Y-86156763D01*
X186300785Y-86087270D01*
X186209718Y-86049549D01*
X186390706Y-85829014D01*
X186528599Y-85571034D01*
X186613513Y-85291111D01*
X186642185Y-85000000D01*
X186613513Y-84708889D01*
X186528599Y-84428966D01*
X186390706Y-84170986D01*
X186205134Y-83944866D01*
X185979014Y-83759294D01*
X185721034Y-83621401D01*
X185441111Y-83536487D01*
X185222950Y-83515000D01*
X184777050Y-83515000D01*
X184558889Y-83536487D01*
X184278966Y-83621401D01*
X184020986Y-83759294D01*
X183794866Y-83944866D01*
X183655241Y-84115000D01*
X182366579Y-84115000D01*
X180135000Y-81883422D01*
X180135000Y-79336173D01*
X180170986Y-79365706D01*
X180428966Y-79503599D01*
X180708889Y-79588513D01*
X181000000Y-79617185D01*
X181291110Y-79588513D01*
X181571033Y-79503599D01*
X181829013Y-79365706D01*
X182055134Y-79180134D01*
X182240706Y-78954014D01*
X182250000Y-78936626D01*
X182259294Y-78954013D01*
X182444866Y-79180134D01*
X182670986Y-79365706D01*
X182928966Y-79503599D01*
X183208889Y-79588513D01*
X183500000Y-79617185D01*
X183791110Y-79588513D01*
X184071033Y-79503599D01*
X184329013Y-79365706D01*
X184549549Y-79184718D01*
X184587270Y-79275785D01*
X184656763Y-79379789D01*
X184745211Y-79468237D01*
X184849215Y-79537730D01*
X184964777Y-79585597D01*
X185087458Y-79610000D01*
X185714250Y-79610000D01*
X185873000Y-79451250D01*
X185873000Y-78127000D01*
X186127000Y-78127000D01*
X186127000Y-79451250D01*
X186285750Y-79610000D01*
X186912542Y-79610000D01*
X187035223Y-79585597D01*
X187150785Y-79537730D01*
X187254789Y-79468237D01*
X187343237Y-79379789D01*
X187412730Y-79275785D01*
X187460597Y-79160223D01*
X187485000Y-79037542D01*
X187485000Y-78285750D01*
X187326250Y-78127000D01*
X186127000Y-78127000D01*
X185873000Y-78127000D01*
X185853000Y-78127000D01*
X185853000Y-77873000D01*
X185873000Y-77873000D01*
X185873000Y-76548750D01*
X186127000Y-76548750D01*
X186127000Y-77873000D01*
X187326250Y-77873000D01*
X187485000Y-77714250D01*
X187485000Y-76962458D01*
X187460597Y-76839777D01*
X187412730Y-76724215D01*
X187343237Y-76620211D01*
X187254789Y-76531763D01*
X187150785Y-76462270D01*
X187035223Y-76414403D01*
X186912542Y-76390000D01*
X186285750Y-76390000D01*
X186127000Y-76548750D01*
X185873000Y-76548750D01*
X185714250Y-76390000D01*
X185087458Y-76390000D01*
X184964777Y-76414403D01*
X184849215Y-76462270D01*
X184745211Y-76531763D01*
X184656763Y-76620211D01*
X184587270Y-76724215D01*
X184549549Y-76815282D01*
X184329014Y-76634294D01*
X184071034Y-76496401D01*
X183791111Y-76411487D01*
X183500000Y-76382815D01*
X183208890Y-76411487D01*
X182928967Y-76496401D01*
X182670987Y-76634294D01*
X182444866Y-76819866D01*
X182259294Y-77045986D01*
X182250000Y-77063374D01*
X182240706Y-77045986D01*
X182055134Y-76819866D01*
X181829014Y-76634294D01*
X181571034Y-76496401D01*
X181291111Y-76411487D01*
X181000000Y-76382815D01*
X180708890Y-76411487D01*
X180428967Y-76496401D01*
X180170987Y-76634294D01*
X180135000Y-76663828D01*
X180135000Y-65366578D01*
X183095049Y-62406530D01*
X183128817Y-62378817D01*
X183157810Y-62343490D01*
X183239410Y-62244060D01*
X183239411Y-62244059D01*
X183321589Y-62090313D01*
X183372195Y-61923490D01*
X183385000Y-61793477D01*
X183385000Y-61793467D01*
X183389281Y-61750001D01*
X183385000Y-61706534D01*
X183385000Y-60025413D01*
X184724192Y-60025413D01*
X184819956Y-60289814D01*
X185109571Y-60430704D01*
X185421108Y-60512384D01*
X185742595Y-60531718D01*
X186061675Y-60487961D01*
X186366088Y-60382795D01*
X186540044Y-60289814D01*
X186635808Y-60025413D01*
X185680000Y-59069605D01*
X184724192Y-60025413D01*
X183385000Y-60025413D01*
X183385000Y-58952595D01*
X184038282Y-58952595D01*
X184082039Y-59271675D01*
X184187205Y-59576088D01*
X184280186Y-59750044D01*
X184544587Y-59845808D01*
X185500395Y-58890000D01*
X185859605Y-58890000D01*
X186815413Y-59845808D01*
X187079814Y-59750044D01*
X187220704Y-59460429D01*
X187302384Y-59148892D01*
X187321718Y-58827405D01*
X187277961Y-58508325D01*
X187172795Y-58203912D01*
X187079814Y-58029956D01*
X186815413Y-57934192D01*
X185859605Y-58890000D01*
X185500395Y-58890000D01*
X184544587Y-57934192D01*
X184280186Y-58029956D01*
X184139296Y-58319571D01*
X184057616Y-58631108D01*
X184038282Y-58952595D01*
X183385000Y-58952595D01*
X183385000Y-58043469D01*
X183389281Y-58000000D01*
X183385000Y-57956531D01*
X183385000Y-57956523D01*
X183372195Y-57826510D01*
X183325798Y-57673561D01*
X183684947Y-57745000D01*
X184135053Y-57745000D01*
X184576510Y-57657189D01*
X184791762Y-57568029D01*
X184724192Y-57754587D01*
X185680000Y-58710395D01*
X186635808Y-57754587D01*
X186540044Y-57490186D01*
X186250429Y-57349296D01*
X185938892Y-57267616D01*
X185617405Y-57248282D01*
X185298325Y-57292039D01*
X185262559Y-57304395D01*
X185366603Y-57234875D01*
X185684875Y-56916603D01*
X185934941Y-56542353D01*
X186107189Y-56126510D01*
X186195000Y-55685053D01*
X186195000Y-55234947D01*
X186107189Y-54793490D01*
X185934941Y-54377647D01*
X185684875Y-54003397D01*
X185366603Y-53685125D01*
X184992353Y-53435059D01*
X184576510Y-53262811D01*
X184135053Y-53175000D01*
X183684947Y-53175000D01*
X183243490Y-53262811D01*
X182827647Y-53435059D01*
X182453397Y-53685125D01*
X182135125Y-54003397D01*
X181885059Y-54377647D01*
X181712811Y-54793490D01*
X181625000Y-55234947D01*
X181625000Y-55685053D01*
X181712811Y-56126510D01*
X181812368Y-56366861D01*
X181793478Y-56365001D01*
X181793470Y-56365001D01*
X181750001Y-56360720D01*
X181706532Y-56365001D01*
X180893468Y-56365001D01*
X180849999Y-56360720D01*
X180806530Y-56365001D01*
X180806522Y-56365001D01*
X180676509Y-56377806D01*
X180509686Y-56428412D01*
X180375753Y-56500000D01*
X180355940Y-56510590D01*
X180254952Y-56593469D01*
X180254950Y-56593471D01*
X180228717Y-56615000D01*
X179963589Y-56615000D01*
X179696011Y-56668225D01*
X179443957Y-56772629D01*
X179217114Y-56924201D01*
X179080000Y-57061315D01*
X178942886Y-56924201D01*
X178716043Y-56772629D01*
X178463989Y-56668225D01*
X178196411Y-56615000D01*
X177926578Y-56615000D01*
X177216534Y-55904956D01*
X177188817Y-55871183D01*
X177054059Y-55760589D01*
X176900313Y-55678411D01*
X176733490Y-55627805D01*
X176603477Y-55615000D01*
X176603469Y-55615000D01*
X176560000Y-55610719D01*
X176516531Y-55615000D01*
X173495000Y-55615000D01*
X173495000Y-55234947D01*
X173407189Y-54793490D01*
X173234941Y-54377647D01*
X172984875Y-54003397D01*
X172666603Y-53685125D01*
X172292353Y-53435059D01*
X171876510Y-53262811D01*
X171435053Y-53175000D01*
X170984947Y-53175000D01*
X170543490Y-53262811D01*
X170127647Y-53435059D01*
X169753397Y-53685125D01*
X169435125Y-54003397D01*
X169185059Y-54377647D01*
X169012811Y-54793490D01*
X168925000Y-55234947D01*
X168925000Y-55685053D01*
X169012811Y-56126510D01*
X169185059Y-56542353D01*
X169435125Y-56916603D01*
X169753397Y-57234875D01*
X169875697Y-57316593D01*
X169688892Y-57267616D01*
X169367405Y-57248282D01*
X169048325Y-57292039D01*
X168743912Y-57397205D01*
X168569956Y-57490186D01*
X168474192Y-57754587D01*
X165660000Y-57754587D01*
X165660000Y-53032279D01*
X165707670Y-52546107D01*
X165839489Y-52109502D01*
X166053600Y-51706815D01*
X166341848Y-51353388D01*
X166693261Y-51062673D01*
X167094439Y-50845758D01*
X167530113Y-50710894D01*
X168014344Y-50660000D01*
X186967721Y-50660000D01*
X187453893Y-50707670D01*
G36*
X174698225Y-57596011D02*
G01*
X174645000Y-57863589D01*
X174645000Y-58136411D01*
X174698225Y-58403989D01*
X174708895Y-58429749D01*
X174616011Y-58448225D01*
X174363957Y-58552629D01*
X174137114Y-58704201D01*
X173944201Y-58897114D01*
X173792629Y-59123957D01*
X173688225Y-59376011D01*
X173635000Y-59643589D01*
X173635000Y-59916411D01*
X173688225Y-60183989D01*
X173792629Y-60436043D01*
X173944201Y-60662886D01*
X174137114Y-60855799D01*
X174363957Y-61007371D01*
X174616011Y-61111775D01*
X174883589Y-61165000D01*
X175156411Y-61165000D01*
X175423989Y-61111775D01*
X175676043Y-61007371D01*
X175902886Y-60855799D01*
X176035000Y-60723685D01*
X176167114Y-60855799D01*
X176393957Y-61007371D01*
X176646011Y-61111775D01*
X176913589Y-61165000D01*
X177186411Y-61165000D01*
X177453989Y-61111775D01*
X177706043Y-61007371D01*
X177932886Y-60855799D01*
X178065000Y-60723685D01*
X178195001Y-60853686D01*
X178195000Y-61803421D01*
X176654951Y-63343471D01*
X176621184Y-63371183D01*
X176593471Y-63404951D01*
X176593468Y-63404954D01*
X176510590Y-63505941D01*
X176428412Y-63659687D01*
X176377805Y-63826510D01*
X176360719Y-64000000D01*
X176365001Y-64043479D01*
X176365001Y-68359844D01*
X176345050Y-68343471D01*
X172885000Y-64883422D01*
X172885000Y-58116578D01*
X173616579Y-57385000D01*
X174785628Y-57385000D01*
X174698225Y-57596011D01*
X174698225Y-57596011D01*
G37*
X174698225Y-57596011D02*
X174645000Y-57863589D01*
X174645000Y-58136411D01*
X174698225Y-58403989D01*
X174708895Y-58429749D01*
X174616011Y-58448225D01*
X174363957Y-58552629D01*
X174137114Y-58704201D01*
X173944201Y-58897114D01*
X173792629Y-59123957D01*
X173688225Y-59376011D01*
X173635000Y-59643589D01*
X173635000Y-59916411D01*
X173688225Y-60183989D01*
X173792629Y-60436043D01*
X173944201Y-60662886D01*
X174137114Y-60855799D01*
X174363957Y-61007371D01*
X174616011Y-61111775D01*
X174883589Y-61165000D01*
X175156411Y-61165000D01*
X175423989Y-61111775D01*
X175676043Y-61007371D01*
X175902886Y-60855799D01*
X176035000Y-60723685D01*
X176167114Y-60855799D01*
X176393957Y-61007371D01*
X176646011Y-61111775D01*
X176913589Y-61165000D01*
X177186411Y-61165000D01*
X177453989Y-61111775D01*
X177706043Y-61007371D01*
X177932886Y-60855799D01*
X178065000Y-60723685D01*
X178195001Y-60853686D01*
X178195000Y-61803421D01*
X176654951Y-63343471D01*
X176621184Y-63371183D01*
X176593471Y-63404951D01*
X176593468Y-63404954D01*
X176510590Y-63505941D01*
X176428412Y-63659687D01*
X176377805Y-63826510D01*
X176360719Y-64000000D01*
X176365001Y-64043479D01*
X176365001Y-68359844D01*
X176345050Y-68343471D01*
X172885000Y-64883422D01*
X172885000Y-58116578D01*
X173616579Y-57385000D01*
X174785628Y-57385000D01*
X174698225Y-57596011D01*
M02*
