G04 #@! TF.GenerationSoftware,KiCad,Pcbnew,6.0.0-rc1-unknown-73a0cbf~66~ubuntu18.04.1*
G04 #@! TF.CreationDate,2019-02-12T22:26:01+01:00
G04 #@! TF.ProjectId,wcube-head-pcb,77637562-652d-4686-9561-642d7063622e,rev?*
G04 #@! TF.SameCoordinates,Original*
G04 #@! TF.FileFunction,Copper,L1,Top*
G04 #@! TF.FilePolarity,Positive*
%FSLAX46Y46*%
G04 Gerber Fmt 4.6, Leading zero omitted, Abs format (unit mm)*
G04 Created by KiCad (PCBNEW 6.0.0-rc1-unknown-73a0cbf~66~ubuntu18.04.1) date 2019-02-12 22:26:01*
%MOMM*%
%LPD*%
G04 APERTURE LIST*
%ADD10O,1.700000X1.950000*%
%ADD11R,1.700000X1.950000*%
%ADD12R,1.500000X0.970000*%
%ADD13C,2.000000*%
%ADD14C,1.500000*%
%ADD15R,1.500000X1.500000*%
%ADD16O,2.000000X1.700000*%
%ADD17R,2.000000X1.700000*%
%ADD18O,1.700000X2.000000*%
%ADD19R,1.700000X2.000000*%
%ADD20C,0.800000*%
%ADD21C,0.500000*%
%ADD22C,0.254000*%
G04 APERTURE END LIST*
D10*
X169000000Y-78000000D03*
X171500000Y-78000000D03*
D11*
X174000000Y-78000000D03*
D12*
X182500000Y-70795000D03*
X182500000Y-72705000D03*
D13*
X185680000Y-58890000D03*
D14*
X181110000Y-59780000D03*
X179080000Y-59780000D03*
X177050000Y-59780000D03*
X175020000Y-59780000D03*
X178060000Y-58000000D03*
X176030000Y-58000000D03*
X180100000Y-58000000D03*
D15*
X174000000Y-58000000D03*
D13*
X169430000Y-58890000D03*
D12*
X177500000Y-70795000D03*
X177500000Y-72705000D03*
X180000000Y-70795000D03*
X180000000Y-72705000D03*
D10*
X181000000Y-78000000D03*
X183500000Y-78000000D03*
D11*
X186000000Y-78000000D03*
D16*
X185000000Y-85000000D03*
D17*
X185000000Y-87500000D03*
D16*
X169000000Y-85000000D03*
D17*
X169000000Y-87500000D03*
D16*
X177000000Y-85000000D03*
D17*
X177000000Y-87500000D03*
D18*
X176500000Y-96000000D03*
D19*
X179000000Y-96000000D03*
D20*
X175750000Y-71250000D03*
X175750000Y-72250000D03*
X175750000Y-73250000D03*
X175750000Y-64750000D03*
X175750000Y-63750000D03*
X175750000Y-62750000D03*
X174750000Y-62750000D03*
X174750000Y-63750000D03*
X174750000Y-64750000D03*
D21*
X183000000Y-85000000D02*
X185000000Y-85000000D01*
X180000000Y-82000000D02*
X183000000Y-85000000D01*
X174000000Y-82000000D02*
X180000000Y-82000000D01*
X169000000Y-85000000D02*
X171000000Y-85000000D01*
X171000000Y-85000000D02*
X174000000Y-82000000D01*
X176205000Y-70795000D02*
X176149999Y-70850001D01*
X177500000Y-70795000D02*
X176205000Y-70795000D01*
X176149999Y-70850001D02*
X175750000Y-71250000D01*
X175750000Y-71250000D02*
X175750000Y-72250000D01*
X175750000Y-72250000D02*
X175750000Y-73250000D01*
X181000000Y-76525000D02*
X179150000Y-74675000D01*
X176325000Y-74675000D02*
X175750000Y-74100000D01*
X181000000Y-78000000D02*
X181000000Y-76525000D01*
X179150000Y-74675000D02*
X176325000Y-74675000D01*
X175750000Y-74100000D02*
X175750000Y-73815685D01*
X175750000Y-73815685D02*
X175750000Y-73250000D01*
X182500000Y-70795000D02*
X180000000Y-70795000D01*
X177050000Y-61300000D02*
X180000000Y-64250000D01*
X180000000Y-64250000D02*
X180000000Y-70795000D01*
X177050000Y-59780000D02*
X177050000Y-61300000D01*
X176030000Y-57780000D02*
X176030000Y-58000000D01*
X169000000Y-76000000D02*
X172250000Y-72750000D01*
X169000000Y-78000000D02*
X169000000Y-76000000D01*
X173278002Y-56500000D02*
X174750000Y-56500000D01*
X172250000Y-72750000D02*
X172250000Y-57528002D01*
X172250000Y-57528002D02*
X173278002Y-56500000D01*
X174750000Y-56500000D02*
X176030000Y-57780000D01*
X174270001Y-60529999D02*
X175020000Y-59780000D01*
X173250000Y-61550000D02*
X174270001Y-60529999D01*
X173250000Y-73250000D02*
X173250000Y-61550000D01*
X171500000Y-78000000D02*
X171500000Y-75000000D01*
X171500000Y-75000000D02*
X173250000Y-73250000D01*
X177500000Y-72705000D02*
X180000000Y-72705000D01*
X183500000Y-76525000D02*
X182475000Y-75500000D01*
X183500000Y-78000000D02*
X183500000Y-76525000D01*
X182475000Y-75500000D02*
X181250000Y-75500000D01*
X181250000Y-75500000D02*
X180000000Y-74250000D01*
X180000000Y-74250000D02*
X180000000Y-72705000D01*
D22*
G36*
X187453893Y-50707670D02*
G01*
X187890498Y-50839489D01*
X188293185Y-51053600D01*
X188646612Y-51341848D01*
X188937327Y-51693261D01*
X189154242Y-52094439D01*
X189289106Y-52530113D01*
X189340000Y-53014344D01*
X189340000Y-67917755D01*
X188993346Y-67571101D01*
X188481190Y-67228889D01*
X187912112Y-66993169D01*
X187307983Y-66873000D01*
X186692017Y-66873000D01*
X186087888Y-66993169D01*
X185518810Y-67228889D01*
X185006654Y-67571101D01*
X184571101Y-68006654D01*
X184228889Y-68518810D01*
X183993169Y-69087888D01*
X183873000Y-69692017D01*
X183873000Y-70176248D01*
X183839502Y-70065820D01*
X183780537Y-69955506D01*
X183701185Y-69858815D01*
X183604494Y-69779463D01*
X183494180Y-69720498D01*
X183374482Y-69684188D01*
X183250000Y-69671928D01*
X181750000Y-69671928D01*
X181625518Y-69684188D01*
X181505820Y-69720498D01*
X181395506Y-69779463D01*
X181298815Y-69858815D01*
X181256809Y-69910000D01*
X181243191Y-69910000D01*
X181201185Y-69858815D01*
X181104494Y-69779463D01*
X180994180Y-69720498D01*
X180885000Y-69687379D01*
X180885000Y-64293466D01*
X180889281Y-64249999D01*
X180885000Y-64206533D01*
X180885000Y-64206523D01*
X180872195Y-64076510D01*
X180821589Y-63909687D01*
X180739411Y-63755941D01*
X180628817Y-63621183D01*
X180595050Y-63593471D01*
X177935000Y-60933422D01*
X177935000Y-60853685D01*
X178065000Y-60723685D01*
X178197114Y-60855799D01*
X178423957Y-61007371D01*
X178676011Y-61111775D01*
X178943589Y-61165000D01*
X179216411Y-61165000D01*
X179483989Y-61111775D01*
X179736043Y-61007371D01*
X179962886Y-60855799D01*
X180095000Y-60723685D01*
X180227114Y-60855799D01*
X180453957Y-61007371D01*
X180706011Y-61111775D01*
X180973589Y-61165000D01*
X181246411Y-61165000D01*
X181513989Y-61111775D01*
X181766043Y-61007371D01*
X181992886Y-60855799D01*
X182185799Y-60662886D01*
X182337371Y-60436043D01*
X182441775Y-60183989D01*
X182473317Y-60025413D01*
X184724192Y-60025413D01*
X184819956Y-60289814D01*
X185109571Y-60430704D01*
X185421108Y-60512384D01*
X185742595Y-60531718D01*
X186061675Y-60487961D01*
X186366088Y-60382795D01*
X186540044Y-60289814D01*
X186635808Y-60025413D01*
X185680000Y-59069605D01*
X184724192Y-60025413D01*
X182473317Y-60025413D01*
X182495000Y-59916411D01*
X182495000Y-59643589D01*
X182441775Y-59376011D01*
X182337371Y-59123957D01*
X182222871Y-58952595D01*
X184038282Y-58952595D01*
X184082039Y-59271675D01*
X184187205Y-59576088D01*
X184280186Y-59750044D01*
X184544587Y-59845808D01*
X185500395Y-58890000D01*
X185859605Y-58890000D01*
X186815413Y-59845808D01*
X187079814Y-59750044D01*
X187220704Y-59460429D01*
X187302384Y-59148892D01*
X187321718Y-58827405D01*
X187277961Y-58508325D01*
X187172795Y-58203912D01*
X187079814Y-58029956D01*
X186815413Y-57934192D01*
X185859605Y-58890000D01*
X185500395Y-58890000D01*
X184544587Y-57934192D01*
X184280186Y-58029956D01*
X184139296Y-58319571D01*
X184057616Y-58631108D01*
X184038282Y-58952595D01*
X182222871Y-58952595D01*
X182185799Y-58897114D01*
X181992886Y-58704201D01*
X181766043Y-58552629D01*
X181513989Y-58448225D01*
X181421105Y-58429749D01*
X181431775Y-58403989D01*
X181485000Y-58136411D01*
X181485000Y-57863589D01*
X181431775Y-57596011D01*
X181327371Y-57343957D01*
X181175799Y-57117114D01*
X180982886Y-56924201D01*
X180756043Y-56772629D01*
X180503989Y-56668225D01*
X180236411Y-56615000D01*
X179963589Y-56615000D01*
X179696011Y-56668225D01*
X179443957Y-56772629D01*
X179217114Y-56924201D01*
X179080000Y-57061315D01*
X178942886Y-56924201D01*
X178716043Y-56772629D01*
X178463989Y-56668225D01*
X178196411Y-56615000D01*
X177923589Y-56615000D01*
X177656011Y-56668225D01*
X177403957Y-56772629D01*
X177177114Y-56924201D01*
X177045000Y-57056315D01*
X176912886Y-56924201D01*
X176686043Y-56772629D01*
X176433989Y-56668225D01*
X176166411Y-56615000D01*
X176116579Y-56615000D01*
X175406534Y-55904956D01*
X175378817Y-55871183D01*
X175244059Y-55760589D01*
X175090313Y-55678411D01*
X174923490Y-55627805D01*
X174793477Y-55615000D01*
X174793469Y-55615000D01*
X174750000Y-55610719D01*
X174706531Y-55615000D01*
X173495000Y-55615000D01*
X173495000Y-55234947D01*
X181625000Y-55234947D01*
X181625000Y-55685053D01*
X181712811Y-56126510D01*
X181885059Y-56542353D01*
X182135125Y-56916603D01*
X182453397Y-57234875D01*
X182827647Y-57484941D01*
X183243490Y-57657189D01*
X183684947Y-57745000D01*
X184135053Y-57745000D01*
X184576510Y-57657189D01*
X184791762Y-57568029D01*
X184724192Y-57754587D01*
X185680000Y-58710395D01*
X186635808Y-57754587D01*
X186540044Y-57490186D01*
X186250429Y-57349296D01*
X185938892Y-57267616D01*
X185617405Y-57248282D01*
X185298325Y-57292039D01*
X185262559Y-57304395D01*
X185366603Y-57234875D01*
X185684875Y-56916603D01*
X185934941Y-56542353D01*
X186107189Y-56126510D01*
X186195000Y-55685053D01*
X186195000Y-55234947D01*
X186107189Y-54793490D01*
X185934941Y-54377647D01*
X185684875Y-54003397D01*
X185366603Y-53685125D01*
X184992353Y-53435059D01*
X184576510Y-53262811D01*
X184135053Y-53175000D01*
X183684947Y-53175000D01*
X183243490Y-53262811D01*
X182827647Y-53435059D01*
X182453397Y-53685125D01*
X182135125Y-54003397D01*
X181885059Y-54377647D01*
X181712811Y-54793490D01*
X181625000Y-55234947D01*
X173495000Y-55234947D01*
X173407189Y-54793490D01*
X173234941Y-54377647D01*
X172984875Y-54003397D01*
X172666603Y-53685125D01*
X172292353Y-53435059D01*
X171876510Y-53262811D01*
X171435053Y-53175000D01*
X170984947Y-53175000D01*
X170543490Y-53262811D01*
X170127647Y-53435059D01*
X169753397Y-53685125D01*
X169435125Y-54003397D01*
X169185059Y-54377647D01*
X169012811Y-54793490D01*
X168925000Y-55234947D01*
X168925000Y-55685053D01*
X169012811Y-56126510D01*
X169185059Y-56542353D01*
X169435125Y-56916603D01*
X169753397Y-57234875D01*
X169875697Y-57316593D01*
X169688892Y-57267616D01*
X169367405Y-57248282D01*
X169048325Y-57292039D01*
X168743912Y-57397205D01*
X168569956Y-57490186D01*
X168474192Y-57754587D01*
X169430000Y-58710395D01*
X170385808Y-57754587D01*
X170316473Y-57563155D01*
X170543490Y-57657189D01*
X170984947Y-57745000D01*
X171365001Y-57745000D01*
X171365000Y-72383421D01*
X168404951Y-75343471D01*
X168371184Y-75371183D01*
X168343471Y-75404951D01*
X168343468Y-75404954D01*
X168260590Y-75505941D01*
X168178412Y-75659687D01*
X168127805Y-75826510D01*
X168110719Y-76000000D01*
X168115001Y-76043479D01*
X168115001Y-76680241D01*
X167944866Y-76819866D01*
X167759294Y-77045986D01*
X167621401Y-77303966D01*
X167536487Y-77583889D01*
X167515000Y-77802050D01*
X167515000Y-78197949D01*
X167536487Y-78416110D01*
X167621401Y-78696033D01*
X167759294Y-78954013D01*
X167944866Y-79180134D01*
X168170986Y-79365706D01*
X168428966Y-79503599D01*
X168708889Y-79588513D01*
X169000000Y-79617185D01*
X169291110Y-79588513D01*
X169571033Y-79503599D01*
X169829013Y-79365706D01*
X170055134Y-79180134D01*
X170240706Y-78954014D01*
X170250000Y-78936626D01*
X170259294Y-78954013D01*
X170444866Y-79180134D01*
X170670986Y-79365706D01*
X170928966Y-79503599D01*
X171208889Y-79588513D01*
X171500000Y-79617185D01*
X171791110Y-79588513D01*
X172071033Y-79503599D01*
X172329013Y-79365706D01*
X172549549Y-79184718D01*
X172587270Y-79275785D01*
X172656763Y-79379789D01*
X172745211Y-79468237D01*
X172849215Y-79537730D01*
X172964777Y-79585597D01*
X173087458Y-79610000D01*
X173714250Y-79610000D01*
X173873000Y-79451250D01*
X173873000Y-78127000D01*
X174127000Y-78127000D01*
X174127000Y-79451250D01*
X174285750Y-79610000D01*
X174912542Y-79610000D01*
X175035223Y-79585597D01*
X175150785Y-79537730D01*
X175254789Y-79468237D01*
X175343237Y-79379789D01*
X175412730Y-79275785D01*
X175460597Y-79160223D01*
X175485000Y-79037542D01*
X175485000Y-78285750D01*
X175326250Y-78127000D01*
X174127000Y-78127000D01*
X173873000Y-78127000D01*
X173853000Y-78127000D01*
X173853000Y-77873000D01*
X173873000Y-77873000D01*
X173873000Y-76548750D01*
X174127000Y-76548750D01*
X174127000Y-77873000D01*
X175326250Y-77873000D01*
X175485000Y-77714250D01*
X175485000Y-76962458D01*
X175460597Y-76839777D01*
X175412730Y-76724215D01*
X175343237Y-76620211D01*
X175254789Y-76531763D01*
X175150785Y-76462270D01*
X175035223Y-76414403D01*
X174912542Y-76390000D01*
X174285750Y-76390000D01*
X174127000Y-76548750D01*
X173873000Y-76548750D01*
X173714250Y-76390000D01*
X173087458Y-76390000D01*
X172964777Y-76414403D01*
X172849215Y-76462270D01*
X172745211Y-76531763D01*
X172656763Y-76620211D01*
X172587270Y-76724215D01*
X172549549Y-76815282D01*
X172385000Y-76680241D01*
X172385000Y-75366578D01*
X173845050Y-73906529D01*
X173878817Y-73878817D01*
X173930525Y-73815812D01*
X173989411Y-73744059D01*
X174001984Y-73720537D01*
X174071589Y-73590313D01*
X174122195Y-73423490D01*
X174135000Y-73293477D01*
X174135000Y-73293469D01*
X174139281Y-73250000D01*
X174135000Y-73206531D01*
X174135000Y-61916578D01*
X174886579Y-61165000D01*
X175156411Y-61165000D01*
X175423989Y-61111775D01*
X175676043Y-61007371D01*
X175902886Y-60855799D01*
X176035000Y-60723685D01*
X176165001Y-60853686D01*
X176165001Y-61256521D01*
X176160719Y-61300000D01*
X176177805Y-61473490D01*
X176228412Y-61640313D01*
X176310590Y-61794059D01*
X176393468Y-61895046D01*
X176393471Y-61895049D01*
X176421184Y-61928817D01*
X176454951Y-61956529D01*
X179115000Y-64616579D01*
X179115001Y-69687378D01*
X179005820Y-69720498D01*
X178895506Y-69779463D01*
X178798815Y-69858815D01*
X178750000Y-69918296D01*
X178701185Y-69858815D01*
X178604494Y-69779463D01*
X178494180Y-69720498D01*
X178374482Y-69684188D01*
X178250000Y-69671928D01*
X176750000Y-69671928D01*
X176625518Y-69684188D01*
X176505820Y-69720498D01*
X176395506Y-69779463D01*
X176298815Y-69858815D01*
X176256809Y-69910000D01*
X176248465Y-69910000D01*
X176204999Y-69905719D01*
X176161533Y-69910000D01*
X176161523Y-69910000D01*
X176031510Y-69922805D01*
X175864687Y-69973411D01*
X175710941Y-70055589D01*
X175576183Y-70166183D01*
X175548466Y-70199956D01*
X175504957Y-70243465D01*
X175448102Y-70254774D01*
X175259744Y-70332795D01*
X175090226Y-70446063D01*
X174946063Y-70590226D01*
X174832795Y-70759744D01*
X174754774Y-70948102D01*
X174715000Y-71148061D01*
X174715000Y-71351939D01*
X174754774Y-71551898D01*
X174832795Y-71740256D01*
X174839306Y-71750000D01*
X174832795Y-71759744D01*
X174754774Y-71948102D01*
X174715000Y-72148061D01*
X174715000Y-72351939D01*
X174754774Y-72551898D01*
X174832795Y-72740256D01*
X174839306Y-72750000D01*
X174832795Y-72759744D01*
X174754774Y-72948102D01*
X174715000Y-73148061D01*
X174715000Y-73351939D01*
X174754774Y-73551898D01*
X174832795Y-73740256D01*
X174865000Y-73788454D01*
X174865000Y-74056531D01*
X174860719Y-74100000D01*
X174865000Y-74143469D01*
X174865000Y-74143476D01*
X174877805Y-74273489D01*
X174928411Y-74440312D01*
X175010589Y-74594058D01*
X175121183Y-74728817D01*
X175154956Y-74756534D01*
X175668466Y-75270044D01*
X175696183Y-75303817D01*
X175830941Y-75414411D01*
X175984687Y-75496589D01*
X176151510Y-75547195D01*
X176281523Y-75560000D01*
X176281531Y-75560000D01*
X176325000Y-75564281D01*
X176368469Y-75560000D01*
X178783422Y-75560000D01*
X179998924Y-76775502D01*
X179944866Y-76819866D01*
X179759294Y-77045986D01*
X179621401Y-77303966D01*
X179536487Y-77583889D01*
X179515000Y-77802050D01*
X179515000Y-78197949D01*
X179536487Y-78416110D01*
X179621401Y-78696033D01*
X179759294Y-78954013D01*
X179944866Y-79180134D01*
X180170986Y-79365706D01*
X180428966Y-79503599D01*
X180708889Y-79588513D01*
X181000000Y-79617185D01*
X181291110Y-79588513D01*
X181571033Y-79503599D01*
X181829013Y-79365706D01*
X182055134Y-79180134D01*
X182240706Y-78954014D01*
X182250000Y-78936626D01*
X182259294Y-78954013D01*
X182444866Y-79180134D01*
X182670986Y-79365706D01*
X182928966Y-79503599D01*
X183208889Y-79588513D01*
X183500000Y-79617185D01*
X183791110Y-79588513D01*
X184071033Y-79503599D01*
X184329013Y-79365706D01*
X184549549Y-79184718D01*
X184587270Y-79275785D01*
X184656763Y-79379789D01*
X184745211Y-79468237D01*
X184849215Y-79537730D01*
X184964777Y-79585597D01*
X185087458Y-79610000D01*
X185714250Y-79610000D01*
X185873000Y-79451250D01*
X185873000Y-78127000D01*
X186127000Y-78127000D01*
X186127000Y-79451250D01*
X186285750Y-79610000D01*
X186912542Y-79610000D01*
X187035223Y-79585597D01*
X187150785Y-79537730D01*
X187254789Y-79468237D01*
X187343237Y-79379789D01*
X187412730Y-79275785D01*
X187460597Y-79160223D01*
X187485000Y-79037542D01*
X187485000Y-78285750D01*
X187326250Y-78127000D01*
X186127000Y-78127000D01*
X185873000Y-78127000D01*
X185853000Y-78127000D01*
X185853000Y-77873000D01*
X185873000Y-77873000D01*
X185873000Y-76548750D01*
X186127000Y-76548750D01*
X186127000Y-77873000D01*
X187326250Y-77873000D01*
X187485000Y-77714250D01*
X187485000Y-76962458D01*
X187460597Y-76839777D01*
X187412730Y-76724215D01*
X187343237Y-76620211D01*
X187254789Y-76531763D01*
X187150785Y-76462270D01*
X187035223Y-76414403D01*
X186912542Y-76390000D01*
X186285750Y-76390000D01*
X186127000Y-76548750D01*
X185873000Y-76548750D01*
X185714250Y-76390000D01*
X185087458Y-76390000D01*
X184964777Y-76414403D01*
X184849215Y-76462270D01*
X184745211Y-76531763D01*
X184656763Y-76620211D01*
X184587270Y-76724215D01*
X184549549Y-76815282D01*
X184385000Y-76680241D01*
X184385000Y-76568469D01*
X184389281Y-76525000D01*
X184385000Y-76481531D01*
X184385000Y-76481523D01*
X184372195Y-76351510D01*
X184321589Y-76184687D01*
X184239411Y-76030941D01*
X184214018Y-76000000D01*
X184156532Y-75929953D01*
X184156530Y-75929951D01*
X184128817Y-75896183D01*
X184095049Y-75868470D01*
X183131534Y-74904956D01*
X183103817Y-74871183D01*
X182969059Y-74760589D01*
X182815313Y-74678411D01*
X182648490Y-74627805D01*
X182518477Y-74615000D01*
X182518469Y-74615000D01*
X182475000Y-74610719D01*
X182431531Y-74615000D01*
X181616579Y-74615000D01*
X180885000Y-73883422D01*
X180885000Y-73812621D01*
X180994180Y-73779502D01*
X181104494Y-73720537D01*
X181201185Y-73641185D01*
X181248908Y-73583034D01*
X181256763Y-73594789D01*
X181345211Y-73683237D01*
X181449215Y-73752730D01*
X181564777Y-73800597D01*
X181687458Y-73825000D01*
X182214250Y-73825000D01*
X182373000Y-73666250D01*
X182373000Y-72832000D01*
X182627000Y-72832000D01*
X182627000Y-73666250D01*
X182785750Y-73825000D01*
X183312542Y-73825000D01*
X183435223Y-73800597D01*
X183550785Y-73752730D01*
X183654789Y-73683237D01*
X183743237Y-73594789D01*
X183812730Y-73490785D01*
X183860597Y-73375223D01*
X183885000Y-73252542D01*
X183885000Y-72990750D01*
X183726250Y-72832000D01*
X182627000Y-72832000D01*
X182373000Y-72832000D01*
X182353000Y-72832000D01*
X182353000Y-72578000D01*
X182373000Y-72578000D01*
X182373000Y-72558000D01*
X182627000Y-72558000D01*
X182627000Y-72578000D01*
X183726250Y-72578000D01*
X183885000Y-72419250D01*
X183885000Y-72157458D01*
X183860597Y-72034777D01*
X183812730Y-71919215D01*
X183743237Y-71815211D01*
X183678131Y-71750105D01*
X183701185Y-71731185D01*
X183780537Y-71634494D01*
X183839502Y-71524180D01*
X183875812Y-71404482D01*
X183888072Y-71280000D01*
X183888072Y-70383755D01*
X183993169Y-70912112D01*
X184228889Y-71481190D01*
X184571101Y-71993346D01*
X185006654Y-72428899D01*
X185518810Y-72771111D01*
X186087888Y-73006831D01*
X186692017Y-73127000D01*
X187307983Y-73127000D01*
X187912112Y-73006831D01*
X188481190Y-72771111D01*
X188993346Y-72428899D01*
X189340000Y-72082245D01*
X189340001Y-94917756D01*
X188993346Y-94571101D01*
X188481190Y-94228889D01*
X187912112Y-93993169D01*
X187307983Y-93873000D01*
X186692017Y-93873000D01*
X186087888Y-93993169D01*
X185518810Y-94228889D01*
X185006654Y-94571101D01*
X184571101Y-95006654D01*
X184228889Y-95518810D01*
X183993169Y-96087888D01*
X183873000Y-96692017D01*
X183873000Y-97307983D01*
X183993169Y-97912112D01*
X184228889Y-98481190D01*
X184571101Y-98993346D01*
X184917755Y-99340000D01*
X170082245Y-99340000D01*
X170428899Y-98993346D01*
X170771111Y-98481190D01*
X171006831Y-97912112D01*
X171127000Y-97307983D01*
X171127000Y-96692017D01*
X171006831Y-96087888D01*
X170878078Y-95777050D01*
X175015000Y-95777050D01*
X175015000Y-96222949D01*
X175036487Y-96441110D01*
X175121401Y-96721033D01*
X175259294Y-96979013D01*
X175444866Y-97205134D01*
X175670986Y-97390706D01*
X175928966Y-97528599D01*
X176208889Y-97613513D01*
X176500000Y-97642185D01*
X176791110Y-97613513D01*
X177071033Y-97528599D01*
X177329013Y-97390706D01*
X177549549Y-97209718D01*
X177587270Y-97300785D01*
X177656763Y-97404789D01*
X177745211Y-97493237D01*
X177849215Y-97562730D01*
X177964777Y-97610597D01*
X178087458Y-97635000D01*
X178714250Y-97635000D01*
X178873000Y-97476250D01*
X178873000Y-96127000D01*
X179127000Y-96127000D01*
X179127000Y-97476250D01*
X179285750Y-97635000D01*
X179912542Y-97635000D01*
X180035223Y-97610597D01*
X180150785Y-97562730D01*
X180254789Y-97493237D01*
X180343237Y-97404789D01*
X180412730Y-97300785D01*
X180460597Y-97185223D01*
X180485000Y-97062542D01*
X180485000Y-96285750D01*
X180326250Y-96127000D01*
X179127000Y-96127000D01*
X178873000Y-96127000D01*
X178853000Y-96127000D01*
X178853000Y-95873000D01*
X178873000Y-95873000D01*
X178873000Y-94523750D01*
X179127000Y-94523750D01*
X179127000Y-95873000D01*
X180326250Y-95873000D01*
X180485000Y-95714250D01*
X180485000Y-94937458D01*
X180460597Y-94814777D01*
X180412730Y-94699215D01*
X180343237Y-94595211D01*
X180254789Y-94506763D01*
X180150785Y-94437270D01*
X180035223Y-94389403D01*
X179912542Y-94365000D01*
X179285750Y-94365000D01*
X179127000Y-94523750D01*
X178873000Y-94523750D01*
X178714250Y-94365000D01*
X178087458Y-94365000D01*
X177964777Y-94389403D01*
X177849215Y-94437270D01*
X177745211Y-94506763D01*
X177656763Y-94595211D01*
X177587270Y-94699215D01*
X177549549Y-94790282D01*
X177329014Y-94609294D01*
X177071034Y-94471401D01*
X176791111Y-94386487D01*
X176500000Y-94357815D01*
X176208890Y-94386487D01*
X175928967Y-94471401D01*
X175670987Y-94609294D01*
X175444866Y-94794866D01*
X175259294Y-95020986D01*
X175121401Y-95278966D01*
X175036487Y-95558889D01*
X175015000Y-95777050D01*
X170878078Y-95777050D01*
X170771111Y-95518810D01*
X170428899Y-95006654D01*
X169993346Y-94571101D01*
X169481190Y-94228889D01*
X168912112Y-93993169D01*
X168307983Y-93873000D01*
X167692017Y-93873000D01*
X167087888Y-93993169D01*
X166518810Y-94228889D01*
X166006654Y-94571101D01*
X165660000Y-94917755D01*
X165660000Y-87785750D01*
X167365000Y-87785750D01*
X167365000Y-88412542D01*
X167389403Y-88535223D01*
X167437270Y-88650785D01*
X167506763Y-88754789D01*
X167595211Y-88843237D01*
X167699215Y-88912730D01*
X167814777Y-88960597D01*
X167937458Y-88985000D01*
X168714250Y-88985000D01*
X168873000Y-88826250D01*
X168873000Y-87627000D01*
X169127000Y-87627000D01*
X169127000Y-88826250D01*
X169285750Y-88985000D01*
X170062542Y-88985000D01*
X170185223Y-88960597D01*
X170300785Y-88912730D01*
X170404789Y-88843237D01*
X170493237Y-88754789D01*
X170562730Y-88650785D01*
X170610597Y-88535223D01*
X170635000Y-88412542D01*
X170635000Y-87785750D01*
X175365000Y-87785750D01*
X175365000Y-88412542D01*
X175389403Y-88535223D01*
X175437270Y-88650785D01*
X175506763Y-88754789D01*
X175595211Y-88843237D01*
X175699215Y-88912730D01*
X175814777Y-88960597D01*
X175937458Y-88985000D01*
X176714250Y-88985000D01*
X176873000Y-88826250D01*
X176873000Y-87627000D01*
X177127000Y-87627000D01*
X177127000Y-88826250D01*
X177285750Y-88985000D01*
X178062542Y-88985000D01*
X178185223Y-88960597D01*
X178300785Y-88912730D01*
X178404789Y-88843237D01*
X178493237Y-88754789D01*
X178562730Y-88650785D01*
X178610597Y-88535223D01*
X178635000Y-88412542D01*
X178635000Y-87785750D01*
X183365000Y-87785750D01*
X183365000Y-88412542D01*
X183389403Y-88535223D01*
X183437270Y-88650785D01*
X183506763Y-88754789D01*
X183595211Y-88843237D01*
X183699215Y-88912730D01*
X183814777Y-88960597D01*
X183937458Y-88985000D01*
X184714250Y-88985000D01*
X184873000Y-88826250D01*
X184873000Y-87627000D01*
X185127000Y-87627000D01*
X185127000Y-88826250D01*
X185285750Y-88985000D01*
X186062542Y-88985000D01*
X186185223Y-88960597D01*
X186300785Y-88912730D01*
X186404789Y-88843237D01*
X186493237Y-88754789D01*
X186562730Y-88650785D01*
X186610597Y-88535223D01*
X186635000Y-88412542D01*
X186635000Y-87785750D01*
X186476250Y-87627000D01*
X185127000Y-87627000D01*
X184873000Y-87627000D01*
X183523750Y-87627000D01*
X183365000Y-87785750D01*
X178635000Y-87785750D01*
X178476250Y-87627000D01*
X177127000Y-87627000D01*
X176873000Y-87627000D01*
X175523750Y-87627000D01*
X175365000Y-87785750D01*
X170635000Y-87785750D01*
X170476250Y-87627000D01*
X169127000Y-87627000D01*
X168873000Y-87627000D01*
X167523750Y-87627000D01*
X167365000Y-87785750D01*
X165660000Y-87785750D01*
X165660000Y-85000000D01*
X167357815Y-85000000D01*
X167386487Y-85291111D01*
X167471401Y-85571034D01*
X167609294Y-85829014D01*
X167790282Y-86049549D01*
X167699215Y-86087270D01*
X167595211Y-86156763D01*
X167506763Y-86245211D01*
X167437270Y-86349215D01*
X167389403Y-86464777D01*
X167365000Y-86587458D01*
X167365000Y-87214250D01*
X167523750Y-87373000D01*
X168873000Y-87373000D01*
X168873000Y-87353000D01*
X169127000Y-87353000D01*
X169127000Y-87373000D01*
X170476250Y-87373000D01*
X170635000Y-87214250D01*
X170635000Y-86587458D01*
X170610597Y-86464777D01*
X170562730Y-86349215D01*
X170493237Y-86245211D01*
X170404789Y-86156763D01*
X170300785Y-86087270D01*
X170209718Y-86049549D01*
X170344759Y-85885000D01*
X170956531Y-85885000D01*
X171000000Y-85889281D01*
X171043469Y-85885000D01*
X171043477Y-85885000D01*
X171173490Y-85872195D01*
X171340313Y-85821589D01*
X171494059Y-85739411D01*
X171628817Y-85628817D01*
X171656534Y-85595044D01*
X172251578Y-85000000D01*
X175357815Y-85000000D01*
X175386487Y-85291111D01*
X175471401Y-85571034D01*
X175609294Y-85829014D01*
X175790282Y-86049549D01*
X175699215Y-86087270D01*
X175595211Y-86156763D01*
X175506763Y-86245211D01*
X175437270Y-86349215D01*
X175389403Y-86464777D01*
X175365000Y-86587458D01*
X175365000Y-87214250D01*
X175523750Y-87373000D01*
X176873000Y-87373000D01*
X176873000Y-87353000D01*
X177127000Y-87353000D01*
X177127000Y-87373000D01*
X178476250Y-87373000D01*
X178635000Y-87214250D01*
X178635000Y-86587458D01*
X178610597Y-86464777D01*
X178562730Y-86349215D01*
X178493237Y-86245211D01*
X178404789Y-86156763D01*
X178300785Y-86087270D01*
X178209718Y-86049549D01*
X178390706Y-85829014D01*
X178528599Y-85571034D01*
X178613513Y-85291111D01*
X178642185Y-85000000D01*
X178613513Y-84708889D01*
X178528599Y-84428966D01*
X178390706Y-84170986D01*
X178205134Y-83944866D01*
X177979014Y-83759294D01*
X177721034Y-83621401D01*
X177441111Y-83536487D01*
X177222950Y-83515000D01*
X176777050Y-83515000D01*
X176558889Y-83536487D01*
X176278966Y-83621401D01*
X176020986Y-83759294D01*
X175794866Y-83944866D01*
X175609294Y-84170986D01*
X175471401Y-84428966D01*
X175386487Y-84708889D01*
X175357815Y-85000000D01*
X172251578Y-85000000D01*
X174366579Y-82885000D01*
X179633422Y-82885000D01*
X182343470Y-85595049D01*
X182371183Y-85628817D01*
X182404951Y-85656530D01*
X182404953Y-85656532D01*
X182505941Y-85739411D01*
X182659686Y-85821589D01*
X182826510Y-85872195D01*
X182956523Y-85885000D01*
X182956531Y-85885000D01*
X183000000Y-85889281D01*
X183043469Y-85885000D01*
X183655241Y-85885000D01*
X183790282Y-86049549D01*
X183699215Y-86087270D01*
X183595211Y-86156763D01*
X183506763Y-86245211D01*
X183437270Y-86349215D01*
X183389403Y-86464777D01*
X183365000Y-86587458D01*
X183365000Y-87214250D01*
X183523750Y-87373000D01*
X184873000Y-87373000D01*
X184873000Y-87353000D01*
X185127000Y-87353000D01*
X185127000Y-87373000D01*
X186476250Y-87373000D01*
X186635000Y-87214250D01*
X186635000Y-86587458D01*
X186610597Y-86464777D01*
X186562730Y-86349215D01*
X186493237Y-86245211D01*
X186404789Y-86156763D01*
X186300785Y-86087270D01*
X186209718Y-86049549D01*
X186390706Y-85829014D01*
X186528599Y-85571034D01*
X186613513Y-85291111D01*
X186642185Y-85000000D01*
X186613513Y-84708889D01*
X186528599Y-84428966D01*
X186390706Y-84170986D01*
X186205134Y-83944866D01*
X185979014Y-83759294D01*
X185721034Y-83621401D01*
X185441111Y-83536487D01*
X185222950Y-83515000D01*
X184777050Y-83515000D01*
X184558889Y-83536487D01*
X184278966Y-83621401D01*
X184020986Y-83759294D01*
X183794866Y-83944866D01*
X183655241Y-84115000D01*
X183366579Y-84115000D01*
X180656534Y-81404956D01*
X180628817Y-81371183D01*
X180494059Y-81260589D01*
X180340313Y-81178411D01*
X180173490Y-81127805D01*
X180043477Y-81115000D01*
X180043469Y-81115000D01*
X180000000Y-81110719D01*
X179956531Y-81115000D01*
X174043469Y-81115000D01*
X174000000Y-81110719D01*
X173956531Y-81115000D01*
X173956523Y-81115000D01*
X173826510Y-81127805D01*
X173659686Y-81178411D01*
X173505941Y-81260589D01*
X173404953Y-81343468D01*
X173404951Y-81343470D01*
X173371183Y-81371183D01*
X173343470Y-81404951D01*
X170633422Y-84115000D01*
X170344759Y-84115000D01*
X170205134Y-83944866D01*
X169979014Y-83759294D01*
X169721034Y-83621401D01*
X169441111Y-83536487D01*
X169222950Y-83515000D01*
X168777050Y-83515000D01*
X168558889Y-83536487D01*
X168278966Y-83621401D01*
X168020986Y-83759294D01*
X167794866Y-83944866D01*
X167609294Y-84170986D01*
X167471401Y-84428966D01*
X167386487Y-84708889D01*
X167357815Y-85000000D01*
X165660000Y-85000000D01*
X165660000Y-72082245D01*
X166006654Y-72428899D01*
X166518810Y-72771111D01*
X167087888Y-73006831D01*
X167692017Y-73127000D01*
X168307983Y-73127000D01*
X168912112Y-73006831D01*
X169481190Y-72771111D01*
X169993346Y-72428899D01*
X170428899Y-71993346D01*
X170771111Y-71481190D01*
X171006831Y-70912112D01*
X171127000Y-70307983D01*
X171127000Y-69692017D01*
X171006831Y-69087888D01*
X170771111Y-68518810D01*
X170428899Y-68006654D01*
X169993346Y-67571101D01*
X169481190Y-67228889D01*
X168912112Y-66993169D01*
X168307983Y-66873000D01*
X167692017Y-66873000D01*
X167087888Y-66993169D01*
X166518810Y-67228889D01*
X166006654Y-67571101D01*
X165660000Y-67917755D01*
X165660000Y-60025413D01*
X168474192Y-60025413D01*
X168569956Y-60289814D01*
X168859571Y-60430704D01*
X169171108Y-60512384D01*
X169492595Y-60531718D01*
X169811675Y-60487961D01*
X170116088Y-60382795D01*
X170290044Y-60289814D01*
X170385808Y-60025413D01*
X169430000Y-59069605D01*
X168474192Y-60025413D01*
X165660000Y-60025413D01*
X165660000Y-58952595D01*
X167788282Y-58952595D01*
X167832039Y-59271675D01*
X167937205Y-59576088D01*
X168030186Y-59750044D01*
X168294587Y-59845808D01*
X169250395Y-58890000D01*
X169609605Y-58890000D01*
X170565413Y-59845808D01*
X170829814Y-59750044D01*
X170970704Y-59460429D01*
X171052384Y-59148892D01*
X171071718Y-58827405D01*
X171027961Y-58508325D01*
X170922795Y-58203912D01*
X170829814Y-58029956D01*
X170565413Y-57934192D01*
X169609605Y-58890000D01*
X169250395Y-58890000D01*
X168294587Y-57934192D01*
X168030186Y-58029956D01*
X167889296Y-58319571D01*
X167807616Y-58631108D01*
X167788282Y-58952595D01*
X165660000Y-58952595D01*
X165660000Y-53032279D01*
X165707670Y-52546107D01*
X165839489Y-52109502D01*
X166053600Y-51706815D01*
X166341848Y-51353388D01*
X166693261Y-51062673D01*
X167094439Y-50845758D01*
X167530113Y-50710894D01*
X168014344Y-50660000D01*
X186967721Y-50660000D01*
X187453893Y-50707670D01*
X187453893Y-50707670D01*
G37*
X187453893Y-50707670D02*
X187890498Y-50839489D01*
X188293185Y-51053600D01*
X188646612Y-51341848D01*
X188937327Y-51693261D01*
X189154242Y-52094439D01*
X189289106Y-52530113D01*
X189340000Y-53014344D01*
X189340000Y-67917755D01*
X188993346Y-67571101D01*
X188481190Y-67228889D01*
X187912112Y-66993169D01*
X187307983Y-66873000D01*
X186692017Y-66873000D01*
X186087888Y-66993169D01*
X185518810Y-67228889D01*
X185006654Y-67571101D01*
X184571101Y-68006654D01*
X184228889Y-68518810D01*
X183993169Y-69087888D01*
X183873000Y-69692017D01*
X183873000Y-70176248D01*
X183839502Y-70065820D01*
X183780537Y-69955506D01*
X183701185Y-69858815D01*
X183604494Y-69779463D01*
X183494180Y-69720498D01*
X183374482Y-69684188D01*
X183250000Y-69671928D01*
X181750000Y-69671928D01*
X181625518Y-69684188D01*
X181505820Y-69720498D01*
X181395506Y-69779463D01*
X181298815Y-69858815D01*
X181256809Y-69910000D01*
X181243191Y-69910000D01*
X181201185Y-69858815D01*
X181104494Y-69779463D01*
X180994180Y-69720498D01*
X180885000Y-69687379D01*
X180885000Y-64293466D01*
X180889281Y-64249999D01*
X180885000Y-64206533D01*
X180885000Y-64206523D01*
X180872195Y-64076510D01*
X180821589Y-63909687D01*
X180739411Y-63755941D01*
X180628817Y-63621183D01*
X180595050Y-63593471D01*
X177935000Y-60933422D01*
X177935000Y-60853685D01*
X178065000Y-60723685D01*
X178197114Y-60855799D01*
X178423957Y-61007371D01*
X178676011Y-61111775D01*
X178943589Y-61165000D01*
X179216411Y-61165000D01*
X179483989Y-61111775D01*
X179736043Y-61007371D01*
X179962886Y-60855799D01*
X180095000Y-60723685D01*
X180227114Y-60855799D01*
X180453957Y-61007371D01*
X180706011Y-61111775D01*
X180973589Y-61165000D01*
X181246411Y-61165000D01*
X181513989Y-61111775D01*
X181766043Y-61007371D01*
X181992886Y-60855799D01*
X182185799Y-60662886D01*
X182337371Y-60436043D01*
X182441775Y-60183989D01*
X182473317Y-60025413D01*
X184724192Y-60025413D01*
X184819956Y-60289814D01*
X185109571Y-60430704D01*
X185421108Y-60512384D01*
X185742595Y-60531718D01*
X186061675Y-60487961D01*
X186366088Y-60382795D01*
X186540044Y-60289814D01*
X186635808Y-60025413D01*
X185680000Y-59069605D01*
X184724192Y-60025413D01*
X182473317Y-60025413D01*
X182495000Y-59916411D01*
X182495000Y-59643589D01*
X182441775Y-59376011D01*
X182337371Y-59123957D01*
X182222871Y-58952595D01*
X184038282Y-58952595D01*
X184082039Y-59271675D01*
X184187205Y-59576088D01*
X184280186Y-59750044D01*
X184544587Y-59845808D01*
X185500395Y-58890000D01*
X185859605Y-58890000D01*
X186815413Y-59845808D01*
X187079814Y-59750044D01*
X187220704Y-59460429D01*
X187302384Y-59148892D01*
X187321718Y-58827405D01*
X187277961Y-58508325D01*
X187172795Y-58203912D01*
X187079814Y-58029956D01*
X186815413Y-57934192D01*
X185859605Y-58890000D01*
X185500395Y-58890000D01*
X184544587Y-57934192D01*
X184280186Y-58029956D01*
X184139296Y-58319571D01*
X184057616Y-58631108D01*
X184038282Y-58952595D01*
X182222871Y-58952595D01*
X182185799Y-58897114D01*
X181992886Y-58704201D01*
X181766043Y-58552629D01*
X181513989Y-58448225D01*
X181421105Y-58429749D01*
X181431775Y-58403989D01*
X181485000Y-58136411D01*
X181485000Y-57863589D01*
X181431775Y-57596011D01*
X181327371Y-57343957D01*
X181175799Y-57117114D01*
X180982886Y-56924201D01*
X180756043Y-56772629D01*
X180503989Y-56668225D01*
X180236411Y-56615000D01*
X179963589Y-56615000D01*
X179696011Y-56668225D01*
X179443957Y-56772629D01*
X179217114Y-56924201D01*
X179080000Y-57061315D01*
X178942886Y-56924201D01*
X178716043Y-56772629D01*
X178463989Y-56668225D01*
X178196411Y-56615000D01*
X177923589Y-56615000D01*
X177656011Y-56668225D01*
X177403957Y-56772629D01*
X177177114Y-56924201D01*
X177045000Y-57056315D01*
X176912886Y-56924201D01*
X176686043Y-56772629D01*
X176433989Y-56668225D01*
X176166411Y-56615000D01*
X176116579Y-56615000D01*
X175406534Y-55904956D01*
X175378817Y-55871183D01*
X175244059Y-55760589D01*
X175090313Y-55678411D01*
X174923490Y-55627805D01*
X174793477Y-55615000D01*
X174793469Y-55615000D01*
X174750000Y-55610719D01*
X174706531Y-55615000D01*
X173495000Y-55615000D01*
X173495000Y-55234947D01*
X181625000Y-55234947D01*
X181625000Y-55685053D01*
X181712811Y-56126510D01*
X181885059Y-56542353D01*
X182135125Y-56916603D01*
X182453397Y-57234875D01*
X182827647Y-57484941D01*
X183243490Y-57657189D01*
X183684947Y-57745000D01*
X184135053Y-57745000D01*
X184576510Y-57657189D01*
X184791762Y-57568029D01*
X184724192Y-57754587D01*
X185680000Y-58710395D01*
X186635808Y-57754587D01*
X186540044Y-57490186D01*
X186250429Y-57349296D01*
X185938892Y-57267616D01*
X185617405Y-57248282D01*
X185298325Y-57292039D01*
X185262559Y-57304395D01*
X185366603Y-57234875D01*
X185684875Y-56916603D01*
X185934941Y-56542353D01*
X186107189Y-56126510D01*
X186195000Y-55685053D01*
X186195000Y-55234947D01*
X186107189Y-54793490D01*
X185934941Y-54377647D01*
X185684875Y-54003397D01*
X185366603Y-53685125D01*
X184992353Y-53435059D01*
X184576510Y-53262811D01*
X184135053Y-53175000D01*
X183684947Y-53175000D01*
X183243490Y-53262811D01*
X182827647Y-53435059D01*
X182453397Y-53685125D01*
X182135125Y-54003397D01*
X181885059Y-54377647D01*
X181712811Y-54793490D01*
X181625000Y-55234947D01*
X173495000Y-55234947D01*
X173407189Y-54793490D01*
X173234941Y-54377647D01*
X172984875Y-54003397D01*
X172666603Y-53685125D01*
X172292353Y-53435059D01*
X171876510Y-53262811D01*
X171435053Y-53175000D01*
X170984947Y-53175000D01*
X170543490Y-53262811D01*
X170127647Y-53435059D01*
X169753397Y-53685125D01*
X169435125Y-54003397D01*
X169185059Y-54377647D01*
X169012811Y-54793490D01*
X168925000Y-55234947D01*
X168925000Y-55685053D01*
X169012811Y-56126510D01*
X169185059Y-56542353D01*
X169435125Y-56916603D01*
X169753397Y-57234875D01*
X169875697Y-57316593D01*
X169688892Y-57267616D01*
X169367405Y-57248282D01*
X169048325Y-57292039D01*
X168743912Y-57397205D01*
X168569956Y-57490186D01*
X168474192Y-57754587D01*
X169430000Y-58710395D01*
X170385808Y-57754587D01*
X170316473Y-57563155D01*
X170543490Y-57657189D01*
X170984947Y-57745000D01*
X171365001Y-57745000D01*
X171365000Y-72383421D01*
X168404951Y-75343471D01*
X168371184Y-75371183D01*
X168343471Y-75404951D01*
X168343468Y-75404954D01*
X168260590Y-75505941D01*
X168178412Y-75659687D01*
X168127805Y-75826510D01*
X168110719Y-76000000D01*
X168115001Y-76043479D01*
X168115001Y-76680241D01*
X167944866Y-76819866D01*
X167759294Y-77045986D01*
X167621401Y-77303966D01*
X167536487Y-77583889D01*
X167515000Y-77802050D01*
X167515000Y-78197949D01*
X167536487Y-78416110D01*
X167621401Y-78696033D01*
X167759294Y-78954013D01*
X167944866Y-79180134D01*
X168170986Y-79365706D01*
X168428966Y-79503599D01*
X168708889Y-79588513D01*
X169000000Y-79617185D01*
X169291110Y-79588513D01*
X169571033Y-79503599D01*
X169829013Y-79365706D01*
X170055134Y-79180134D01*
X170240706Y-78954014D01*
X170250000Y-78936626D01*
X170259294Y-78954013D01*
X170444866Y-79180134D01*
X170670986Y-79365706D01*
X170928966Y-79503599D01*
X171208889Y-79588513D01*
X171500000Y-79617185D01*
X171791110Y-79588513D01*
X172071033Y-79503599D01*
X172329013Y-79365706D01*
X172549549Y-79184718D01*
X172587270Y-79275785D01*
X172656763Y-79379789D01*
X172745211Y-79468237D01*
X172849215Y-79537730D01*
X172964777Y-79585597D01*
X173087458Y-79610000D01*
X173714250Y-79610000D01*
X173873000Y-79451250D01*
X173873000Y-78127000D01*
X174127000Y-78127000D01*
X174127000Y-79451250D01*
X174285750Y-79610000D01*
X174912542Y-79610000D01*
X175035223Y-79585597D01*
X175150785Y-79537730D01*
X175254789Y-79468237D01*
X175343237Y-79379789D01*
X175412730Y-79275785D01*
X175460597Y-79160223D01*
X175485000Y-79037542D01*
X175485000Y-78285750D01*
X175326250Y-78127000D01*
X174127000Y-78127000D01*
X173873000Y-78127000D01*
X173853000Y-78127000D01*
X173853000Y-77873000D01*
X173873000Y-77873000D01*
X173873000Y-76548750D01*
X174127000Y-76548750D01*
X174127000Y-77873000D01*
X175326250Y-77873000D01*
X175485000Y-77714250D01*
X175485000Y-76962458D01*
X175460597Y-76839777D01*
X175412730Y-76724215D01*
X175343237Y-76620211D01*
X175254789Y-76531763D01*
X175150785Y-76462270D01*
X175035223Y-76414403D01*
X174912542Y-76390000D01*
X174285750Y-76390000D01*
X174127000Y-76548750D01*
X173873000Y-76548750D01*
X173714250Y-76390000D01*
X173087458Y-76390000D01*
X172964777Y-76414403D01*
X172849215Y-76462270D01*
X172745211Y-76531763D01*
X172656763Y-76620211D01*
X172587270Y-76724215D01*
X172549549Y-76815282D01*
X172385000Y-76680241D01*
X172385000Y-75366578D01*
X173845050Y-73906529D01*
X173878817Y-73878817D01*
X173930525Y-73815812D01*
X173989411Y-73744059D01*
X174001984Y-73720537D01*
X174071589Y-73590313D01*
X174122195Y-73423490D01*
X174135000Y-73293477D01*
X174135000Y-73293469D01*
X174139281Y-73250000D01*
X174135000Y-73206531D01*
X174135000Y-61916578D01*
X174886579Y-61165000D01*
X175156411Y-61165000D01*
X175423989Y-61111775D01*
X175676043Y-61007371D01*
X175902886Y-60855799D01*
X176035000Y-60723685D01*
X176165001Y-60853686D01*
X176165001Y-61256521D01*
X176160719Y-61300000D01*
X176177805Y-61473490D01*
X176228412Y-61640313D01*
X176310590Y-61794059D01*
X176393468Y-61895046D01*
X176393471Y-61895049D01*
X176421184Y-61928817D01*
X176454951Y-61956529D01*
X179115000Y-64616579D01*
X179115001Y-69687378D01*
X179005820Y-69720498D01*
X178895506Y-69779463D01*
X178798815Y-69858815D01*
X178750000Y-69918296D01*
X178701185Y-69858815D01*
X178604494Y-69779463D01*
X178494180Y-69720498D01*
X178374482Y-69684188D01*
X178250000Y-69671928D01*
X176750000Y-69671928D01*
X176625518Y-69684188D01*
X176505820Y-69720498D01*
X176395506Y-69779463D01*
X176298815Y-69858815D01*
X176256809Y-69910000D01*
X176248465Y-69910000D01*
X176204999Y-69905719D01*
X176161533Y-69910000D01*
X176161523Y-69910000D01*
X176031510Y-69922805D01*
X175864687Y-69973411D01*
X175710941Y-70055589D01*
X175576183Y-70166183D01*
X175548466Y-70199956D01*
X175504957Y-70243465D01*
X175448102Y-70254774D01*
X175259744Y-70332795D01*
X175090226Y-70446063D01*
X174946063Y-70590226D01*
X174832795Y-70759744D01*
X174754774Y-70948102D01*
X174715000Y-71148061D01*
X174715000Y-71351939D01*
X174754774Y-71551898D01*
X174832795Y-71740256D01*
X174839306Y-71750000D01*
X174832795Y-71759744D01*
X174754774Y-71948102D01*
X174715000Y-72148061D01*
X174715000Y-72351939D01*
X174754774Y-72551898D01*
X174832795Y-72740256D01*
X174839306Y-72750000D01*
X174832795Y-72759744D01*
X174754774Y-72948102D01*
X174715000Y-73148061D01*
X174715000Y-73351939D01*
X174754774Y-73551898D01*
X174832795Y-73740256D01*
X174865000Y-73788454D01*
X174865000Y-74056531D01*
X174860719Y-74100000D01*
X174865000Y-74143469D01*
X174865000Y-74143476D01*
X174877805Y-74273489D01*
X174928411Y-74440312D01*
X175010589Y-74594058D01*
X175121183Y-74728817D01*
X175154956Y-74756534D01*
X175668466Y-75270044D01*
X175696183Y-75303817D01*
X175830941Y-75414411D01*
X175984687Y-75496589D01*
X176151510Y-75547195D01*
X176281523Y-75560000D01*
X176281531Y-75560000D01*
X176325000Y-75564281D01*
X176368469Y-75560000D01*
X178783422Y-75560000D01*
X179998924Y-76775502D01*
X179944866Y-76819866D01*
X179759294Y-77045986D01*
X179621401Y-77303966D01*
X179536487Y-77583889D01*
X179515000Y-77802050D01*
X179515000Y-78197949D01*
X179536487Y-78416110D01*
X179621401Y-78696033D01*
X179759294Y-78954013D01*
X179944866Y-79180134D01*
X180170986Y-79365706D01*
X180428966Y-79503599D01*
X180708889Y-79588513D01*
X181000000Y-79617185D01*
X181291110Y-79588513D01*
X181571033Y-79503599D01*
X181829013Y-79365706D01*
X182055134Y-79180134D01*
X182240706Y-78954014D01*
X182250000Y-78936626D01*
X182259294Y-78954013D01*
X182444866Y-79180134D01*
X182670986Y-79365706D01*
X182928966Y-79503599D01*
X183208889Y-79588513D01*
X183500000Y-79617185D01*
X183791110Y-79588513D01*
X184071033Y-79503599D01*
X184329013Y-79365706D01*
X184549549Y-79184718D01*
X184587270Y-79275785D01*
X184656763Y-79379789D01*
X184745211Y-79468237D01*
X184849215Y-79537730D01*
X184964777Y-79585597D01*
X185087458Y-79610000D01*
X185714250Y-79610000D01*
X185873000Y-79451250D01*
X185873000Y-78127000D01*
X186127000Y-78127000D01*
X186127000Y-79451250D01*
X186285750Y-79610000D01*
X186912542Y-79610000D01*
X187035223Y-79585597D01*
X187150785Y-79537730D01*
X187254789Y-79468237D01*
X187343237Y-79379789D01*
X187412730Y-79275785D01*
X187460597Y-79160223D01*
X187485000Y-79037542D01*
X187485000Y-78285750D01*
X187326250Y-78127000D01*
X186127000Y-78127000D01*
X185873000Y-78127000D01*
X185853000Y-78127000D01*
X185853000Y-77873000D01*
X185873000Y-77873000D01*
X185873000Y-76548750D01*
X186127000Y-76548750D01*
X186127000Y-77873000D01*
X187326250Y-77873000D01*
X187485000Y-77714250D01*
X187485000Y-76962458D01*
X187460597Y-76839777D01*
X187412730Y-76724215D01*
X187343237Y-76620211D01*
X187254789Y-76531763D01*
X187150785Y-76462270D01*
X187035223Y-76414403D01*
X186912542Y-76390000D01*
X186285750Y-76390000D01*
X186127000Y-76548750D01*
X185873000Y-76548750D01*
X185714250Y-76390000D01*
X185087458Y-76390000D01*
X184964777Y-76414403D01*
X184849215Y-76462270D01*
X184745211Y-76531763D01*
X184656763Y-76620211D01*
X184587270Y-76724215D01*
X184549549Y-76815282D01*
X184385000Y-76680241D01*
X184385000Y-76568469D01*
X184389281Y-76525000D01*
X184385000Y-76481531D01*
X184385000Y-76481523D01*
X184372195Y-76351510D01*
X184321589Y-76184687D01*
X184239411Y-76030941D01*
X184214018Y-76000000D01*
X184156532Y-75929953D01*
X184156530Y-75929951D01*
X184128817Y-75896183D01*
X184095049Y-75868470D01*
X183131534Y-74904956D01*
X183103817Y-74871183D01*
X182969059Y-74760589D01*
X182815313Y-74678411D01*
X182648490Y-74627805D01*
X182518477Y-74615000D01*
X182518469Y-74615000D01*
X182475000Y-74610719D01*
X182431531Y-74615000D01*
X181616579Y-74615000D01*
X180885000Y-73883422D01*
X180885000Y-73812621D01*
X180994180Y-73779502D01*
X181104494Y-73720537D01*
X181201185Y-73641185D01*
X181248908Y-73583034D01*
X181256763Y-73594789D01*
X181345211Y-73683237D01*
X181449215Y-73752730D01*
X181564777Y-73800597D01*
X181687458Y-73825000D01*
X182214250Y-73825000D01*
X182373000Y-73666250D01*
X182373000Y-72832000D01*
X182627000Y-72832000D01*
X182627000Y-73666250D01*
X182785750Y-73825000D01*
X183312542Y-73825000D01*
X183435223Y-73800597D01*
X183550785Y-73752730D01*
X183654789Y-73683237D01*
X183743237Y-73594789D01*
X183812730Y-73490785D01*
X183860597Y-73375223D01*
X183885000Y-73252542D01*
X183885000Y-72990750D01*
X183726250Y-72832000D01*
X182627000Y-72832000D01*
X182373000Y-72832000D01*
X182353000Y-72832000D01*
X182353000Y-72578000D01*
X182373000Y-72578000D01*
X182373000Y-72558000D01*
X182627000Y-72558000D01*
X182627000Y-72578000D01*
X183726250Y-72578000D01*
X183885000Y-72419250D01*
X183885000Y-72157458D01*
X183860597Y-72034777D01*
X183812730Y-71919215D01*
X183743237Y-71815211D01*
X183678131Y-71750105D01*
X183701185Y-71731185D01*
X183780537Y-71634494D01*
X183839502Y-71524180D01*
X183875812Y-71404482D01*
X183888072Y-71280000D01*
X183888072Y-70383755D01*
X183993169Y-70912112D01*
X184228889Y-71481190D01*
X184571101Y-71993346D01*
X185006654Y-72428899D01*
X185518810Y-72771111D01*
X186087888Y-73006831D01*
X186692017Y-73127000D01*
X187307983Y-73127000D01*
X187912112Y-73006831D01*
X188481190Y-72771111D01*
X188993346Y-72428899D01*
X189340000Y-72082245D01*
X189340001Y-94917756D01*
X188993346Y-94571101D01*
X188481190Y-94228889D01*
X187912112Y-93993169D01*
X187307983Y-93873000D01*
X186692017Y-93873000D01*
X186087888Y-93993169D01*
X185518810Y-94228889D01*
X185006654Y-94571101D01*
X184571101Y-95006654D01*
X184228889Y-95518810D01*
X183993169Y-96087888D01*
X183873000Y-96692017D01*
X183873000Y-97307983D01*
X183993169Y-97912112D01*
X184228889Y-98481190D01*
X184571101Y-98993346D01*
X184917755Y-99340000D01*
X170082245Y-99340000D01*
X170428899Y-98993346D01*
X170771111Y-98481190D01*
X171006831Y-97912112D01*
X171127000Y-97307983D01*
X171127000Y-96692017D01*
X171006831Y-96087888D01*
X170878078Y-95777050D01*
X175015000Y-95777050D01*
X175015000Y-96222949D01*
X175036487Y-96441110D01*
X175121401Y-96721033D01*
X175259294Y-96979013D01*
X175444866Y-97205134D01*
X175670986Y-97390706D01*
X175928966Y-97528599D01*
X176208889Y-97613513D01*
X176500000Y-97642185D01*
X176791110Y-97613513D01*
X177071033Y-97528599D01*
X177329013Y-97390706D01*
X177549549Y-97209718D01*
X177587270Y-97300785D01*
X177656763Y-97404789D01*
X177745211Y-97493237D01*
X177849215Y-97562730D01*
X177964777Y-97610597D01*
X178087458Y-97635000D01*
X178714250Y-97635000D01*
X178873000Y-97476250D01*
X178873000Y-96127000D01*
X179127000Y-96127000D01*
X179127000Y-97476250D01*
X179285750Y-97635000D01*
X179912542Y-97635000D01*
X180035223Y-97610597D01*
X180150785Y-97562730D01*
X180254789Y-97493237D01*
X180343237Y-97404789D01*
X180412730Y-97300785D01*
X180460597Y-97185223D01*
X180485000Y-97062542D01*
X180485000Y-96285750D01*
X180326250Y-96127000D01*
X179127000Y-96127000D01*
X178873000Y-96127000D01*
X178853000Y-96127000D01*
X178853000Y-95873000D01*
X178873000Y-95873000D01*
X178873000Y-94523750D01*
X179127000Y-94523750D01*
X179127000Y-95873000D01*
X180326250Y-95873000D01*
X180485000Y-95714250D01*
X180485000Y-94937458D01*
X180460597Y-94814777D01*
X180412730Y-94699215D01*
X180343237Y-94595211D01*
X180254789Y-94506763D01*
X180150785Y-94437270D01*
X180035223Y-94389403D01*
X179912542Y-94365000D01*
X179285750Y-94365000D01*
X179127000Y-94523750D01*
X178873000Y-94523750D01*
X178714250Y-94365000D01*
X178087458Y-94365000D01*
X177964777Y-94389403D01*
X177849215Y-94437270D01*
X177745211Y-94506763D01*
X177656763Y-94595211D01*
X177587270Y-94699215D01*
X177549549Y-94790282D01*
X177329014Y-94609294D01*
X177071034Y-94471401D01*
X176791111Y-94386487D01*
X176500000Y-94357815D01*
X176208890Y-94386487D01*
X175928967Y-94471401D01*
X175670987Y-94609294D01*
X175444866Y-94794866D01*
X175259294Y-95020986D01*
X175121401Y-95278966D01*
X175036487Y-95558889D01*
X175015000Y-95777050D01*
X170878078Y-95777050D01*
X170771111Y-95518810D01*
X170428899Y-95006654D01*
X169993346Y-94571101D01*
X169481190Y-94228889D01*
X168912112Y-93993169D01*
X168307983Y-93873000D01*
X167692017Y-93873000D01*
X167087888Y-93993169D01*
X166518810Y-94228889D01*
X166006654Y-94571101D01*
X165660000Y-94917755D01*
X165660000Y-87785750D01*
X167365000Y-87785750D01*
X167365000Y-88412542D01*
X167389403Y-88535223D01*
X167437270Y-88650785D01*
X167506763Y-88754789D01*
X167595211Y-88843237D01*
X167699215Y-88912730D01*
X167814777Y-88960597D01*
X167937458Y-88985000D01*
X168714250Y-88985000D01*
X168873000Y-88826250D01*
X168873000Y-87627000D01*
X169127000Y-87627000D01*
X169127000Y-88826250D01*
X169285750Y-88985000D01*
X170062542Y-88985000D01*
X170185223Y-88960597D01*
X170300785Y-88912730D01*
X170404789Y-88843237D01*
X170493237Y-88754789D01*
X170562730Y-88650785D01*
X170610597Y-88535223D01*
X170635000Y-88412542D01*
X170635000Y-87785750D01*
X175365000Y-87785750D01*
X175365000Y-88412542D01*
X175389403Y-88535223D01*
X175437270Y-88650785D01*
X175506763Y-88754789D01*
X175595211Y-88843237D01*
X175699215Y-88912730D01*
X175814777Y-88960597D01*
X175937458Y-88985000D01*
X176714250Y-88985000D01*
X176873000Y-88826250D01*
X176873000Y-87627000D01*
X177127000Y-87627000D01*
X177127000Y-88826250D01*
X177285750Y-88985000D01*
X178062542Y-88985000D01*
X178185223Y-88960597D01*
X178300785Y-88912730D01*
X178404789Y-88843237D01*
X178493237Y-88754789D01*
X178562730Y-88650785D01*
X178610597Y-88535223D01*
X178635000Y-88412542D01*
X178635000Y-87785750D01*
X183365000Y-87785750D01*
X183365000Y-88412542D01*
X183389403Y-88535223D01*
X183437270Y-88650785D01*
X183506763Y-88754789D01*
X183595211Y-88843237D01*
X183699215Y-88912730D01*
X183814777Y-88960597D01*
X183937458Y-88985000D01*
X184714250Y-88985000D01*
X184873000Y-88826250D01*
X184873000Y-87627000D01*
X185127000Y-87627000D01*
X185127000Y-88826250D01*
X185285750Y-88985000D01*
X186062542Y-88985000D01*
X186185223Y-88960597D01*
X186300785Y-88912730D01*
X186404789Y-88843237D01*
X186493237Y-88754789D01*
X186562730Y-88650785D01*
X186610597Y-88535223D01*
X186635000Y-88412542D01*
X186635000Y-87785750D01*
X186476250Y-87627000D01*
X185127000Y-87627000D01*
X184873000Y-87627000D01*
X183523750Y-87627000D01*
X183365000Y-87785750D01*
X178635000Y-87785750D01*
X178476250Y-87627000D01*
X177127000Y-87627000D01*
X176873000Y-87627000D01*
X175523750Y-87627000D01*
X175365000Y-87785750D01*
X170635000Y-87785750D01*
X170476250Y-87627000D01*
X169127000Y-87627000D01*
X168873000Y-87627000D01*
X167523750Y-87627000D01*
X167365000Y-87785750D01*
X165660000Y-87785750D01*
X165660000Y-85000000D01*
X167357815Y-85000000D01*
X167386487Y-85291111D01*
X167471401Y-85571034D01*
X167609294Y-85829014D01*
X167790282Y-86049549D01*
X167699215Y-86087270D01*
X167595211Y-86156763D01*
X167506763Y-86245211D01*
X167437270Y-86349215D01*
X167389403Y-86464777D01*
X167365000Y-86587458D01*
X167365000Y-87214250D01*
X167523750Y-87373000D01*
X168873000Y-87373000D01*
X168873000Y-87353000D01*
X169127000Y-87353000D01*
X169127000Y-87373000D01*
X170476250Y-87373000D01*
X170635000Y-87214250D01*
X170635000Y-86587458D01*
X170610597Y-86464777D01*
X170562730Y-86349215D01*
X170493237Y-86245211D01*
X170404789Y-86156763D01*
X170300785Y-86087270D01*
X170209718Y-86049549D01*
X170344759Y-85885000D01*
X170956531Y-85885000D01*
X171000000Y-85889281D01*
X171043469Y-85885000D01*
X171043477Y-85885000D01*
X171173490Y-85872195D01*
X171340313Y-85821589D01*
X171494059Y-85739411D01*
X171628817Y-85628817D01*
X171656534Y-85595044D01*
X172251578Y-85000000D01*
X175357815Y-85000000D01*
X175386487Y-85291111D01*
X175471401Y-85571034D01*
X175609294Y-85829014D01*
X175790282Y-86049549D01*
X175699215Y-86087270D01*
X175595211Y-86156763D01*
X175506763Y-86245211D01*
X175437270Y-86349215D01*
X175389403Y-86464777D01*
X175365000Y-86587458D01*
X175365000Y-87214250D01*
X175523750Y-87373000D01*
X176873000Y-87373000D01*
X176873000Y-87353000D01*
X177127000Y-87353000D01*
X177127000Y-87373000D01*
X178476250Y-87373000D01*
X178635000Y-87214250D01*
X178635000Y-86587458D01*
X178610597Y-86464777D01*
X178562730Y-86349215D01*
X178493237Y-86245211D01*
X178404789Y-86156763D01*
X178300785Y-86087270D01*
X178209718Y-86049549D01*
X178390706Y-85829014D01*
X178528599Y-85571034D01*
X178613513Y-85291111D01*
X178642185Y-85000000D01*
X178613513Y-84708889D01*
X178528599Y-84428966D01*
X178390706Y-84170986D01*
X178205134Y-83944866D01*
X177979014Y-83759294D01*
X177721034Y-83621401D01*
X177441111Y-83536487D01*
X177222950Y-83515000D01*
X176777050Y-83515000D01*
X176558889Y-83536487D01*
X176278966Y-83621401D01*
X176020986Y-83759294D01*
X175794866Y-83944866D01*
X175609294Y-84170986D01*
X175471401Y-84428966D01*
X175386487Y-84708889D01*
X175357815Y-85000000D01*
X172251578Y-85000000D01*
X174366579Y-82885000D01*
X179633422Y-82885000D01*
X182343470Y-85595049D01*
X182371183Y-85628817D01*
X182404951Y-85656530D01*
X182404953Y-85656532D01*
X182505941Y-85739411D01*
X182659686Y-85821589D01*
X182826510Y-85872195D01*
X182956523Y-85885000D01*
X182956531Y-85885000D01*
X183000000Y-85889281D01*
X183043469Y-85885000D01*
X183655241Y-85885000D01*
X183790282Y-86049549D01*
X183699215Y-86087270D01*
X183595211Y-86156763D01*
X183506763Y-86245211D01*
X183437270Y-86349215D01*
X183389403Y-86464777D01*
X183365000Y-86587458D01*
X183365000Y-87214250D01*
X183523750Y-87373000D01*
X184873000Y-87373000D01*
X184873000Y-87353000D01*
X185127000Y-87353000D01*
X185127000Y-87373000D01*
X186476250Y-87373000D01*
X186635000Y-87214250D01*
X186635000Y-86587458D01*
X186610597Y-86464777D01*
X186562730Y-86349215D01*
X186493237Y-86245211D01*
X186404789Y-86156763D01*
X186300785Y-86087270D01*
X186209718Y-86049549D01*
X186390706Y-85829014D01*
X186528599Y-85571034D01*
X186613513Y-85291111D01*
X186642185Y-85000000D01*
X186613513Y-84708889D01*
X186528599Y-84428966D01*
X186390706Y-84170986D01*
X186205134Y-83944866D01*
X185979014Y-83759294D01*
X185721034Y-83621401D01*
X185441111Y-83536487D01*
X185222950Y-83515000D01*
X184777050Y-83515000D01*
X184558889Y-83536487D01*
X184278966Y-83621401D01*
X184020986Y-83759294D01*
X183794866Y-83944866D01*
X183655241Y-84115000D01*
X183366579Y-84115000D01*
X180656534Y-81404956D01*
X180628817Y-81371183D01*
X180494059Y-81260589D01*
X180340313Y-81178411D01*
X180173490Y-81127805D01*
X180043477Y-81115000D01*
X180043469Y-81115000D01*
X180000000Y-81110719D01*
X179956531Y-81115000D01*
X174043469Y-81115000D01*
X174000000Y-81110719D01*
X173956531Y-81115000D01*
X173956523Y-81115000D01*
X173826510Y-81127805D01*
X173659686Y-81178411D01*
X173505941Y-81260589D01*
X173404953Y-81343468D01*
X173404951Y-81343470D01*
X173371183Y-81371183D01*
X173343470Y-81404951D01*
X170633422Y-84115000D01*
X170344759Y-84115000D01*
X170205134Y-83944866D01*
X169979014Y-83759294D01*
X169721034Y-83621401D01*
X169441111Y-83536487D01*
X169222950Y-83515000D01*
X168777050Y-83515000D01*
X168558889Y-83536487D01*
X168278966Y-83621401D01*
X168020986Y-83759294D01*
X167794866Y-83944866D01*
X167609294Y-84170986D01*
X167471401Y-84428966D01*
X167386487Y-84708889D01*
X167357815Y-85000000D01*
X165660000Y-85000000D01*
X165660000Y-72082245D01*
X166006654Y-72428899D01*
X166518810Y-72771111D01*
X167087888Y-73006831D01*
X167692017Y-73127000D01*
X168307983Y-73127000D01*
X168912112Y-73006831D01*
X169481190Y-72771111D01*
X169993346Y-72428899D01*
X170428899Y-71993346D01*
X170771111Y-71481190D01*
X171006831Y-70912112D01*
X171127000Y-70307983D01*
X171127000Y-69692017D01*
X171006831Y-69087888D01*
X170771111Y-68518810D01*
X170428899Y-68006654D01*
X169993346Y-67571101D01*
X169481190Y-67228889D01*
X168912112Y-66993169D01*
X168307983Y-66873000D01*
X167692017Y-66873000D01*
X167087888Y-66993169D01*
X166518810Y-67228889D01*
X166006654Y-67571101D01*
X165660000Y-67917755D01*
X165660000Y-60025413D01*
X168474192Y-60025413D01*
X168569956Y-60289814D01*
X168859571Y-60430704D01*
X169171108Y-60512384D01*
X169492595Y-60531718D01*
X169811675Y-60487961D01*
X170116088Y-60382795D01*
X170290044Y-60289814D01*
X170385808Y-60025413D01*
X169430000Y-59069605D01*
X168474192Y-60025413D01*
X165660000Y-60025413D01*
X165660000Y-58952595D01*
X167788282Y-58952595D01*
X167832039Y-59271675D01*
X167937205Y-59576088D01*
X168030186Y-59750044D01*
X168294587Y-59845808D01*
X169250395Y-58890000D01*
X169609605Y-58890000D01*
X170565413Y-59845808D01*
X170829814Y-59750044D01*
X170970704Y-59460429D01*
X171052384Y-59148892D01*
X171071718Y-58827405D01*
X171027961Y-58508325D01*
X170922795Y-58203912D01*
X170829814Y-58029956D01*
X170565413Y-57934192D01*
X169609605Y-58890000D01*
X169250395Y-58890000D01*
X168294587Y-57934192D01*
X168030186Y-58029956D01*
X167889296Y-58319571D01*
X167807616Y-58631108D01*
X167788282Y-58952595D01*
X165660000Y-58952595D01*
X165660000Y-53032279D01*
X165707670Y-52546107D01*
X165839489Y-52109502D01*
X166053600Y-51706815D01*
X166341848Y-51353388D01*
X166693261Y-51062673D01*
X167094439Y-50845758D01*
X167530113Y-50710894D01*
X168014344Y-50660000D01*
X186967721Y-50660000D01*
X187453893Y-50707670D01*
G36*
X174681005Y-57682583D02*
G01*
X174645000Y-57863589D01*
X174645000Y-58136411D01*
X174698225Y-58403989D01*
X174708895Y-58429749D01*
X174616011Y-58448225D01*
X174363957Y-58552629D01*
X174137114Y-58704201D01*
X173944201Y-58897114D01*
X173792629Y-59123957D01*
X173688225Y-59376011D01*
X173635000Y-59643589D01*
X173635000Y-59913421D01*
X173135000Y-60413421D01*
X173135000Y-57894580D01*
X173644581Y-57385000D01*
X174383422Y-57385000D01*
X174681005Y-57682583D01*
X174681005Y-57682583D01*
G37*
X174681005Y-57682583D02*
X174645000Y-57863589D01*
X174645000Y-58136411D01*
X174698225Y-58403989D01*
X174708895Y-58429749D01*
X174616011Y-58448225D01*
X174363957Y-58552629D01*
X174137114Y-58704201D01*
X173944201Y-58897114D01*
X173792629Y-59123957D01*
X173688225Y-59376011D01*
X173635000Y-59643589D01*
X173635000Y-59913421D01*
X173135000Y-60413421D01*
X173135000Y-57894580D01*
X173644581Y-57385000D01*
X174383422Y-57385000D01*
X174681005Y-57682583D01*
M02*
