G04 #@! TF.GenerationSoftware,KiCad,Pcbnew,6.0.0-rc1-unknown-73a0cbf~66~ubuntu18.04.1*
G04 #@! TF.CreationDate,2019-02-12T22:26:01+01:00
G04 #@! TF.ProjectId,wcube-head-pcb,77637562-652d-4686-9561-642d7063622e,rev?*
G04 #@! TF.SameCoordinates,Original*
G04 #@! TF.FileFunction,Soldermask,Bot*
G04 #@! TF.FilePolarity,Negative*
%FSLAX46Y46*%
G04 Gerber Fmt 4.6, Leading zero omitted, Abs format (unit mm)*
G04 Created by KiCad (PCBNEW 6.0.0-rc1-unknown-73a0cbf~66~ubuntu18.04.1) date 2019-02-12 22:26:01*
%MOMM*%
%LPD*%
G04 APERTURE LIST*
%ADD10C,0.100000*%
G04 APERTURE END LIST*
D10*
G36*
X187681870Y-94076859D02*
G01*
X187875068Y-94115288D01*
X188421033Y-94341434D01*
X188668378Y-94506705D01*
X188912388Y-94669747D01*
X189330253Y-95087612D01*
X189336674Y-95097222D01*
X189608163Y-95503533D01*
X189658567Y-95578969D01*
X189724803Y-95738878D01*
X189884712Y-96124932D01*
X189898502Y-96194258D01*
X189958615Y-96496466D01*
X190000000Y-96704526D01*
X190000000Y-97295474D01*
X189884712Y-97875068D01*
X189658566Y-98421033D01*
X189330252Y-98912389D01*
X188912389Y-99330252D01*
X188421033Y-99658566D01*
X187875068Y-99884712D01*
X187681870Y-99923141D01*
X187295476Y-100000000D01*
X186704524Y-100000000D01*
X186318130Y-99923141D01*
X186124932Y-99884712D01*
X185578967Y-99658566D01*
X185087611Y-99330252D01*
X184669748Y-98912389D01*
X184341434Y-98421033D01*
X184115288Y-97875068D01*
X184000000Y-97295474D01*
X184000000Y-96704526D01*
X184041386Y-96496466D01*
X184101498Y-96194258D01*
X184115288Y-96124932D01*
X184275197Y-95738878D01*
X184341433Y-95578969D01*
X184391838Y-95503533D01*
X184663326Y-95097222D01*
X184669747Y-95087612D01*
X185087612Y-94669747D01*
X185331622Y-94506705D01*
X185578967Y-94341434D01*
X186124932Y-94115288D01*
X186318130Y-94076859D01*
X186704524Y-94000000D01*
X187295476Y-94000000D01*
X187681870Y-94076859D01*
X187681870Y-94076859D01*
G37*
G36*
X168681870Y-94076859D02*
G01*
X168875068Y-94115288D01*
X169421033Y-94341434D01*
X169668378Y-94506705D01*
X169912388Y-94669747D01*
X170330253Y-95087612D01*
X170336674Y-95097222D01*
X170608163Y-95503533D01*
X170658567Y-95578969D01*
X170724803Y-95738878D01*
X170884712Y-96124932D01*
X170898502Y-96194258D01*
X170958615Y-96496466D01*
X171000000Y-96704526D01*
X171000000Y-97295474D01*
X170884712Y-97875068D01*
X170658566Y-98421033D01*
X170330252Y-98912389D01*
X169912389Y-99330252D01*
X169421033Y-99658566D01*
X168875068Y-99884712D01*
X168681870Y-99923141D01*
X168295476Y-100000000D01*
X167704524Y-100000000D01*
X167318130Y-99923141D01*
X167124932Y-99884712D01*
X166578967Y-99658566D01*
X166087611Y-99330252D01*
X165669748Y-98912389D01*
X165341434Y-98421033D01*
X165115288Y-97875068D01*
X165000000Y-97295474D01*
X165000000Y-96704526D01*
X165041386Y-96496466D01*
X165101498Y-96194258D01*
X165115288Y-96124932D01*
X165275197Y-95738878D01*
X165341433Y-95578969D01*
X165391838Y-95503533D01*
X165663326Y-95097222D01*
X165669747Y-95087612D01*
X166087612Y-94669747D01*
X166331622Y-94506705D01*
X166578967Y-94341434D01*
X167124932Y-94115288D01*
X167318130Y-94076859D01*
X167704524Y-94000000D01*
X168295476Y-94000000D01*
X168681870Y-94076859D01*
X168681870Y-94076859D01*
G37*
G36*
X176676627Y-94962037D02*
G01*
X176846466Y-95013557D01*
X177002991Y-95097222D01*
X177038729Y-95126552D01*
X177140186Y-95209814D01*
X177223448Y-95311271D01*
X177252778Y-95347009D01*
X177336443Y-95503534D01*
X177387963Y-95673374D01*
X177401000Y-95805743D01*
X177401000Y-96194258D01*
X177387963Y-96326627D01*
X177336443Y-96496466D01*
X177252778Y-96652991D01*
X177223448Y-96688729D01*
X177140186Y-96790186D01*
X177002989Y-96902779D01*
X176846467Y-96986442D01*
X176846465Y-96986443D01*
X176676626Y-97037963D01*
X176500000Y-97055359D01*
X176323373Y-97037963D01*
X176153534Y-96986443D01*
X175997009Y-96902778D01*
X175961271Y-96873448D01*
X175859814Y-96790186D01*
X175747221Y-96652989D01*
X175663558Y-96496467D01*
X175663557Y-96496465D01*
X175612037Y-96326626D01*
X175599000Y-96194257D01*
X175599000Y-95805742D01*
X175612037Y-95673373D01*
X175663557Y-95503534D01*
X175747222Y-95347009D01*
X175859815Y-95209815D01*
X175997010Y-95097222D01*
X176153535Y-95013557D01*
X176323374Y-94962037D01*
X176500000Y-94944641D01*
X176676627Y-94962037D01*
X176676627Y-94962037D01*
G37*
G36*
X179901000Y-97051000D02*
G01*
X178099000Y-97051000D01*
X178099000Y-94949000D01*
X179901000Y-94949000D01*
X179901000Y-97051000D01*
X179901000Y-97051000D01*
G37*
G36*
X178051000Y-88401000D02*
G01*
X175949000Y-88401000D01*
X175949000Y-86599000D01*
X178051000Y-86599000D01*
X178051000Y-88401000D01*
X178051000Y-88401000D01*
G37*
G36*
X186051000Y-88401000D02*
G01*
X183949000Y-88401000D01*
X183949000Y-86599000D01*
X186051000Y-86599000D01*
X186051000Y-88401000D01*
X186051000Y-88401000D01*
G37*
G36*
X170051000Y-88401000D02*
G01*
X167949000Y-88401000D01*
X167949000Y-86599000D01*
X170051000Y-86599000D01*
X170051000Y-88401000D01*
X170051000Y-88401000D01*
G37*
G36*
X169260443Y-84105519D02*
G01*
X169326627Y-84112037D01*
X169496466Y-84163557D01*
X169652991Y-84247222D01*
X169688729Y-84276552D01*
X169790186Y-84359814D01*
X169873448Y-84461271D01*
X169902778Y-84497009D01*
X169986443Y-84653534D01*
X170037963Y-84823373D01*
X170055359Y-85000000D01*
X170037963Y-85176627D01*
X169986443Y-85346466D01*
X169902778Y-85502991D01*
X169873448Y-85538729D01*
X169790186Y-85640186D01*
X169688729Y-85723448D01*
X169652991Y-85752778D01*
X169496466Y-85836443D01*
X169326627Y-85887963D01*
X169260443Y-85894481D01*
X169194260Y-85901000D01*
X168805740Y-85901000D01*
X168739557Y-85894481D01*
X168673373Y-85887963D01*
X168503534Y-85836443D01*
X168347009Y-85752778D01*
X168311271Y-85723448D01*
X168209814Y-85640186D01*
X168126552Y-85538729D01*
X168097222Y-85502991D01*
X168013557Y-85346466D01*
X167962037Y-85176627D01*
X167944641Y-85000000D01*
X167962037Y-84823373D01*
X168013557Y-84653534D01*
X168097222Y-84497009D01*
X168126552Y-84461271D01*
X168209814Y-84359814D01*
X168311271Y-84276552D01*
X168347009Y-84247222D01*
X168503534Y-84163557D01*
X168673373Y-84112037D01*
X168739557Y-84105519D01*
X168805740Y-84099000D01*
X169194260Y-84099000D01*
X169260443Y-84105519D01*
X169260443Y-84105519D01*
G37*
G36*
X177260443Y-84105519D02*
G01*
X177326627Y-84112037D01*
X177496466Y-84163557D01*
X177652991Y-84247222D01*
X177688729Y-84276552D01*
X177790186Y-84359814D01*
X177873448Y-84461271D01*
X177902778Y-84497009D01*
X177986443Y-84653534D01*
X178037963Y-84823373D01*
X178055359Y-85000000D01*
X178037963Y-85176627D01*
X177986443Y-85346466D01*
X177902778Y-85502991D01*
X177873448Y-85538729D01*
X177790186Y-85640186D01*
X177688729Y-85723448D01*
X177652991Y-85752778D01*
X177496466Y-85836443D01*
X177326627Y-85887963D01*
X177260443Y-85894481D01*
X177194260Y-85901000D01*
X176805740Y-85901000D01*
X176739557Y-85894481D01*
X176673373Y-85887963D01*
X176503534Y-85836443D01*
X176347009Y-85752778D01*
X176311271Y-85723448D01*
X176209814Y-85640186D01*
X176126552Y-85538729D01*
X176097222Y-85502991D01*
X176013557Y-85346466D01*
X175962037Y-85176627D01*
X175944641Y-85000000D01*
X175962037Y-84823373D01*
X176013557Y-84653534D01*
X176097222Y-84497009D01*
X176126552Y-84461271D01*
X176209814Y-84359814D01*
X176311271Y-84276552D01*
X176347009Y-84247222D01*
X176503534Y-84163557D01*
X176673373Y-84112037D01*
X176739557Y-84105519D01*
X176805740Y-84099000D01*
X177194260Y-84099000D01*
X177260443Y-84105519D01*
X177260443Y-84105519D01*
G37*
G36*
X185260443Y-84105519D02*
G01*
X185326627Y-84112037D01*
X185496466Y-84163557D01*
X185652991Y-84247222D01*
X185688729Y-84276552D01*
X185790186Y-84359814D01*
X185873448Y-84461271D01*
X185902778Y-84497009D01*
X185986443Y-84653534D01*
X186037963Y-84823373D01*
X186055359Y-85000000D01*
X186037963Y-85176627D01*
X185986443Y-85346466D01*
X185902778Y-85502991D01*
X185873448Y-85538729D01*
X185790186Y-85640186D01*
X185688729Y-85723448D01*
X185652991Y-85752778D01*
X185496466Y-85836443D01*
X185326627Y-85887963D01*
X185260443Y-85894481D01*
X185194260Y-85901000D01*
X184805740Y-85901000D01*
X184739557Y-85894481D01*
X184673373Y-85887963D01*
X184503534Y-85836443D01*
X184347009Y-85752778D01*
X184311271Y-85723448D01*
X184209814Y-85640186D01*
X184126552Y-85538729D01*
X184097222Y-85502991D01*
X184013557Y-85346466D01*
X183962037Y-85176627D01*
X183944641Y-85000000D01*
X183962037Y-84823373D01*
X184013557Y-84653534D01*
X184097222Y-84497009D01*
X184126552Y-84461271D01*
X184209814Y-84359814D01*
X184311271Y-84276552D01*
X184347009Y-84247222D01*
X184503534Y-84163557D01*
X184673373Y-84112037D01*
X184739557Y-84105519D01*
X184805740Y-84099000D01*
X185194260Y-84099000D01*
X185260443Y-84105519D01*
X185260443Y-84105519D01*
G37*
G36*
X183676627Y-76987037D02*
G01*
X183846466Y-77038557D01*
X184002991Y-77122222D01*
X184038729Y-77151552D01*
X184140186Y-77234814D01*
X184223448Y-77336271D01*
X184252778Y-77372009D01*
X184336443Y-77528534D01*
X184387963Y-77698374D01*
X184401000Y-77830743D01*
X184401000Y-78169258D01*
X184387963Y-78301627D01*
X184336443Y-78471466D01*
X184252778Y-78627991D01*
X184223448Y-78663729D01*
X184140186Y-78765186D01*
X184002989Y-78877779D01*
X183846467Y-78961442D01*
X183846465Y-78961443D01*
X183676626Y-79012963D01*
X183500000Y-79030359D01*
X183323373Y-79012963D01*
X183153534Y-78961443D01*
X182997009Y-78877778D01*
X182961271Y-78848448D01*
X182859814Y-78765186D01*
X182747221Y-78627989D01*
X182663558Y-78471467D01*
X182663557Y-78471465D01*
X182612037Y-78301626D01*
X182599000Y-78169257D01*
X182599000Y-77830742D01*
X182612037Y-77698373D01*
X182663557Y-77528534D01*
X182747222Y-77372009D01*
X182859815Y-77234815D01*
X182997010Y-77122222D01*
X183153535Y-77038557D01*
X183323374Y-76987037D01*
X183500000Y-76969641D01*
X183676627Y-76987037D01*
X183676627Y-76987037D01*
G37*
G36*
X181176627Y-76987037D02*
G01*
X181346466Y-77038557D01*
X181502991Y-77122222D01*
X181538729Y-77151552D01*
X181640186Y-77234814D01*
X181723448Y-77336271D01*
X181752778Y-77372009D01*
X181836443Y-77528534D01*
X181887963Y-77698374D01*
X181901000Y-77830743D01*
X181901000Y-78169258D01*
X181887963Y-78301627D01*
X181836443Y-78471466D01*
X181752778Y-78627991D01*
X181723448Y-78663729D01*
X181640186Y-78765186D01*
X181502989Y-78877779D01*
X181346467Y-78961442D01*
X181346465Y-78961443D01*
X181176626Y-79012963D01*
X181000000Y-79030359D01*
X180823373Y-79012963D01*
X180653534Y-78961443D01*
X180497009Y-78877778D01*
X180461271Y-78848448D01*
X180359814Y-78765186D01*
X180247221Y-78627989D01*
X180163558Y-78471467D01*
X180163557Y-78471465D01*
X180112037Y-78301626D01*
X180099000Y-78169257D01*
X180099000Y-77830742D01*
X180112037Y-77698373D01*
X180163557Y-77528534D01*
X180247222Y-77372009D01*
X180359815Y-77234815D01*
X180497010Y-77122222D01*
X180653535Y-77038557D01*
X180823374Y-76987037D01*
X181000000Y-76969641D01*
X181176627Y-76987037D01*
X181176627Y-76987037D01*
G37*
G36*
X171676627Y-76987037D02*
G01*
X171846466Y-77038557D01*
X172002991Y-77122222D01*
X172038729Y-77151552D01*
X172140186Y-77234814D01*
X172223448Y-77336271D01*
X172252778Y-77372009D01*
X172336443Y-77528534D01*
X172387963Y-77698374D01*
X172401000Y-77830743D01*
X172401000Y-78169258D01*
X172387963Y-78301627D01*
X172336443Y-78471466D01*
X172252778Y-78627991D01*
X172223448Y-78663729D01*
X172140186Y-78765186D01*
X172002989Y-78877779D01*
X171846467Y-78961442D01*
X171846465Y-78961443D01*
X171676626Y-79012963D01*
X171500000Y-79030359D01*
X171323373Y-79012963D01*
X171153534Y-78961443D01*
X170997009Y-78877778D01*
X170961271Y-78848448D01*
X170859814Y-78765186D01*
X170747221Y-78627989D01*
X170663558Y-78471467D01*
X170663557Y-78471465D01*
X170612037Y-78301626D01*
X170599000Y-78169257D01*
X170599000Y-77830742D01*
X170612037Y-77698373D01*
X170663557Y-77528534D01*
X170747222Y-77372009D01*
X170859815Y-77234815D01*
X170997010Y-77122222D01*
X171153535Y-77038557D01*
X171323374Y-76987037D01*
X171500000Y-76969641D01*
X171676627Y-76987037D01*
X171676627Y-76987037D01*
G37*
G36*
X169176627Y-76987037D02*
G01*
X169346466Y-77038557D01*
X169502991Y-77122222D01*
X169538729Y-77151552D01*
X169640186Y-77234814D01*
X169723448Y-77336271D01*
X169752778Y-77372009D01*
X169836443Y-77528534D01*
X169887963Y-77698374D01*
X169901000Y-77830743D01*
X169901000Y-78169258D01*
X169887963Y-78301627D01*
X169836443Y-78471466D01*
X169752778Y-78627991D01*
X169723448Y-78663729D01*
X169640186Y-78765186D01*
X169502989Y-78877779D01*
X169346467Y-78961442D01*
X169346465Y-78961443D01*
X169176626Y-79012963D01*
X169000000Y-79030359D01*
X168823373Y-79012963D01*
X168653534Y-78961443D01*
X168497009Y-78877778D01*
X168461271Y-78848448D01*
X168359814Y-78765186D01*
X168247221Y-78627989D01*
X168163558Y-78471467D01*
X168163557Y-78471465D01*
X168112037Y-78301626D01*
X168099000Y-78169257D01*
X168099000Y-77830742D01*
X168112037Y-77698373D01*
X168163557Y-77528534D01*
X168247222Y-77372009D01*
X168359815Y-77234815D01*
X168497010Y-77122222D01*
X168653535Y-77038557D01*
X168823374Y-76987037D01*
X169000000Y-76969641D01*
X169176627Y-76987037D01*
X169176627Y-76987037D01*
G37*
G36*
X174901000Y-79026000D02*
G01*
X173099000Y-79026000D01*
X173099000Y-76974000D01*
X174901000Y-76974000D01*
X174901000Y-79026000D01*
X174901000Y-79026000D01*
G37*
G36*
X186901000Y-79026000D02*
G01*
X185099000Y-79026000D01*
X185099000Y-76974000D01*
X186901000Y-76974000D01*
X186901000Y-79026000D01*
X186901000Y-79026000D01*
G37*
G36*
X187681870Y-67076859D02*
G01*
X187875068Y-67115288D01*
X188421033Y-67341434D01*
X188912389Y-67669748D01*
X189330252Y-68087611D01*
X189658566Y-68578967D01*
X189884712Y-69124932D01*
X190000000Y-69704526D01*
X190000000Y-70295474D01*
X189884712Y-70875068D01*
X189658566Y-71421033D01*
X189330252Y-71912389D01*
X188912389Y-72330252D01*
X188421033Y-72658566D01*
X187875068Y-72884712D01*
X187681870Y-72923141D01*
X187295476Y-73000000D01*
X186704524Y-73000000D01*
X186318130Y-72923141D01*
X186124932Y-72884712D01*
X185578967Y-72658566D01*
X185087611Y-72330252D01*
X184669748Y-71912389D01*
X184341434Y-71421033D01*
X184115288Y-70875068D01*
X184000000Y-70295474D01*
X184000000Y-69704526D01*
X184115288Y-69124932D01*
X184341434Y-68578967D01*
X184669748Y-68087611D01*
X185087611Y-67669748D01*
X185578967Y-67341434D01*
X186124932Y-67115288D01*
X186318130Y-67076859D01*
X186704524Y-67000000D01*
X187295476Y-67000000D01*
X187681870Y-67076859D01*
X187681870Y-67076859D01*
G37*
G36*
X168681870Y-67076859D02*
G01*
X168875068Y-67115288D01*
X169421033Y-67341434D01*
X169912389Y-67669748D01*
X170330252Y-68087611D01*
X170658566Y-68578967D01*
X170884712Y-69124932D01*
X171000000Y-69704526D01*
X171000000Y-70295474D01*
X170884712Y-70875068D01*
X170658566Y-71421033D01*
X170330252Y-71912389D01*
X169912389Y-72330252D01*
X169421033Y-72658566D01*
X168875068Y-72884712D01*
X168681870Y-72923141D01*
X168295476Y-73000000D01*
X167704524Y-73000000D01*
X167318130Y-72923141D01*
X167124932Y-72884712D01*
X166578967Y-72658566D01*
X166087611Y-72330252D01*
X165669748Y-71912389D01*
X165341434Y-71421033D01*
X165115288Y-70875068D01*
X165000000Y-70295474D01*
X165000000Y-69704526D01*
X165115288Y-69124932D01*
X165341434Y-68578967D01*
X165669748Y-68087611D01*
X166087611Y-67669748D01*
X166578967Y-67341434D01*
X167124932Y-67115288D01*
X167318130Y-67076859D01*
X167704524Y-67000000D01*
X168295476Y-67000000D01*
X168681870Y-67076859D01*
X168681870Y-67076859D01*
G37*
G36*
X174801000Y-58854558D02*
G01*
X174803402Y-58878944D01*
X174810515Y-58902393D01*
X174822066Y-58924004D01*
X174837611Y-58942946D01*
X174856553Y-58958491D01*
X174878164Y-58970042D01*
X174901613Y-58977155D01*
X174925999Y-58979557D01*
X174931649Y-58979000D01*
X175098893Y-58979000D01*
X175253642Y-59009781D01*
X175399414Y-59070162D01*
X175399416Y-59070163D01*
X175530608Y-59157822D01*
X175642178Y-59269392D01*
X175721317Y-59387833D01*
X175729838Y-59400586D01*
X175790219Y-59546358D01*
X175821000Y-59701107D01*
X175821000Y-59858893D01*
X175790219Y-60013642D01*
X175729838Y-60159414D01*
X175729837Y-60159416D01*
X175642178Y-60290608D01*
X175530608Y-60402178D01*
X175399416Y-60489837D01*
X175399415Y-60489838D01*
X175399414Y-60489838D01*
X175253642Y-60550219D01*
X175098893Y-60581000D01*
X174941107Y-60581000D01*
X174786358Y-60550219D01*
X174640586Y-60489838D01*
X174640585Y-60489838D01*
X174640584Y-60489837D01*
X174509392Y-60402178D01*
X174397822Y-60290608D01*
X174310163Y-60159416D01*
X174310162Y-60159414D01*
X174249781Y-60013642D01*
X174219000Y-59858893D01*
X174219000Y-59701107D01*
X174249781Y-59546358D01*
X174310162Y-59400586D01*
X174318683Y-59387833D01*
X174397822Y-59269392D01*
X174509392Y-59157822D01*
X174640584Y-59070163D01*
X174640586Y-59070162D01*
X174709823Y-59041483D01*
X174731434Y-59029932D01*
X174750376Y-59014387D01*
X174765921Y-58995445D01*
X174777472Y-58973834D01*
X174784585Y-58950385D01*
X174786987Y-58925999D01*
X174784585Y-58901613D01*
X174777472Y-58878164D01*
X174765921Y-58856553D01*
X174750376Y-58837611D01*
X174731434Y-58822066D01*
X174709823Y-58810515D01*
X174686374Y-58803402D01*
X174661988Y-58801000D01*
X173199000Y-58801000D01*
X173199000Y-57199000D01*
X174801000Y-57199000D01*
X174801000Y-58854558D01*
X174801000Y-58854558D01*
G37*
G36*
X181343642Y-59009781D02*
G01*
X181489414Y-59070162D01*
X181489416Y-59070163D01*
X181620608Y-59157822D01*
X181732178Y-59269392D01*
X181811317Y-59387833D01*
X181819838Y-59400586D01*
X181880219Y-59546358D01*
X181911000Y-59701107D01*
X181911000Y-59858893D01*
X181880219Y-60013642D01*
X181819838Y-60159414D01*
X181819837Y-60159416D01*
X181732178Y-60290608D01*
X181620608Y-60402178D01*
X181489416Y-60489837D01*
X181489415Y-60489838D01*
X181489414Y-60489838D01*
X181343642Y-60550219D01*
X181188893Y-60581000D01*
X181031107Y-60581000D01*
X180876358Y-60550219D01*
X180730586Y-60489838D01*
X180730585Y-60489838D01*
X180730584Y-60489837D01*
X180599392Y-60402178D01*
X180487822Y-60290608D01*
X180400163Y-60159416D01*
X180400162Y-60159414D01*
X180339781Y-60013642D01*
X180309000Y-59858893D01*
X180309000Y-59701107D01*
X180339781Y-59546358D01*
X180400162Y-59400586D01*
X180408683Y-59387833D01*
X180487822Y-59269392D01*
X180599392Y-59157822D01*
X180730584Y-59070163D01*
X180730586Y-59070162D01*
X180876358Y-59009781D01*
X181031107Y-58979000D01*
X181188893Y-58979000D01*
X181343642Y-59009781D01*
X181343642Y-59009781D01*
G37*
G36*
X179313642Y-59009781D02*
G01*
X179459414Y-59070162D01*
X179459416Y-59070163D01*
X179590608Y-59157822D01*
X179702178Y-59269392D01*
X179781317Y-59387833D01*
X179789838Y-59400586D01*
X179850219Y-59546358D01*
X179881000Y-59701107D01*
X179881000Y-59858893D01*
X179850219Y-60013642D01*
X179789838Y-60159414D01*
X179789837Y-60159416D01*
X179702178Y-60290608D01*
X179590608Y-60402178D01*
X179459416Y-60489837D01*
X179459415Y-60489838D01*
X179459414Y-60489838D01*
X179313642Y-60550219D01*
X179158893Y-60581000D01*
X179001107Y-60581000D01*
X178846358Y-60550219D01*
X178700586Y-60489838D01*
X178700585Y-60489838D01*
X178700584Y-60489837D01*
X178569392Y-60402178D01*
X178457822Y-60290608D01*
X178370163Y-60159416D01*
X178370162Y-60159414D01*
X178309781Y-60013642D01*
X178279000Y-59858893D01*
X178279000Y-59701107D01*
X178309781Y-59546358D01*
X178370162Y-59400586D01*
X178378683Y-59387833D01*
X178457822Y-59269392D01*
X178569392Y-59157822D01*
X178700584Y-59070163D01*
X178700586Y-59070162D01*
X178846358Y-59009781D01*
X179001107Y-58979000D01*
X179158893Y-58979000D01*
X179313642Y-59009781D01*
X179313642Y-59009781D01*
G37*
G36*
X177283642Y-59009781D02*
G01*
X177429414Y-59070162D01*
X177429416Y-59070163D01*
X177560608Y-59157822D01*
X177672178Y-59269392D01*
X177751317Y-59387833D01*
X177759838Y-59400586D01*
X177820219Y-59546358D01*
X177851000Y-59701107D01*
X177851000Y-59858893D01*
X177820219Y-60013642D01*
X177759838Y-60159414D01*
X177759837Y-60159416D01*
X177672178Y-60290608D01*
X177560608Y-60402178D01*
X177429416Y-60489837D01*
X177429415Y-60489838D01*
X177429414Y-60489838D01*
X177283642Y-60550219D01*
X177128893Y-60581000D01*
X176971107Y-60581000D01*
X176816358Y-60550219D01*
X176670586Y-60489838D01*
X176670585Y-60489838D01*
X176670584Y-60489837D01*
X176539392Y-60402178D01*
X176427822Y-60290608D01*
X176340163Y-60159416D01*
X176340162Y-60159414D01*
X176279781Y-60013642D01*
X176249000Y-59858893D01*
X176249000Y-59701107D01*
X176279781Y-59546358D01*
X176340162Y-59400586D01*
X176348683Y-59387833D01*
X176427822Y-59269392D01*
X176539392Y-59157822D01*
X176670584Y-59070163D01*
X176670586Y-59070162D01*
X176816358Y-59009781D01*
X176971107Y-58979000D01*
X177128893Y-58979000D01*
X177283642Y-59009781D01*
X177283642Y-59009781D01*
G37*
G36*
X169736564Y-57879389D02*
G01*
X169927833Y-57958615D01*
X169927835Y-57958616D01*
X170099973Y-58073635D01*
X170246365Y-58220027D01*
X170361385Y-58392167D01*
X170440611Y-58583436D01*
X170481000Y-58786484D01*
X170481000Y-58993516D01*
X170440611Y-59196564D01*
X170410444Y-59269393D01*
X170361384Y-59387835D01*
X170246365Y-59559973D01*
X170099973Y-59706365D01*
X169927835Y-59821384D01*
X169927834Y-59821385D01*
X169927833Y-59821385D01*
X169736564Y-59900611D01*
X169533516Y-59941000D01*
X169326484Y-59941000D01*
X169123436Y-59900611D01*
X168932167Y-59821385D01*
X168932166Y-59821385D01*
X168932165Y-59821384D01*
X168760027Y-59706365D01*
X168613635Y-59559973D01*
X168498616Y-59387835D01*
X168449556Y-59269393D01*
X168419389Y-59196564D01*
X168379000Y-58993516D01*
X168379000Y-58786484D01*
X168419389Y-58583436D01*
X168498615Y-58392167D01*
X168613635Y-58220027D01*
X168760027Y-58073635D01*
X168932165Y-57958616D01*
X168932167Y-57958615D01*
X169123436Y-57879389D01*
X169326484Y-57839000D01*
X169533516Y-57839000D01*
X169736564Y-57879389D01*
X169736564Y-57879389D01*
G37*
G36*
X185986564Y-57879389D02*
G01*
X186177833Y-57958615D01*
X186177835Y-57958616D01*
X186349973Y-58073635D01*
X186496365Y-58220027D01*
X186611385Y-58392167D01*
X186690611Y-58583436D01*
X186731000Y-58786484D01*
X186731000Y-58993516D01*
X186690611Y-59196564D01*
X186660444Y-59269393D01*
X186611384Y-59387835D01*
X186496365Y-59559973D01*
X186349973Y-59706365D01*
X186177835Y-59821384D01*
X186177834Y-59821385D01*
X186177833Y-59821385D01*
X185986564Y-59900611D01*
X185783516Y-59941000D01*
X185576484Y-59941000D01*
X185373436Y-59900611D01*
X185182167Y-59821385D01*
X185182166Y-59821385D01*
X185182165Y-59821384D01*
X185010027Y-59706365D01*
X184863635Y-59559973D01*
X184748616Y-59387835D01*
X184699556Y-59269393D01*
X184669389Y-59196564D01*
X184629000Y-58993516D01*
X184629000Y-58786484D01*
X184669389Y-58583436D01*
X184748615Y-58392167D01*
X184863635Y-58220027D01*
X185010027Y-58073635D01*
X185182165Y-57958616D01*
X185182167Y-57958615D01*
X185373436Y-57879389D01*
X185576484Y-57839000D01*
X185783516Y-57839000D01*
X185986564Y-57879389D01*
X185986564Y-57879389D01*
G37*
G36*
X180333642Y-57229781D02*
G01*
X180479414Y-57290162D01*
X180479416Y-57290163D01*
X180610608Y-57377822D01*
X180722178Y-57489392D01*
X180809837Y-57620584D01*
X180809838Y-57620586D01*
X180870219Y-57766358D01*
X180901000Y-57921107D01*
X180901000Y-58078893D01*
X180870219Y-58233642D01*
X180809838Y-58379414D01*
X180809837Y-58379416D01*
X180722178Y-58510608D01*
X180610608Y-58622178D01*
X180479416Y-58709837D01*
X180479415Y-58709838D01*
X180479414Y-58709838D01*
X180333642Y-58770219D01*
X180178893Y-58801000D01*
X180021107Y-58801000D01*
X179866358Y-58770219D01*
X179720586Y-58709838D01*
X179720585Y-58709838D01*
X179720584Y-58709837D01*
X179589392Y-58622178D01*
X179477822Y-58510608D01*
X179390163Y-58379416D01*
X179390162Y-58379414D01*
X179329781Y-58233642D01*
X179299000Y-58078893D01*
X179299000Y-57921107D01*
X179329781Y-57766358D01*
X179390162Y-57620586D01*
X179390163Y-57620584D01*
X179477822Y-57489392D01*
X179589392Y-57377822D01*
X179720584Y-57290163D01*
X179720586Y-57290162D01*
X179866358Y-57229781D01*
X180021107Y-57199000D01*
X180178893Y-57199000D01*
X180333642Y-57229781D01*
X180333642Y-57229781D01*
G37*
G36*
X176263642Y-57229781D02*
G01*
X176409414Y-57290162D01*
X176409416Y-57290163D01*
X176540608Y-57377822D01*
X176652178Y-57489392D01*
X176739837Y-57620584D01*
X176739838Y-57620586D01*
X176800219Y-57766358D01*
X176831000Y-57921107D01*
X176831000Y-58078893D01*
X176800219Y-58233642D01*
X176739838Y-58379414D01*
X176739837Y-58379416D01*
X176652178Y-58510608D01*
X176540608Y-58622178D01*
X176409416Y-58709837D01*
X176409415Y-58709838D01*
X176409414Y-58709838D01*
X176263642Y-58770219D01*
X176108893Y-58801000D01*
X175951107Y-58801000D01*
X175796358Y-58770219D01*
X175650586Y-58709838D01*
X175650585Y-58709838D01*
X175650584Y-58709837D01*
X175519392Y-58622178D01*
X175407822Y-58510608D01*
X175320163Y-58379416D01*
X175320162Y-58379414D01*
X175259781Y-58233642D01*
X175229000Y-58078893D01*
X175229000Y-57921107D01*
X175259781Y-57766358D01*
X175320162Y-57620586D01*
X175320163Y-57620584D01*
X175407822Y-57489392D01*
X175519392Y-57377822D01*
X175650584Y-57290163D01*
X175650586Y-57290162D01*
X175796358Y-57229781D01*
X175951107Y-57199000D01*
X176108893Y-57199000D01*
X176263642Y-57229781D01*
X176263642Y-57229781D01*
G37*
G36*
X178293642Y-57229781D02*
G01*
X178439414Y-57290162D01*
X178439416Y-57290163D01*
X178570608Y-57377822D01*
X178682178Y-57489392D01*
X178769837Y-57620584D01*
X178769838Y-57620586D01*
X178830219Y-57766358D01*
X178861000Y-57921107D01*
X178861000Y-58078893D01*
X178830219Y-58233642D01*
X178769838Y-58379414D01*
X178769837Y-58379416D01*
X178682178Y-58510608D01*
X178570608Y-58622178D01*
X178439416Y-58709837D01*
X178439415Y-58709838D01*
X178439414Y-58709838D01*
X178293642Y-58770219D01*
X178138893Y-58801000D01*
X177981107Y-58801000D01*
X177826358Y-58770219D01*
X177680586Y-58709838D01*
X177680585Y-58709838D01*
X177680584Y-58709837D01*
X177549392Y-58622178D01*
X177437822Y-58510608D01*
X177350163Y-58379416D01*
X177350162Y-58379414D01*
X177289781Y-58233642D01*
X177259000Y-58078893D01*
X177259000Y-57921107D01*
X177289781Y-57766358D01*
X177350162Y-57620586D01*
X177350163Y-57620584D01*
X177437822Y-57489392D01*
X177549392Y-57377822D01*
X177680584Y-57290163D01*
X177680586Y-57290162D01*
X177826358Y-57229781D01*
X177981107Y-57199000D01*
X178138893Y-57199000D01*
X178293642Y-57229781D01*
X178293642Y-57229781D01*
G37*
G36*
X184406162Y-53824368D02*
G01*
X184715724Y-53952593D01*
X184715725Y-53952594D01*
X184994324Y-54138747D01*
X185231253Y-54375676D01*
X185355637Y-54561830D01*
X185417407Y-54654276D01*
X185545632Y-54963838D01*
X185611000Y-55292465D01*
X185611000Y-55627535D01*
X185545632Y-55956162D01*
X185417407Y-56265724D01*
X185417406Y-56265725D01*
X185231253Y-56544324D01*
X184994324Y-56781253D01*
X184808170Y-56905637D01*
X184715724Y-56967407D01*
X184406162Y-57095632D01*
X184077535Y-57161000D01*
X183742465Y-57161000D01*
X183413838Y-57095632D01*
X183104276Y-56967407D01*
X183011830Y-56905637D01*
X182825676Y-56781253D01*
X182588747Y-56544324D01*
X182402594Y-56265725D01*
X182402593Y-56265724D01*
X182274368Y-55956162D01*
X182209000Y-55627535D01*
X182209000Y-55292465D01*
X182274368Y-54963838D01*
X182402593Y-54654276D01*
X182464363Y-54561830D01*
X182588747Y-54375676D01*
X182825676Y-54138747D01*
X183104275Y-53952594D01*
X183104276Y-53952593D01*
X183413838Y-53824368D01*
X183742465Y-53759000D01*
X184077535Y-53759000D01*
X184406162Y-53824368D01*
X184406162Y-53824368D01*
G37*
G36*
X171706162Y-53824368D02*
G01*
X172015724Y-53952593D01*
X172015725Y-53952594D01*
X172294324Y-54138747D01*
X172531253Y-54375676D01*
X172655637Y-54561830D01*
X172717407Y-54654276D01*
X172845632Y-54963838D01*
X172911000Y-55292465D01*
X172911000Y-55627535D01*
X172845632Y-55956162D01*
X172717407Y-56265724D01*
X172717406Y-56265725D01*
X172531253Y-56544324D01*
X172294324Y-56781253D01*
X172108170Y-56905637D01*
X172015724Y-56967407D01*
X171706162Y-57095632D01*
X171377535Y-57161000D01*
X171042465Y-57161000D01*
X170713838Y-57095632D01*
X170404276Y-56967407D01*
X170311830Y-56905637D01*
X170125676Y-56781253D01*
X169888747Y-56544324D01*
X169702594Y-56265725D01*
X169702593Y-56265724D01*
X169574368Y-55956162D01*
X169509000Y-55627535D01*
X169509000Y-55292465D01*
X169574368Y-54963838D01*
X169702593Y-54654276D01*
X169764363Y-54561830D01*
X169888747Y-54375676D01*
X170125676Y-54138747D01*
X170404275Y-53952594D01*
X170404276Y-53952593D01*
X170713838Y-53824368D01*
X171042465Y-53759000D01*
X171377535Y-53759000D01*
X171706162Y-53824368D01*
X171706162Y-53824368D01*
G37*
M02*
